{
.appVersion = "939";
copyright = Tworog;
customParameters = (
{
name = panose;
value = (
0,
0,
5,
0,
0,
0,
0,
0,
0,
0
);
},
{
name = codePageRanges;
value = (
1252
);
},
{
name = glyphOrder;
value = (
.notdef,
space,
uni0000,
uni000D,
uniE003,
uniE004,
uniE005,
uniE006,
uniE007,
uniE008,
uniE009,
uniE00A,
uniE00B,
uniE00C,
uniE00D,
uniE00E,
uniE00F,
uniF000,
uniF001,
uniF002,
uniF003,
uniF004,
uniF005,
uniF006,
uniF007,
uniF008,
uniF009,
uniF011,
uniF012,
uniF013,
uniF014,
uniF015,
uniF016,
uniF017,
uniF018,
uniF019,
uniF020,
uniF021,
uniF022,
uniE00Z,
uniF023,
uniE002,
uniED01,
uniED02,
uniED03,
uniED04,
uniED05,
uniED06,
uniED07,
uniED08,
uniED09,
uniED10,
uniED11,
uniED12,
uniED13,
uniED14,
uniED15,
uniED16,
uniED17,
uniED18,
uniF024,
uniF025,
uniF026,
uniF027,
uniF028,
uniF029,
uniF030
);
}
);
date = "2017-08-02 10:35:12 +0000";
designer = Tworog;
designerURL = "http://tworog.ru";
disablesNiceNames = 1;
familyName = emgicons;
fontMaster = (
{
ascender = 1707;
capHeight = 0;
customParameters = (
{
name = typoAscender;
value = 1707;
},
{
name = typoDescender;
value = -427;
},
{
name = typoLineGap;
value = 324;
},
{
name = winAscent;
value = 2031;
},
{
name = winDescent;
value = 427;
},
{
name = hheaAscender;
value = 2031;
},
{
name = hheaDescender;
value = -427;
},
{
name = underlinePosition;
value = -213;
},
{
name = underlineThickness;
value = 106;
}
);
descender = -427;
id = "489549A1-39E0-4C35-B6CE-29571649E041";
weightValue = 400;
widthValue = 5;
xHeight = 0;
}
);
glyphs = (
{
glyphname = .notdef;
lastChange = "2017-08-02 15:03:29 +0000";
layers = (
{
layerId = "489549A1-39E0-4C35-B6CE-29571649E041";
paths = (
{
closed = 1;
nodes = (
"875 -427 LINE",
"198 -427 LINE",
"198 1707 LINE",
"875 1707 LINE"
);
},
{
closed = 1;
nodes = (
"570 1414 LINE",
"570 1493 LINE",
"710 1493 LINE",
"710 1564 LINE",
"358 1564 LINE",
"358 1493 LINE",
"497 1493 LINE",
"497 1414 LINE",
"356 1414 LINE",
"356 1344 LINE",
"710 1344 LINE",
"710 1414 LINE"
);
},
{
closed = 1;
nodes = (
"710 1067 LINE",
"710 1139 LINE",
"570 1139 LINE",
"570 1289 LINE",
"356 1289 LINE",
"356 1067 LINE"
);
},
{
closed = 1;
nodes = (
"497 1139 LINE",
"427 1139 LINE",
"427 1216 LINE",
"497 1216 LINE"
);
},
{
closed = 1;
nodes = (
"570 789 LINE",
"570 939 LINE",
"710 939 LINE",
"710 1009 LINE",
"356 1009 LINE",
"356 939 LINE",
"497 939 LINE",
"497 860 LINE",
"356 860 LINE",
"356 789 LINE"
);
},
{
closed = 1;
nodes = (
"356 740 LINE",
"356 668 LINE",
"710 668 LINE",
"710 881 LINE",
"640 881 LINE",
"640 740 LINE"
);
},
{
closed = 1;
nodes = (
"356 621 LINE",
"356 380 LINE",
"710 380 LINE",
"710 621 LINE",
"497 621 LINE",
"497 501 LINE",
"570 501 LINE",
"570 550 LINE",
"640 550 LINE",
"640 450 LINE",
"427 450 LINE",
"427 621 LINE"
);
},
{
closed = 1;
nodes = (
"356 252 LINE",
"356 11 LINE",
"710 11 LINE",
"710 252 LINE"
);
},
{
closed = 1;
nodes = (
"640 81 LINE",
"427 81 LINE",
"427 181 LINE",
"640 181 LINE"
);
},
{
closed = 1;
nodes = (
"493 -209 LINE",
"642 -109 LINE",
"710 -109 LINE",
"710 -38 LINE",
"356 -38 LINE",
"356 -109 LINE",
"506 -109 LINE",
"356 -209 LINE",
"356 -279 LINE",
"710 -279 LINE",
"710 -209 LINE"
);
}
);
width = 1066;
}
);
note = .notdef;
},
{
glyphname = uniE003;
lastChange = "2017-08-02 15:03:29 +0000";
layers = (
{
layerId = "489549A1-39E0-4C35-B6CE-29571649E041";
paths = (
{
closed = 1;
nodes = (
"1269 517 OFFCURVE",
"1253 532 OFFCURVE",
"1236 545 CURVE",
"1164 596 LINE",
"1128 621 LINE SMOOTH",
"1111 633 OFFCURVE",
"1092 651 OFFCURVE",
"1083 660 CURVE",
"1083 845 LINE SMOOTH",
"1083 869 OFFCURVE",
"1074 898 OFFCURVE",
"1030 898 CURVE SMOOTH",
"1009 898 LINE SMOOTH",
"991 898 OFFCURVE",
"970 899 OFFCURVE",
"953 899 CURVE SMOOTH",
"937 899 LINE SMOOTH",
"900 898 OFFCURVE",
"882 880 OFFCURVE",
"882 843 CURVE SMOOTH",
"882 797 LINE",
"817 846 OFFCURVE",
"728 906 OFFCURVE",
"727 907 CURVE",
"712 917 OFFCURVE",
"683 924 OFFCURVE",
"654 924 CURVE SMOOTH",
"627 924 OFFCURVE",
"587 918 OFFCURVE",
"556 890 CURVE",
"433 810 LINE SMOOTH",
"285 714 OFFCURVE",
"62 568 OFFCURVE",
"25 543 CURVE SMOOTH",
"-4 522 OFFCURVE",
"2 477 OFFCURVE",
"18 453 CURVE SMOOTH",
"23 445 OFFCURVE",
"38 428 OFFCURVE",
"67 395 CURVE",
"77 385 OFFCURVE",
"85 376 OFFCURVE",
"86 374 CURVE",
"107 345 OFFCURVE",
"144 338 OFFCURVE",
"174 359 CURVE",
"176 360 OFFCURVE",
"182 365 OFFCURVE",
"193 372 CURVE",
"193 -26 LINE SMOOTH",
"193 -35 OFFCURVE",
"193 -45 OFFCURVE",
"192 -54 CURVE",
"192 -73 OFFCURVE",
"199 -91 OFFCURVE",
"212 -105 CURVE",
"226 -119 OFFCURVE",
"243 -128 OFFCURVE",
"263 -127 CURVE",
"632 -127 LINE SMOOTH",
"758 -128 OFFCURVE",
"885 -128 OFFCURVE",
"962 -128 CURVE SMOOTH",
"1028 -128 LINE SMOOTH",
"1041 -128 OFFCURVE",
"1062 -128 OFFCURVE",
"1082 -113 CURVE",
"1104 -95 OFFCURVE",
"1109 -73 OFFCURVE",
"1109 -58 CURVE SMOOTH",
"1109 365 LINE",
"1120 357 LINE",
"1131 350 OFFCURVE",
"1143 346 OFFCURVE",
"1155 346 CURVE SMOOTH",
"1172 346 OFFCURVE",
"1188 354 OFFCURVE",
"1201 370 CURVE",
"1204 372 OFFCURVE",
"1206 375 OFFCURVE",
"1208 378 CURVE",
"1258 447 LINE SMOOTH",
"1263 454 OFFCURVE",
"1276 471 OFFCURVE",
"1273 494 CURVE"
);
},
{
closed = 1;
nodes = (
"1130 441 LINE SMOOTH",
"1026 512 OFFCURVE",
"710 727 OFFCURVE",
"681 748 CURVE",
"676 751 OFFCURVE",
"666 759 OFFCURVE",
"651 759 CURVE SMOOTH",
"636 759 OFFCURVE",
"626 751 OFFCURVE",
"621 748 CURVE",
"586 723 OFFCURVE",
"406 603 OFFCURVE",
"274 515 CURVE SMOOTH",
"212 474 OFFCURVE",
"160 440 OFFCURVE",
"140 426 CURVE",
"135 431 OFFCURVE",
"129 438 OFFCURVE",
"123 445 CURVE",
"111 457 OFFCURVE",
"92 479 OFFCURVE",
"83 492 CURVE",
"145 534 OFFCURVE",
"348 666 OFFCURVE",
"473 748 CURVE SMOOTH",
"542 792 OFFCURVE",
"594 826 OFFCURVE",
"600 830 CURVE",
"602 831 OFFCURVE",
"603 833 OFFCURVE",
"604 834 CURVE",
"619 847 OFFCURVE",
"642 849 OFFCURVE",
"654 849 CURVE SMOOTH",
"671 849 OFFCURVE",
"684 846 OFFCURVE",
"686 845 CURVE",
"703 834 OFFCURVE",
"882 706 OFFCURVE",
"896 695 CURVE SMOOTH",
"905 688 OFFCURVE",
"916 685 OFFCURVE",
"928 687 CURVE",
"945 692 OFFCURVE",
"957 707 OFFCURVE",
"957 724 CURVE",
"956 749 LINE",
"957 765 OFFCURVE",
"957 798 OFFCURVE",
"957 824 CURVE",
"1008 824 LINE",
"1009 820 LINE",
"1009 772 OFFCURVE",
"1009 709 OFFCURVE",
"1008 664 CURVE SMOOTH",
"1008 653 OFFCURVE",
"1006 628 OFFCURVE",
"1025 612 CURVE",
"1032 605 OFFCURVE",
"1059 579 OFFCURVE",
"1085 561 CURVE SMOOTH",
"1121 535 LINE",
"1192 485 LINE",
"1193 484 LINE",
"1183 471 OFFCURVE",
"1162 441 OFFCURVE",
"1151 426 CURVE"
);
},
{
closed = 1;
nodes = (
"1035 416 LINE",
"1035 -53 LINE",
"1029 -53 LINE",
"1024 -53 LINE",
"867 -53 LINE",
"867 168 LINE SMOOTH",
"867 184 OFFCURVE",
"867 201 OFFCURVE",
"866 217 CURVE SMOOTH",
"865 242 OFFCURVE",
"856 266 OFFCURVE",
"843 286 CURVE",
"821 317 OFFCURVE",
"795 339 OFFCURVE",
"764 349 CURVE SMOOTH",
"722 364 OFFCURVE",
"559 363 OFFCURVE",
"515 339 CURVE",
"483 320 OFFCURVE",
"459 293 OFFCURVE",
"445 258 CURVE",
"439 241 OFFCURVE",
"435 225 OFFCURVE",
"435 209 CURVE SMOOTH",
"435 -53 LINE",
"267 -53 LINE",
"267 416 LINE",
"267 421 LINE",
"315 453 LINE SMOOTH",
"435 533 OFFCURVE",
"595 640 OFFCURVE",
"651 678 CURVE"
);
},
{
closed = 1;
nodes = (
"632 -53 LINE",
"509 -53 LINE",
"510 209 LINE SMOOTH",
"510 216 OFFCURVE",
"511 223 OFFCURVE",
"514 230 CURVE SMOOTH",
"522 250 OFFCURVE",
"534 264 OFFCURVE",
"551 274 CURVE",
"577 286 OFFCURVE",
"715 288 OFFCURVE",
"740 279 CURVE SMOOTH",
"755 274 OFFCURVE",
"769 262 OFFCURVE",
"781 244 CURVE",
"788 235 OFFCURVE",
"791 224 OFFCURVE",
"792 212 CURVE SMOOTH",
"793 198 OFFCURVE",
"793 183 OFFCURVE",
"793 168 CURVE SMOOTH",
"792 -25 LINE SMOOTH",
"792 -34 OFFCURVE",
"792 -44 OFFCURVE",
"793 -53 CURVE"
);
}
);
width = 1280;
}
);
note = uniE003;
unicode = E003;
},
{
glyphname = uniE004;
lastChange = "2017-08-02 15:03:29 +0000";
layers = (
{
layerId = "489549A1-39E0-4C35-B6CE-29571649E041";
paths = (
{
closed = 1;
nodes = (
"1234 342 LINE SMOOTH",
"1233 357 OFFCURVE",
"1226 369 OFFCURVE",
"1214 375 CURVE",
"1231 388 OFFCURVE",
"1239 407 OFFCURVE",
"1238 430 CURVE SMOOTH",
"1237 461 OFFCURVE",
"1236 492 OFFCURVE",
"1236 523 CURVE",
"1235 536 OFFCURVE",
"1236 550 OFFCURVE",
"1236 564 CURVE SMOOTH",
"1236 581 OFFCURVE",
"1236 599 OFFCURVE",
"1235 617 CURVE",
"1235 632 OFFCURVE",
"1233 646 OFFCURVE",
"1230 658 CURVE",
"1215 731 OFFCURVE",
"1144 786 OFFCURVE",
"1068 786 CURVE SMOOTH",
"1065 786 LINE",
"901 786 LINE",
"900 811 OFFCURVE",
"900 836 OFFCURVE",
"898 861 CURVE SMOOTH",
"896 892 OFFCURVE",
"882 922 OFFCURVE",
"856 948 CURVE SMOOTH",
"821 981 OFFCURVE",
"779 993 OFFCURVE",
"745 1000 CURVE",
"704 1010 OFFCURVE",
"659 1012 OFFCURVE",
"610 1009 CURVE SMOOTH",
"560 1006 OFFCURVE",
"508 999 OFFCURVE",
"457 970 CURVE SMOOTH",
"406 940 OFFCURVE",
"378 894 OFFCURVE",
"378 837 CURVE SMOOTH",
"378 786 LINE",
"212 786 LINE SMOOTH",
"200 786 OFFCURVE",
"189 785 OFFCURVE",
"178 783 CURVE SMOOTH",
"101 771 OFFCURVE",
"41 701 OFFCURVE",
"41 622 CURVE SMOOTH",
"40 577 OFFCURVE",
"40 533 OFFCURVE",
"40 489 CURVE SMOOTH",
"40 431 LINE SMOOTH",
"40 406 OFFCURVE",
"46 390 OFFCURVE",
"62 379 CURVE",
"49 372 OFFCURVE",
"40 359 OFFCURVE",
"40 343 CURVE SMOOTH",
"40 255 LINE SMOOTH",
"40 185 OFFCURVE",
"40 115 OFFCURVE",
"41 45 CURVE SMOOTH",
"41 -30 OFFCURVE",
"99 -100 OFFCURVE",
"172 -112 CURVE SMOOTH",
"188 -115 OFFCURVE",
"203 -116 OFFCURVE",
"216 -116 CURVE SMOOTH",
"753 -116 LINE",
"1070 -116 LINE SMOOTH",
"1153 -116 OFFCURVE",
"1224 -53 OFFCURVE",
"1233 28 CURVE",
"1234 42 OFFCURVE",
"1235 56 OFFCURVE",
"1235 71 CURVE SMOOTH",
"1236 149 OFFCURVE",
"1236 227 OFFCURVE",
"1236 305 CURVE",
"1235 314 OFFCURVE",
"1235 322 OFFCURVE",
"1235 332 CURVE"
);
},
{
closed = 1;
nodes = (
"533 921 OFFCURVE",
"575 926 OFFCURVE",
"616 929 CURVE SMOOTH",
"657 932 OFFCURVE",
"693 930 OFFCURVE",
"728 921 CURVE",
"763 914 OFFCURVE",
"784 905 OFFCURVE",
"800 890 CURVE SMOOTH",
"812 878 OFFCURVE",
"817 868 OFFCURVE",
"818 857 CURVE",
"819 833 OFFCURVE",
"820 809 OFFCURVE",
"820 786 CURVE",
"458 786 LINE",
"458 837 LINE SMOOTH",
"458 866 OFFCURVE",
"469 885 OFFCURVE",
"498 901 CURVE SMOOTH"
);
},
{
closed = 1;
nodes = (
"121 621 LINE SMOOTH",
"121 665 OFFCURVE",
"156 698 OFFCURVE",
"190 704 CURVE",
"198 705 OFFCURVE",
"205 706 OFFCURVE",
"212 706 CURVE SMOOTH",
"393 706 LINE",
"409 707 OFFCURVE",
"425 707 OFFCURVE",
"442 706 CURVE",
"573 705 OFFCURVE",
"705 705 OFFCURVE",
"837 706 CURVE",
"853 707 OFFCURVE",
"869 707 OFFCURVE",
"886 706 CURVE",
"957 705 OFFCURVE",
"995 705 OFFCURVE",
"1067 706 CURVE",
"1112 705 OFFCURVE",
"1144 674 OFFCURVE",
"1152 641 CURVE SMOOTH",
"1154 633 OFFCURVE",
"1156 623 OFFCURVE",
"1156 615 CURVE SMOOTH",
"1156 564 LINE",
"1156 521 LINE",
"1157 493 OFFCURVE",
"1157 465 OFFCURVE",
"1158 436 CURVE",
"1086 410 OFFCURVE",
"1022 387 OFFCURVE",
"953 373 CURVE",
"916 364 LINE",
"905 360 OFFCURVE",
"898 358 OFFCURVE",
"881 356 CURVE",
"858 352 OFFCURVE",
"833 351 OFFCURVE",
"809 351 CURVE",
"783 350 LINE",
"778 350 OFFCURVE",
"774 349 OFFCURVE",
"769 349 CURVE",
"769 352 LINE",
"768 392 OFFCURVE",
"739 419 OFFCURVE",
"699 419 CURVE SMOOTH",
"576 419 LINE SMOOTH",
"538 419 OFFCURVE",
"507 389 OFFCURVE",
"504 351 CURVE",
"477 352 OFFCURVE",
"449 355 OFFCURVE",
"419 360 CURVE SMOOTH",
"358 368 OFFCURVE",
"316 381 OFFCURVE",
"263 397 CURVE",
"246 403 OFFCURVE",
"228 408 OFFCURVE",
"210 413 CURVE SMOOTH",
"180 422 OFFCURVE",
"151 431 OFFCURVE",
"121 441 CURVE"
);
},
{
closed = 1;
nodes = (
"1156 71 LINE SMOOTH",
"1156 60 OFFCURVE",
"1155 48 OFFCURVE",
"1154 36 CURVE",
"1149 -3 OFFCURVE",
"1112 -36 OFFCURVE",
"1070 -36 CURVE SMOOTH",
"217 -36 LINE SMOOTH",
"207 -36 OFFCURVE",
"196 -35 OFFCURVE",
"186 -33 CURVE SMOOTH",
"154 -27 OFFCURVE",
"122 6 OFFCURVE",
"121 46 CURVE",
"121 343 LINE SMOOTH",
"121 348 OFFCURVE",
"120 353 OFFCURVE",
"118 358 CURVE",
"141 351 OFFCURVE",
"164 344 OFFCURVE",
"187 336 CURVE",
"206 331 OFFCURVE",
"223 326 OFFCURVE",
"240 321 CURVE SMOOTH",
"293 305 OFFCURVE",
"340 291 OFFCURVE",
"408 280 CURVE",
"441 276 OFFCURVE",
"473 272 OFFCURVE",
"504 270 CURVE",
"505 246 OFFCURVE",
"504 223 OFFCURVE",
"504 199 CURVE SMOOTH",
"504 169 LINE SMOOTH",
"504 100 OFFCURVE",
"555 91 OFFCURVE",
"576 90 CURVE SMOOTH",
"596 89 OFFCURVE",
"617 89 OFFCURVE",
"637 89 CURVE SMOOTH",
"658 89 OFFCURVE",
"679 89 OFFCURVE",
"700 90 CURVE SMOOTH",
"743 92 OFFCURVE",
"770 121 OFFCURVE",
"770 166 CURVE SMOOTH",
"770 269 LINE",
"787 269 LINE",
"813 271 LINE",
"839 272 OFFCURVE",
"865 273 OFFCURVE",
"891 276 CURVE SMOOTH",
"915 279 OFFCURVE",
"928 283 OFFCURVE",
"940 287 CURVE",
"948 290 OFFCURVE",
"955 291 OFFCURVE",
"969 294 CURVE SMOOTH",
"1033 307 OFFCURVE",
"1092 328 OFFCURVE",
"1156 351 CURVE",
"1155 347 OFFCURVE",
"1155 343 OFFCURVE",
"1155 339 CURVE SMOOTH",
"1155 328 LINE",
"1156 321 OFFCURVE",
"1156 312 OFFCURVE",
"1156 305 CURVE SMOOTH"
);
},
{
closed = 1;
nodes = (
"691 170 LINE",
"655 169 OFFCURVE",
"620 169 OFFCURVE",
"585 170 CURVE",
"585 282 LINE SMOOTH",
"585 291 OFFCURVE",
"583 300 OFFCURVE",
"581 306 CURVE",
"584 318 OFFCURVE",
"585 328 OFFCURVE",
"585 338 CURVE",
"690 338 LINE",
"691 334 OFFCURVE",
"691 329 OFFCURVE",
"692 325 CURVE",
"693 316 OFFCURVE",
"694 307 OFFCURVE",
"693 304 CURVE",
"690 293 OFFCURVE",
"690 285 OFFCURVE",
"691 283 CURVE"
);
}
);
width = 1278;
}
);
note = uniE004;
unicode = E004;
},
{
glyphname = uniE005;
lastChange = "2017-08-02 15:03:29 +0000";
layers = (
{
layerId = "489549A1-39E0-4C35-B6CE-29571649E041";
paths = (
{
closed = 1;
nodes = (
"1175 601 LINE",
"1164 639 OFFCURVE",
"1149 675 OFFCURVE",
"1130 710 CURVE",
"1154 750 LINE",
"1155 751 OFFCURVE",
"1155 753 OFFCURVE",
"1156 755 CURVE SMOOTH",
"1172 785 OFFCURVE",
"1166 823 OFFCURVE",
"1142 847 CURVE SMOOTH",
"1044 945 LINE SMOOTH",
"1029 960 OFFCURVE",
"1008 968 OFFCURVE",
"988 968 CURVE SMOOTH",
"974 968 OFFCURVE",
"960 964 OFFCURVE",
"947 957 CURVE",
"907 933 LINE",
"872 952 OFFCURVE",
"836 967 OFFCURVE",
"798 978 CURVE",
"787 1023 LINE",
"784 1031 LINE SMOOTH",
"773 1062 OFFCURVE",
"743 1083 OFFCURVE",
"710 1083 CURVE SMOOTH",
"571 1083 LINE SMOOTH",
"535 1083 OFFCURVE",
"503 1059 OFFCURVE",
"494 1023 CURVE SMOOTH",
"483 978 LINE",
"445 967 OFFCURVE",
"409 952 OFFCURVE",
"374 933 CURVE",
"334 957 LINE",
"321 964 OFFCURVE",
"307 968 OFFCURVE",
"293 968 CURVE SMOOTH",
"272 968 OFFCURVE",
"252 960 OFFCURVE",
"237 945 CURVE SMOOTH",
"139 847 LINE SMOOTH",
"114 822 OFFCURVE",
"109 784 OFFCURVE",
"125 754 CURVE SMOOTH",
"126 752 OFFCURVE",
"126 751 OFFCURVE",
"127 750 CURVE",
"151 710 LINE",
"132 675 OFFCURVE",
"117 639 OFFCURVE",
"105 601 CURVE",
"60 589 LINE",
"25 581 OFFCURVE",
"0 549 OFFCURVE",
"0 513 CURVE SMOOTH",
"0 374 LINE SMOOTH",
"0 342 OFFCURVE",
"20 313 OFFCURVE",
"50 301 CURVE",
"54 299 OFFCURVE",
"57 298 OFFCURVE",
"61 297 CURVE SMOOTH",
"105 286 LINE",
"117 248 OFFCURVE",
"132 211 OFFCURVE",
"151 176 CURVE",
"127 136 LINE SMOOTH",
"108 105 OFFCURVE",
"113 65 OFFCURVE",
"139 40 CURVE SMOOTH",
"237 -58 LINE SMOOTH",
"252 -73 OFFCURVE",
"272 -81 OFFCURVE",
"293 -81 CURVE SMOOTH",
"302 -81 OFFCURVE",
"311 -80 OFFCURVE",
"320 -77 CURVE",
"333 -71 LINE",
"374 -46 LINE",
"409 -65 OFFCURVE",
"445 -80 OFFCURVE",
"483 -91 CURVE",
"494 -137 LINE SMOOTH",
"503 -172 OFFCURVE",
"535 -197 OFFCURVE",
"571 -197 CURVE SMOOTH",
"710 -197 LINE SMOOTH",
"744 -197 OFFCURVE",
"774 -175 OFFCURVE",
"785 -143 CURVE",
"787 -136 LINE",
"798 -91 LINE",
"836 -80 OFFCURVE",
"872 -65 OFFCURVE",
"907 -46 CURVE",
"947 -70 LINE",
"951 -72 OFFCURVE",
"956 -75 OFFCURVE",
"961 -76 CURVE",
"970 -80 OFFCURVE",
"979 -81 OFFCURVE",
"988 -81 CURVE SMOOTH",
"1009 -81 OFFCURVE",
"1029 -73 OFFCURVE",
"1044 -58 CURVE SMOOTH",
"1142 40 LINE SMOOTH",
"1168 65 OFFCURVE",
"1173 105 OFFCURVE",
"1154 136 CURVE SMOOTH",
"1130 176 LINE",
"1149 211 OFFCURVE",
"1164 248 OFFCURVE",
"1175 286 CURVE",
"1220 297 LINE SMOOTH",
"1224 298 OFFCURVE",
"1228 299 OFFCURVE",
"1232 301 CURVE",
"1261 313 OFFCURVE",
"1280 342 OFFCURVE",
"1280 374 CURVE SMOOTH",
"1280 513 LINE SMOOTH",
"1280 549 OFFCURVE",
"1256 581 OFFCURVE",
"1220 589 CURVE"
);
},
{
closed = 1;
nodes = (
"1201 513 LINE",
"1201 374 LINE",
"1143 359 LINE",
"1123 355 OFFCURVE",
"1108 339 OFFCURVE",
"1103 320 CURVE SMOOTH",
"1092 279 OFFCURVE",
"1076 240 OFFCURVE",
"1055 204 CURVE",
"1044 187 OFFCURVE",
"1045 165 OFFCURVE",
"1055 147 CURVE",
"1086 96 LINE",
"988 -2 LINE",
"936 29 LINE SMOOTH",
"927 34 OFFCURVE",
"917 37 OFFCURVE",
"907 37 CURVE SMOOTH",
"898 37 OFFCURVE",
"888 34 OFFCURVE",
"879 29 CURVE SMOOTH",
"843 8 OFFCURVE",
"804 -8 OFFCURVE",
"764 -18 CURVE",
"745 -24 OFFCURVE",
"729 -39 OFFCURVE",
"724 -59 CURVE SMOOTH",
"710 -117 LINE",
"571 -118 LINE",
"556 -59 LINE",
"552 -39 OFFCURVE",
"536 -24 OFFCURVE",
"517 -18 CURVE",
"476 -8 OFFCURVE",
"438 8 OFFCURVE",
"401 29 CURVE",
"393 34 OFFCURVE",
"383 37 OFFCURVE",
"373 37 CURVE SMOOTH",
"363 37 OFFCURVE",
"353 34 OFFCURVE",
"345 29 CURVE SMOOTH",
"293 -2 LINE",
"195 96 LINE",
"226 147 LINE",
"236 165 OFFCURVE",
"236 187 OFFCURVE",
"226 204 CURVE SMOOTH",
"205 240 OFFCURVE",
"189 279 OFFCURVE",
"178 320 CURVE SMOOTH",
"173 339 OFFCURVE",
"157 355 OFFCURVE",
"138 359 CURVE",
"80 374 LINE",
"80 513 LINE",
"138 527 LINE SMOOTH",
"157 532 OFFCURVE",
"173 547 OFFCURVE",
"178 567 CURVE SMOOTH",
"189 607 OFFCURVE",
"205 646 OFFCURVE",
"226 682 CURVE SMOOTH",
"236 700 OFFCURVE",
"236 722 OFFCURVE",
"226 739 CURVE SMOOTH",
"195 790 LINE",
"195 791 LINE",
"293 889 LINE",
"345 858 LINE SMOOTH",
"353 853 OFFCURVE",
"363 850 OFFCURVE",
"373 850 CURVE SMOOTH",
"383 850 OFFCURVE",
"393 852 OFFCURVE",
"402 857 CURVE SMOOTH",
"438 878 OFFCURVE",
"476 894 OFFCURVE",
"517 905 CURVE SMOOTH",
"536 910 OFFCURVE",
"552 926 OFFCURVE",
"556 946 CURVE",
"571 1004 LINE",
"710 1004 LINE",
"724 946 LINE SMOOTH",
"729 926 OFFCURVE",
"745 910 OFFCURVE",
"764 905 CURVE SMOOTH",
"804 894 OFFCURVE",
"843 878 OFFCURVE",
"879 857 CURVE SMOOTH",
"888 852 OFFCURVE",
"898 850 OFFCURVE",
"907 850 CURVE SMOOTH",
"917 850 OFFCURVE",
"927 853 OFFCURVE",
"936 858 CURVE SMOOTH",
"988 889 LINE",
"1086 791 LINE",
"1055 739 LINE SMOOTH",
"1045 722 OFFCURVE",
"1044 700 OFFCURVE",
"1055 682 CURVE SMOOTH",
"1076 646 OFFCURVE",
"1092 607 OFFCURVE",
"1103 567 CURVE SMOOTH",
"1108 547 OFFCURVE",
"1123 532 OFFCURVE",
"1143 527 CURVE SMOOTH"
);
},
{
closed = 1;
nodes = (
"958 629 OFFCURVE",
"958 645 OFFCURVE",
"949 658 CURVE SMOOTH",
"879 759 OFFCURVE",
"763 819 OFFCURVE",
"640 819 CURVE SMOOTH",
"518 819 OFFCURVE",
"402 759 OFFCURVE",
"332 658 CURVE SMOOTH",
"323 645 OFFCURVE",
"323 629 OFFCURVE",
"330 616 CURVE",
"315 615 OFFCURVE",
"301 606 OFFCURVE",
"295 592 CURVE SMOOTH",
"275 545 OFFCURVE",
"264 495 OFFCURVE",
"264 443 CURVE SMOOTH",
"264 249 OFFCURVE",
"410 88 OFFCURVE",
"603 69 CURVE",
"607 69 LINE SMOOTH",
"620 69 OFFCURVE",
"632 75 OFFCURVE",
"639 85 CURVE",
"641 85 LINE",
"642 85 LINE",
"649 75 OFFCURVE",
"661 69 OFFCURVE",
"674 69 CURVE SMOOTH",
"678 69 LINE",
"871 88 OFFCURVE",
"1016 249 OFFCURVE",
"1016 443 CURVE SMOOTH",
"1016 495 OFFCURVE",
"1006 545 OFFCURVE",
"986 592 CURVE SMOOTH",
"980 606 OFFCURVE",
"966 615 OFFCURVE",
"951 616 CURVE"
);
},
{
closed = 1;
nodes = (
"735 740 OFFCURVE",
"825 694 OFFCURVE",
"880 618 CURVE",
"876 618 OFFCURVE",
"871 616 OFFCURVE",
"867 614 CURVE SMOOTH",
"726 539 LINE",
"703 559 OFFCURVE",
"673 572 OFFCURVE",
"640 572 CURVE SMOOTH",
"608 572 OFFCURVE",
"578 560 OFFCURVE",
"556 540 CURVE",
"407 620 LINE",
"406 621 OFFCURVE",
"405 621 OFFCURVE",
"403 622 CURVE",
"459 696 OFFCURVE",
"547 740 OFFCURVE",
"640 740 CURVE SMOOTH"
);
},
{
closed = 1;
nodes = (
"680 320 LINE",
"731 337 OFFCURVE",
"769 386 OFFCURVE",
"769 443 CURVE SMOOTH",
"769 452 OFFCURVE",
"768 462 OFFCURVE",
"766 471 CURVE",
"904 544 LINE",
"909 546 OFFCURVE",
"913 550 OFFCURVE",
"916 554 CURVE",
"930 518 OFFCURVE",
"937 481 OFFCURVE",
"937 443 CURVE SMOOTH",
"937 293 OFFCURVE",
"827 169 OFFCURVE",
"680 149 CURVE"
);
},
{
closed = 1;
nodes = (
"343 481 OFFCURVE",
"351 518 OFFCURVE",
"365 553 CURVE",
"366 552 OFFCURVE",
"368 551 OFFCURVE",
"370 550 CURVE SMOOTH",
"515 472 LINE",
"513 463 OFFCURVE",
"512 453 OFFCURVE",
"512 443 CURVE SMOOTH",
"512 386 OFFCURVE",
"549 337 OFFCURVE",
"600 320 CURVE",
"600 315 LINE",
"601 149 LINE",
"453 169 OFFCURVE",
"343 293 OFFCURVE",
"343 443 CURVE SMOOTH"
);
},
{
closed = 1;
nodes = (
"613 394 OFFCURVE",
"591 416 OFFCURVE",
"591 443 CURVE SMOOTH",
"591 470 OFFCURVE",
"613 493 OFFCURVE",
"640 493 CURVE SMOOTH",
"658 493 OFFCURVE",
"673 484 OFFCURVE",
"682 470 CURVE SMOOTH",
"684 467 LINE",
"688 460 OFFCURVE",
"690 452 OFFCURVE",
"690 443 CURVE SMOOTH",
"690 416 OFFCURVE",
"668 394 OFFCURVE",
"640 394 CURVE SMOOTH"
);
}
);
width = 1280;
}
);
note = uniE005;
unicode = E005;
},
{
glyphname = uniE006;
lastChange = "2017-08-02 15:03:29 +0000";
layers = (
{
layerId = "489549A1-39E0-4C35-B6CE-29571649E041";
paths = (
{
closed = 1;
nodes = (
"1229 1056 LINE SMOOTH",
"1229 1078 OFFCURVE",
"1210 1097 OFFCURVE",
"1189 1097 CURVE SMOOTH",
"1076 1097 LINE",
"1076 1143 LINE SMOOTH",
"1076 1166 OFFCURVE",
"1057 1183 OFFCURVE",
"1034 1183 CURVE SMOOTH",
"879 1183 LINE SMOOTH",
"856 1183 OFFCURVE",
"839 1166 OFFCURVE",
"839 1143 CURVE SMOOTH",
"839 1097 LINE",
"427 1097 LINE",
"427 1143 LINE SMOOTH",
"427 1166 OFFCURVE",
"409 1183 OFFCURVE",
"385 1183 CURVE SMOOTH",
"230 1183 LINE SMOOTH",
"207 1183 OFFCURVE",
"190 1166 OFFCURVE",
"190 1143 CURVE SMOOTH",
"190 1097 LINE",
"91 1097 LINE SMOOTH",
"70 1097 OFFCURVE",
"51 1078 OFFCURVE",
"51 1056 CURVE SMOOTH",
"52 581 LINE SMOOTH",
"52 396 OFFCURVE",
"52 216 OFFCURVE",
"51 23 CURVE SMOOTH",
"50 -50 OFFCURVE",
"116 -77 OFFCURVE",
"155 -82 CURVE",
"1131 -81 LINE",
"1164 -77 OFFCURVE",
"1230 -50 OFFCURVE",
"1230 23 CURVE",
"1229 216 OFFCURVE",
"1229 396 OFFCURVE",
"1229 581 CURVE SMOOTH"
);
},
{
closed = 1;
nodes = (
"270 1015 LINE",
"270 1104 LINE",
"346 1104 LINE",
"346 1015 LINE"
);
},
{
closed = 1;
nodes = (
"919 1015 LINE",
"919 1104 LINE",
"994 1104 LINE",
"994 1015 LINE"
);
},
{
closed = 1;
nodes = (
"132 1015 LINE",
"190 1015 LINE",
"190 974 LINE SMOOTH",
"190 952 OFFCURVE",
"207 934 OFFCURVE",
"230 934 CURVE SMOOTH",
"385 934 LINE SMOOTH",
"409 934 OFFCURVE",
"427 952 OFFCURVE",
"427 974 CURVE SMOOTH",
"427 1015 LINE",
"839 1015 LINE",
"839 974 LINE SMOOTH",
"839 952 OFFCURVE",
"856 934 OFFCURVE",
"879 934 CURVE SMOOTH",
"1034 934 LINE SMOOTH",
"1057 934 OFFCURVE",
"1076 952 OFFCURVE",
"1076 974 CURVE SMOOTH",
"1076 1015 LINE",
"1148 1015 LINE",
"1148 886 LINE",
"132 886 LINE"
);
},
{
closed = 1;
nodes = (
"159 -2 LINE",
"150 0 OFFCURVE",
"132 6 OFFCURVE",
"132 23 CURVE SMOOTH",
"132 807 LINE",
"1148 807 LINE",
"1148 581 LINE SMOOTH",
"1148 396 OFFCURVE",
"1148 216 OFFCURVE",
"1149 23 CURVE SMOOTH",
"1149 6 OFFCURVE",
"1130 0 OFFCURVE",
"1122 -2 CURVE"
);
},
{
closed = 1;
nodes = (
"921 737 OFFCURVE",
"910 735 OFFCURVE",
"901 735 CURVE SMOOTH",
"822 735 LINE",
"738 735 LINE",
"357 735 LINE SMOOTH",
"335 735 OFFCURVE",
"316 717 OFFCURVE",
"316 695 CURVE SMOOTH",
"316 132 LINE SMOOTH",
"316 110 OFFCURVE",
"335 92 OFFCURVE",
"357 92 CURVE SMOOTH",
"924 92 LINE SMOOTH",
"946 92 OFFCURVE",
"964 110 OFFCURVE",
"964 132 CURVE SMOOTH",
"964 695 LINE SMOOTH",
"964 713 OFFCURVE",
"952 729 OFFCURVE",
"933 734 CURVE SMOOTH"
);
},
{
closed = 1;
nodes = (
"829 654 OFFCURVE",
"840 653 OFFCURVE",
"884 654 CURVE",
"884 550 LINE",
"775 550 LINE",
"775 654 LINE",
"802 655 OFFCURVE",
"811 654 OFFCURVE",
"819 654 CURVE SMOOTH"
);
},
{
closed = 1;
nodes = (
"397 654 LINE",
"503 654 LINE",
"503 550 LINE",
"397 550 LINE"
);
},
{
closed = 1;
nodes = (
"584 654 LINE",
"693 654 LINE",
"693 550 LINE",
"584 550 LINE"
);
},
{
closed = 1;
nodes = (
"397 359 LINE",
"397 469 LINE",
"503 469 LINE",
"503 359 LINE"
);
},
{
closed = 1;
nodes = (
"693 359 LINE",
"584 359 LINE",
"584 469 LINE",
"693 469 LINE"
);
},
{
closed = 1;
nodes = (
"775 359 LINE",
"775 469 LINE",
"884 469 LINE",
"884 359 LINE"
);
},
{
closed = 1;
nodes = (
"397 173 LINE",
"397 279 LINE",
"503 279 LINE",
"503 173 LINE"
);
},
{
closed = 1;
nodes = (
"584 279 LINE",
"693 279 LINE",
"693 173 LINE",
"584 173 LINE"
);
},
{
closed = 1;
nodes = (
"884 173 LINE",
"775 173 LINE",
"775 279 LINE",
"884 279 LINE"
);
}
);
width = 1279;
}
);
note = uniE006;
unicode = E006;
},
{
glyphname = uniE007;
lastChange = "2017-08-02 15:03:29 +0000";
layers = (
{
layerId = "489549A1-39E0-4C35-B6CE-29571649E041";
paths = (
{
closed = 1;
nodes = (
"1034 -101 LINE",
"270 -101 LINE SMOOTH",
"115 -101 OFFCURVE",
"35 88 OFFCURVE",
"32 96 CURVE",
"1 151 OFFCURVE",
"-4 199 OFFCURVE",
"18 236 CURVE SMOOTH",
"42 275 OFFCURVE",
"92 293 OFFCURVE",
"167 291 CURVE SMOOTH",
"211 291 LINE",
"211 894 LINE",
"209 957 OFFCURVE",
"211 1013 OFFCURVE",
"248 1051 CURVE SMOOTH",
"283 1087 OFFCURVE",
"339 1093 OFFCURVE",
"411 1092 CURVE SMOOTH",
"1100 1092 LINE SMOOTH",
"1158 1093 OFFCURVE",
"1201 1080 OFFCURVE",
"1231 1050 CURVE SMOOTH",
"1262 1021 OFFCURVE",
"1276 978 OFFCURVE",
"1276 916 CURVE SMOOTH",
"1275 160 LINE SMOOTH",
"1275 59 OFFCURVE",
"1267 -7 OFFCURVE",
"1224 -50 CURVE"
);
},
{
closed = 1;
nodes = (
"156 211 LINE SMOOTH",
"109 211 OFFCURVE",
"91 201 OFFCURVE",
"87 194 CURVE SMOOTH",
"83 187 OFFCURVE",
"85 166 OFFCURVE",
"105 131 CURVE",
"107 125 OFFCURVE",
"169 -20 OFFCURVE",
"270 -20 CURVE SMOOTH",
"1033 -20 LINE SMOOTH",
"1109 -20 OFFCURVE",
"1148 -12 OFFCURVE",
"1167 7 CURVE SMOOTH",
"1187 27 OFFCURVE",
"1195 70 OFFCURVE",
"1194 160 CURVE",
"1195 916 LINE SMOOTH",
"1195 954 OFFCURVE",
"1188 979 OFFCURVE",
"1175 993 CURVE",
"1161 1006 OFFCURVE",
"1137 1012 OFFCURVE",
"1101 1011 CURVE SMOOTH",
"411 1012 LINE SMOOTH",
"352 1012 OFFCURVE",
"318 1007 OFFCURVE",
"305 994 CURVE SMOOTH",
"292 981 OFFCURVE",
"290 945 OFFCURVE",
"292 895 CURVE",
"292 291 LINE",
"677 291 LINE SMOOTH",
"849 294 OFFCURVE",
"893 253 OFFCURVE",
"917 178 CURVE SMOOTH",
"925 151 OFFCURVE",
"930 135 OFFCURVE",
"988 125 CURVE SMOOTH",
"1010 121 OFFCURVE",
"1025 100 OFFCURVE",
"1021 78 CURVE SMOOTH",
"1017 56 OFFCURVE",
"996 42 OFFCURVE",
"974 46 CURVE SMOOTH",
"876 63 OFFCURVE",
"854 109 OFFCURVE",
"840 154 CURVE SMOOTH",
"830 185 OFFCURVE",
"822 212 OFFCURVE",
"677 211 CURVE SMOOTH"
);
},
{
closed = 1;
nodes = (
"524 644 OFFCURVE",
"513 648 OFFCURVE",
"505 656 CURVE SMOOTH",
"415 746 LINE SMOOTH",
"400 762 OFFCURVE",
"400 787 OFFCURVE",
"415 803 CURVE SMOOTH",
"431 819 OFFCURVE",
"457 819 OFFCURVE",
"472 803 CURVE SMOOTH",
"534 741 LINE",
"668 872 LINE SMOOTH",
"684 887 OFFCURVE",
"709 887 OFFCURVE",
"725 871 CURVE SMOOTH",
"740 855 OFFCURVE",
"740 830 OFFCURVE",
"724 814 CURVE SMOOTH",
"562 655 LINE",
"554 648 OFFCURVE",
"544 644 OFFCURVE",
"534 644 CURVE SMOOTH"
);
},
{
closed = 1;
nodes = (
"835 721 LINE SMOOTH",
"813 721 OFFCURVE",
"795 740 OFFCURVE",
"795 762 CURVE SMOOTH",
"795 784 OFFCURVE",
"813 802 OFFCURVE",
"835 802 CURVE SMOOTH",
"1075 802 LINE SMOOTH",
"1097 802 OFFCURVE",
"1115 784 OFFCURVE",
"1115 762 CURVE SMOOTH",
"1115 740 OFFCURVE",
"1097 721 OFFCURVE",
"1075 721 CURVE SMOOTH"
);
},
{
closed = 1;
nodes = (
"506 383 OFFCURVE",
"496 387 OFFCURVE",
"488 395 CURVE SMOOTH",
"398 485 LINE SMOOTH",
"383 501 OFFCURVE",
"383 526 OFFCURVE",
"398 542 CURVE SMOOTH",
"414 558 OFFCURVE",
"440 558 OFFCURVE",
"455 542 CURVE SMOOTH",
"517 480 LINE",
"651 611 LINE SMOOTH",
"667 626 OFFCURVE",
"692 626 OFFCURVE",
"708 610 CURVE SMOOTH",
"723 594 OFFCURVE",
"723 569 OFFCURVE",
"707 553 CURVE SMOOTH",
"545 395 LINE SMOOTH",
"537 387 OFFCURVE",
"527 383 OFFCURVE",
"517 383 CURVE SMOOTH"
);
},
{
closed = 1;
nodes = (
"835 436 LINE SMOOTH",
"813 436 OFFCURVE",
"795 454 OFFCURVE",
"795 476 CURVE SMOOTH",
"795 498 OFFCURVE",
"813 517 OFFCURVE",
"835 517 CURVE SMOOTH",
"1075 517 LINE SMOOTH",
"1097 517 OFFCURVE",
"1115 498 OFFCURVE",
"1115 476 CURVE SMOOTH",
"1115 454 OFFCURVE",
"1097 436 OFFCURVE",
"1075 436 CURVE SMOOTH"
);
}
);
width = 1280;
}
);
note = uniE007;
unicode = E007;
},
{
glyphname = uniE008;
lastChange = "2017-08-02 15:03:29 +0000";
layers = (
{
layerId = "489549A1-39E0-4C35-B6CE-29571649E041";
paths = (
{
closed = 1;
nodes = (
"198 268 OFFCURVE",
"215 285 OFFCURVE",
"215 305 CURVE SMOOTH",
"215 1049 LINE",
"298 1049 LINE",
"299 1045 OFFCURVE",
"299 1040 OFFCURVE",
"299 1036 CURVE SMOOTH",
"299 301 LINE SMOOTH",
"299 281 OFFCURVE",
"316 265 OFFCURVE",
"336 265 CURVE SMOOTH",
"357 265 OFFCURVE",
"374 281 OFFCURVE",
"374 301 CURVE SMOOTH",
"374 1036 LINE SMOOTH",
"374 1040 OFFCURVE",
"374 1045 OFFCURVE",
"373 1049 CURVE",
"1078 1049 LINE",
"1084 1049 LINE",
"1084 895 LINE SMOOTH",
"1084 874 OFFCURVE",
"1101 858 OFFCURVE",
"1122 858 CURVE SMOOTH",
"1142 858 OFFCURVE",
"1159 874 OFFCURVE",
"1159 895 CURVE SMOOTH",
"1159 1043 LINE SMOOTH",
"1159 1101 OFFCURVE",
"1135 1124 OFFCURVE",
"1078 1124 CURVE SMOOTH",
"177 1124 LINE",
"139 1087 LINE",
"139 305 LINE SMOOTH",
"139 285 OFFCURVE",
"156 268 OFFCURVE",
"177 268 CURVE SMOOTH"
);
},
{
closed = 1;
nodes = (
"928 813 OFFCURVE",
"947 828 OFFCURVE",
"949 849 CURVE",
"950 874 OFFCURVE",
"945 894 OFFCURVE",
"931 908 CURVE",
"911 930 OFFCURVE",
"880 930 OFFCURVE",
"870 930 CURVE SMOOTH",
"519 930 LINE SMOOTH",
"511 930 OFFCURVE",
"488 930 OFFCURVE",
"471 913 CURVE SMOOTH",
"463 905 OFFCURVE",
"454 891 OFFCURVE",
"454 868 CURVE SMOOTH",
"454 604 LINE",
"455 590 OFFCURVE",
"459 570 OFFCURVE",
"474 555 CURVE",
"485 546 OFFCURVE",
"499 539 OFFCURVE",
"514 539 CURVE SMOOTH",
"621 540 LINE SMOOTH",
"641 540 OFFCURVE",
"658 558 OFFCURVE",
"658 578 CURVE SMOOTH",
"658 599 OFFCURVE",
"641 616 OFFCURVE",
"620 616 CURVE SMOOTH",
"530 615 LINE",
"530 758 LINE",
"529 855 LINE",
"552 854 OFFCURVE",
"573 855 OFFCURVE",
"596 855 CURVE SMOOTH",
"631 855 LINE",
"700 854 LINE SMOOTH",
"757 854 OFFCURVE",
"814 854 OFFCURVE",
"871 855 CURVE SMOOTH",
"874 855 LINE",
"874 854 LINE",
"872 834 OFFCURVE",
"888 815 OFFCURVE",
"908 814 CURVE SMOOTH"
);
},
{
closed = 1;
nodes = (
"1173 755 OFFCURVE",
"1149 756 OFFCURVE",
"1124 756 CURVE SMOOTH",
"1081 755 OFFCURVE",
"1038 755 OFFCURVE",
"994 755 CURVE SMOOTH",
"939 755 LINE",
"937 755 LINE",
"932 755 LINE SMOOTH",
"828 755 OFFCURVE",
"778 673 OFFCURVE",
"749 612 CURVE SMOOTH",
"721 552 OFFCURVE",
"694 491 OFFCURVE",
"666 431 CURVE SMOOTH",
"640 374 LINE SMOOTH",
"610 308 OFFCURVE",
"573 259 OFFCURVE",
"526 222 CURVE SMOOTH",
"490 194 OFFCURVE",
"446 180 OFFCURVE",
"393 179 CURVE SMOOTH",
"164 179 LINE SMOOTH",
"106 179 OFFCURVE",
"86 159 OFFCURVE",
"86 101 CURVE SMOOTH",
"86 -85 LINE SMOOTH",
"86 -97 OFFCURVE",
"89 -123 OFFCURVE",
"89 -123 CURVE",
"126 -156 LINE",
"1142 -156 LINE SMOOTH",
"1186 -156 OFFCURVE",
"1210 -116 OFFCURVE",
"1210 -78 CURVE SMOOTH",
"1210 670 LINE SMOOTH",
"1210 695 OFFCURVE",
"1209 720 OFFCURVE",
"1191 737 CURVE SMOOTH"
);
},
{
closed = 1;
nodes = (
"1135 680 LINE",
"1135 -78 LINE SMOOTH",
"1135 -79 OFFCURVE",
"1135 -80 OFFCURVE",
"1134 -82 CURVE",
"161 -82 LINE",
"161 101 LINE",
"161 105 LINE",
"393 105 LINE SMOOTH",
"463 105 OFFCURVE",
"523 125 OFFCURVE",
"573 163 CURVE SMOOTH",
"629 207 OFFCURVE",
"674 266 OFFCURVE",
"709 344 CURVE SMOOTH",
"734 400 LINE SMOOTH",
"761 460 OFFCURVE",
"789 520 OFFCURVE",
"817 580 CURVE SMOOTH",
"850 651 OFFCURVE",
"884 680 OFFCURVE",
"932 680 CURVE SMOOTH",
"935 680 LINE",
"994 680 LINE SMOOTH",
"1038 680 OFFCURVE",
"1081 679 OFFCURVE",
"1125 680 CURVE SMOOTH"
);
}
);
width = 1280;
}
);
note = uniE008;
unicode = E008;
},
{
glyphname = uniE009;
lastChange = "2017-08-02 15:03:29 +0000";
layers = (
{
layerId = "489549A1-39E0-4C35-B6CE-29571649E041";
paths = (
{
closed = 1;
nodes = (
"596 668 OFFCURVE",
"597 667 OFFCURVE",
"599 667 CURVE",
"599 497 LINE SMOOTH",
"599 474 OFFCURVE",
"617 456 OFFCURVE",
"639 456 CURVE SMOOTH",
"661 456 OFFCURVE",
"679 474 OFFCURVE",
"679 497 CURVE SMOOTH",
"679 667 LINE",
"694 670 OFFCURVE",
"710 675 OFFCURVE",
"726 681 CURVE SMOOTH",
"798 710 OFFCURVE",
"846 767 OFFCURVE",
"865 847 CURVE SMOOTH",
"868 858 OFFCURVE",
"868 870 OFFCURVE",
"869 879 CURVE",
"869 892 LINE SMOOTH",
"873 1008 OFFCURVE",
"782 1098 OFFCURVE",
"691 1118 CURVE SMOOTH",
"573 1144 OFFCURVE",
"460 1081 OFFCURVE",
"421 968 CURVE SMOOTH",
"399 905 OFFCURVE",
"406 837 OFFCURVE",
"439 779 CURVE SMOOTH",
"472 721 OFFCURVE",
"529 680 OFFCURVE",
"594 668 CURVE"
);
},
{
closed = 1;
nodes = (
"519 1004 OFFCURVE",
"576 1043 OFFCURVE",
"639 1043 CURVE SMOOTH",
"651 1043 OFFCURVE",
"662 1042 OFFCURVE",
"674 1039 CURVE",
"731 1027 OFFCURVE",
"791 968 OFFCURVE",
"788 894 CURVE",
"788 892 LINE",
"788 881 LINE SMOOTH",
"788 875 OFFCURVE",
"788 869 OFFCURVE",
"787 866 CURVE",
"773 811 OFFCURVE",
"744 775 OFFCURVE",
"696 756 CURVE SMOOTH",
"683 751 OFFCURVE",
"669 748 OFFCURVE",
"653 744 CURVE",
"648 743 OFFCURVE",
"643 742 OFFCURVE",
"638 740 CURVE",
"634 741 LINE",
"609 747 LINE",
"567 755 OFFCURVE",
"531 782 OFFCURVE",
"509 819 CURVE SMOOTH",
"487 857 OFFCURVE",
"483 901 OFFCURVE",
"497 942 CURVE SMOOTH"
);
},
{
closed = 1;
nodes = (
"1272 118 OFFCURVE",
"1258 156 OFFCURVE",
"1232 186 CURVE SMOOTH",
"1205 216 OFFCURVE",
"1173 237 OFFCURVE",
"1131 247 CURVE",
"1131 346 LINE SMOOTH",
"1132 381 OFFCURVE",
"1118 403 OFFCURVE",
"1106 415 CURVE SMOOTH",
"1089 433 OFFCURVE",
"1064 444 OFFCURVE",
"1036 442 CURVE",
"827 442 LINE SMOOTH",
"774 441 OFFCURVE",
"721 442 OFFCURVE",
"668 441 CURVE SMOOTH",
"658 441 OFFCURVE",
"649 439 OFFCURVE",
"642 438 CURVE",
"640 437 OFFCURVE",
"638 436 OFFCURVE",
"637 436 CURVE SMOOTH",
"636 436 OFFCURVE",
"634 437 OFFCURVE",
"632 437 CURVE",
"625 439 OFFCURVE",
"617 441 OFFCURVE",
"607 441 CURVE SMOOTH",
"484 442 OFFCURVE",
"361 441 OFFCURVE",
"238 442 CURVE SMOOTH",
"213 442 OFFCURVE",
"189 432 OFFCURVE",
"172 415 CURVE SMOOTH",
"155 398 OFFCURVE",
"146 375 OFFCURVE",
"147 350 CURVE",
"147 247 LINE",
"95 235 OFFCURVE",
"51 202 OFFCURVE",
"26 157 CURVE SMOOTH",
"1 112 OFFCURVE",
"-3 59 OFFCURVE",
"15 8 CURVE SMOOTH",
"41 -68 OFFCURVE",
"108 -114 OFFCURVE",
"184 -114 CURVE SMOOTH",
"196 -114 OFFCURVE",
"207 -113 OFFCURVE",
"218 -111 CURVE SMOOTH",
"318 -94 OFFCURVE",
"383 -4 OFFCURVE",
"368 97 CURVE SMOOTH",
"359 162 OFFCURVE",
"319 212 OFFCURVE",
"256 238 CURVE",
"228 247 LINE",
"228 351 LINE",
"227 354 OFFCURVE",
"228 357 OFFCURVE",
"230 358 CURVE",
"231 360 OFFCURVE",
"234 361 OFFCURVE",
"238 361 CURVE SMOOTH",
"599 361 LINE",
"599 248 LINE",
"590 245 OFFCURVE",
"580 242 OFFCURVE",
"571 238 CURVE",
"508 213 OFFCURVE",
"469 163 OFFCURVE",
"458 98 CURVE SMOOTH",
"443 3 OFFCURVE",
"501 -84 OFFCURVE",
"595 -109 CURVE SMOOTH",
"610 -113 OFFCURVE",
"625 -115 OFFCURVE",
"640 -115 CURVE SMOOTH",
"673 -115 OFFCURVE",
"705 -105 OFFCURVE",
"736 -86 CURVE SMOOTH",
"782 -58 OFFCURVE",
"811 -15 OFFCURVE",
"820 38 CURVE SMOOTH",
"836 137 OFFCURVE",
"775 226 OFFCURVE",
"679 247 CURVE",
"679 361 LINE",
"827 361 LINE",
"1037 361 LINE SMOOTH",
"1042 361 OFFCURVE",
"1047 360 OFFCURVE",
"1048 358 CURVE",
"1050 357 OFFCURVE",
"1051 353 OFFCURVE",
"1051 348 CURVE SMOOTH",
"1050 318 OFFCURVE",
"1050 287 OFFCURVE",
"1050 257 CURVE SMOOTH",
"1050 247 LINE",
"1022 238 LINE",
"959 212 OFFCURVE",
"919 161 OFFCURVE",
"910 97 CURVE SMOOTH",
"895 -4 OFFCURVE",
"960 -93 OFFCURVE",
"1060 -111 CURVE SMOOTH",
"1071 -113 OFFCURVE",
"1082 -114 OFFCURVE",
"1093 -114 CURVE SMOOTH",
"1169 -114 OFFCURVE",
"1237 -67 OFFCURVE",
"1264 8 CURVE SMOOTH",
"1271 28 OFFCURVE",
"1277 49 OFFCURVE",
"1275 71 CURVE SMOOTH"
);
},
{
closed = 1;
nodes = (
"735 21 OFFCURVE",
"720 -1 OFFCURVE",
"694 -17 CURVE SMOOTH",
"668 -33 OFFCURVE",
"642 -38 OFFCURVE",
"615 -31 CURVE SMOOTH",
"561 -17 OFFCURVE",
"530 31 OFFCURVE",
"538 86 CURVE SMOOTH",
"544 123 OFFCURVE",
"565 148 OFFCURVE",
"601 163 CURVE SMOOTH",
"611 167 OFFCURVE",
"621 170 OFFCURVE",
"632 173 CURVE",
"638 175 LINE",
"645 172 OFFCURVE",
"652 170 OFFCURVE",
"659 169 CURVE",
"715 157 OFFCURVE",
"749 107 OFFCURVE",
"740 50 CURVE SMOOTH"
);
},
{
closed = 1;
nodes = (
"1170 -13 OFFCURVE",
"1123 -41 OFFCURVE",
"1074 -32 CURVE SMOOTH",
"1017 -22 OFFCURVE",
"982 28 OFFCURVE",
"990 85 CURVE SMOOTH",
"995 122 OFFCURVE",
"1016 148 OFFCURVE",
"1053 163 CURVE SMOOTH",
"1063 167 OFFCURVE",
"1073 170 OFFCURVE",
"1084 173 CURVE",
"1090 175 LINE",
"1094 173 OFFCURVE",
"1099 172 OFFCURVE",
"1103 171 CURVE",
"1132 165 OFFCURVE",
"1154 153 OFFCURVE",
"1170 134 CURVE SMOOTH",
"1185 117 OFFCURVE",
"1192 95 OFFCURVE",
"1195 65 CURVE",
"1195 57 OFFCURVE",
"1190 42 OFFCURVE",
"1188 36 CURVE SMOOTH"
);
},
{
closed = 1;
nodes = (
"297 27 OFFCURVE",
"262 -22 OFFCURVE",
"204 -32 CURVE SMOOTH",
"153 -41 OFFCURVE",
"108 -14 OFFCURVE",
"91 34 CURVE SMOOTH",
"81 63 OFFCURVE",
"83 93 OFFCURVE",
"97 118 CURVE SMOOTH",
"111 144 OFFCURVE",
"136 162 OFFCURVE",
"166 169 CURVE",
"173 170 OFFCURVE",
"181 173 OFFCURVE",
"194 173 CURVE",
"205 170 OFFCURVE",
"215 167 OFFCURVE",
"225 163 CURVE SMOOTH",
"262 148 OFFCURVE",
"283 122 OFFCURVE",
"288 85 CURVE SMOOTH"
);
}
);
width = 1280;
}
);
note = uniE009;
unicode = E009;
},
{
glyphname = uniE00A;
lastChange = "2017-08-02 15:03:29 +0000";
layers = (
{
layerId = "489549A1-39E0-4C35-B6CE-29571649E041";
paths = (
{
closed = 1;
nodes = (
"1148 719 OFFCURVE",
"1086 684 OFFCURVE",
"1063 647 CURVE SMOOTH",
"1035 602 OFFCURVE",
"1050 561 OFFCURVE",
"1062 532 CURVE",
"869 413 LINE",
"865 417 OFFCURVE",
"863 420 OFFCURVE",
"861 423 CURVE",
"796 560 LINE SMOOTH",
"768 619 OFFCURVE",
"740 679 OFFCURVE",
"710 741 CURVE",
"714 744 LINE",
"721 751 LINE SMOOTH",
"755 785 OFFCURVE",
"769 827 OFFCURVE",
"760 866 CURVE SMOOTH",
"750 904 OFFCURVE",
"721 934 OFFCURVE",
"678 948 CURVE SMOOTH",
"631 964 OFFCURVE",
"581 948 OFFCURVE",
"552 910 CURVE SMOOTH",
"518 864 OFFCURVE",
"517 809 OFFCURVE",
"549 769 CURVE",
"558 759 OFFCURVE",
"568 749 OFFCURVE",
"577 740 CURVE",
"576 737 OFFCURVE",
"574 734 OFFCURVE",
"573 731 CURVE",
"538 655 OFFCURVE",
"501 580 OFFCURVE",
"464 505 CURVE SMOOTH",
"434 446 LINE",
"429 435 OFFCURVE",
"424 425 OFFCURVE",
"417 413 CURVE",
"228 535 LINE",
"241 565 OFFCURVE",
"249 598 OFFCURVE",
"230 636 CURVE SMOOTH",
"208 682 OFFCURVE",
"151 721 OFFCURVE",
"102 706 CURVE SMOOTH",
"37 687 OFFCURVE",
"2 641 OFFCURVE",
"5 581 CURVE SMOOTH",
"8 534 OFFCURVE",
"45 489 OFFCURVE",
"94 474 CURVE SMOOTH",
"111 469 LINE",
"121 419 LINE SMOOTH",
"130 372 OFFCURVE",
"139 325 OFFCURVE",
"149 278 CURVE SMOOTH",
"170 185 LINE SMOOTH",
"177 156 OFFCURVE",
"183 127 OFFCURVE",
"189 99 CURVE SMOOTH",
"203 35 OFFCURVE",
"224 18 OFFCURVE",
"288 18 CURVE SMOOTH",
"456 18 LINE SMOOTH",
"638 18 OFFCURVE",
"820 18 OFFCURVE",
"1003 17 CURVE SMOOTH",
"1004 17 LINE SMOOTH",
"1053 17 OFFCURVE",
"1081 40 OFFCURVE",
"1091 87 CURVE SMOOTH",
"1108 164 OFFCURVE",
"1126 241 OFFCURVE",
"1144 318 CURVE SMOOTH",
"1171 436 LINE",
"1174 447 OFFCURVE",
"1176 458 OFFCURVE",
"1177 470 CURVE",
"1192 474 LINE SMOOTH",
"1243 487 OFFCURVE",
"1282 537 OFFCURVE",
"1282 590 CURVE SMOOTH",
"1282 645 OFFCURVE",
"1246 691 OFFCURVE",
"1189 707 CURVE SMOOTH"
);
},
{
closed = 1;
nodes = (
"618 875 OFFCURVE",
"629 880 OFFCURVE",
"641 880 CURVE SMOOTH",
"645 880 OFFCURVE",
"650 879 OFFCURVE",
"654 878 CURVE",
"672 872 OFFCURVE",
"684 861 OFFCURVE",
"687 849 CURVE SMOOTH",
"690 835 OFFCURVE",
"684 819 OFFCURVE",
"669 804 CURVE",
"663 799 LINE",
"660 796 OFFCURVE",
"657 793 OFFCURVE",
"653 788 CURVE",
"646 789 OFFCURVE",
"640 789 OFFCURVE",
"634 788 CURVE",
"624 797 OFFCURVE",
"615 806 OFFCURVE",
"607 816 CURVE SMOOTH",
"591 835 OFFCURVE",
"606 858 OFFCURVE",
"611 865 CURVE SMOOTH"
);
},
{
closed = 1;
nodes = (
"1099 452 LINE",
"1071 334 LINE SMOOTH",
"1054 257 OFFCURVE",
"1036 180 OFFCURVE",
"1019 103 CURVE",
"1016 93 LINE",
"1015 92 OFFCURVE",
"1012 93 OFFCURVE",
"1003 92 CURVE",
"821 93 OFFCURVE",
"638 93 OFFCURVE",
"455 92 CURVE SMOOTH",
"288 92 LINE SMOOTH",
"277 92 OFFCURVE",
"271 93 OFFCURVE",
"267 93 CURVE",
"266 97 OFFCURVE",
"264 103 OFFCURVE",
"262 114 CURVE SMOOTH",
"256 143 OFFCURVE",
"249 172 OFFCURVE",
"243 201 CURVE SMOOTH",
"222 294 LINE SMOOTH",
"212 340 OFFCURVE",
"203 387 OFFCURVE",
"194 434 CURVE SMOOTH",
"186 472 LINE",
"411 329 LINE SMOOTH",
"417 325 OFFCURVE",
"424 323 OFFCURVE",
"431 323 CURVE SMOOTH",
"434 323 OFFCURVE",
"437 324 OFFCURVE",
"440 324 CURVE",
"450 327 OFFCURVE",
"458 334 OFFCURVE",
"463 343 CURVE SMOOTH",
"478 369 LINE",
"486 385 OFFCURVE",
"494 399 OFFCURVE",
"501 413 CURVE SMOOTH",
"530 472 LINE SMOOTH",
"568 548 OFFCURVE",
"605 623 OFFCURVE",
"640 700 CURVE",
"641 703 OFFCURVE",
"643 705 OFFCURVE",
"644 707 CURVE",
"673 648 OFFCURVE",
"701 588 OFFCURVE",
"729 528 CURVE SMOOTH",
"794 391 LINE SMOOTH",
"801 377 OFFCURVE",
"811 365 OFFCURVE",
"821 355 CURVE",
"824 350 OFFCURVE",
"828 346 OFFCURVE",
"832 341 CURVE",
"840 332 OFFCURVE",
"850 327 OFFCURVE",
"861 327 CURVE SMOOTH",
"868 327 OFFCURVE",
"875 329 OFFCURVE",
"881 333 CURVE SMOOTH",
"1102 470 LINE"
);
},
{
closed = 1;
nodes = (
"79 602 OFFCURVE",
"83 623 OFFCURVE",
"123 635 CURVE",
"124 635 LINE SMOOTH",
"132 635 OFFCURVE",
"154 623 OFFCURVE",
"163 603 CURVE",
"171 588 OFFCURVE",
"166 575 OFFCURVE",
"147 538 CURVE",
"145 538 LINE",
"135 540 OFFCURVE",
"125 543 OFFCURVE",
"115 546 CURVE",
"95 551 OFFCURVE",
"80 571 OFFCURVE",
"80 585 CURVE"
);
},
{
closed = 1;
nodes = (
"1141 538 LINE",
"1138 544 OFFCURVE",
"1135 550 OFFCURVE",
"1133 556 CURVE",
"1120 585 OFFCURVE",
"1118 594 OFFCURVE",
"1126 607 CURVE SMOOTH",
"1134 621 OFFCURVE",
"1162 635 OFFCURVE",
"1169 635 CURVE",
"1193 628 OFFCURVE",
"1208 612 OFFCURVE",
"1208 590 CURVE SMOOTH",
"1208 571 OFFCURVE",
"1193 551 OFFCURVE",
"1174 546 CURVE SMOOTH"
);
},
{
closed = 1;
nodes = (
"233 -69 LINE SMOOTH",
"213 -69 OFFCURVE",
"196 -86 OFFCURVE",
"196 -106 CURVE SMOOTH",
"196 -127 OFFCURVE",
"213 -143 OFFCURVE",
"233 -143 CURVE SMOOTH",
"1054 -143 LINE SMOOTH",
"1075 -143 OFFCURVE",
"1092 -127 OFFCURVE",
"1092 -106 CURVE SMOOTH",
"1092 -86 OFFCURVE",
"1075 -69 OFFCURVE",
"1054 -69 CURVE SMOOTH"
);
}
);
width = 1280;
}
);
note = uniE00A;
unicode = E00A;
},
{
glyphname = uniE00B;
lastChange = "2017-08-02 15:03:29 +0000";
layers = (
{
layerId = "489549A1-39E0-4C35-B6CE-29571649E041";
paths = (
{
closed = 1;
nodes = (
"978 124 OFFCURVE",
"977 124 OFFCURVE",
"977 125 CURVE",
"966 135 OFFCURVE",
"931 169 OFFCURVE",
"901 199 CURVE SMOOTH",
"847 254 LINE",
"859 268 LINE",
"861 270 LINE",
"881 298 OFFCURVE",
"895 327 OFFCURVE",
"908 356 CURVE SMOOTH",
"937 418 OFFCURVE",
"944 489 OFFCURVE",
"928 567 CURVE SMOOTH",
"912 643 OFFCURVE",
"872 713 OFFCURVE",
"815 766 CURVE SMOOTH",
"754 820 OFFCURVE",
"684 852 OFFCURVE",
"605 858 CURVE SMOOTH",
"502 867 OFFCURVE",
"410 839 OFFCURVE",
"333 775 CURVE SMOOTH",
"255 709 OFFCURVE",
"211 625 OFFCURVE",
"202 523 CURVE SMOOTH",
"195 432 OFFCURVE",
"219 346 OFFCURVE",
"273 275 CURVE SMOOTH",
"340 186 OFFCURVE",
"429 137 OFFCURVE",
"538 128 CURVE SMOOTH",
"549 127 OFFCURVE",
"560 126 OFFCURVE",
"571 126 CURVE SMOOTH",
"649 126 OFFCURVE",
"721 150 OFFCURVE",
"786 198 CURVE",
"788 199 OFFCURVE",
"789 200 OFFCURVE",
"791 202 CURVE",
"847 145 LINE SMOOTH",
"886 106 OFFCURVE",
"909 83 OFFCURVE",
"924 70 CURVE",
"925 69 OFFCURVE",
"926 68 OFFCURVE",
"926 67 CURVE",
"927 68 LINE",
"939 58 OFFCURVE",
"945 55 OFFCURVE",
"952 55 CURVE SMOOTH",
"956 55 OFFCURVE",
"959 56 OFFCURVE",
"964 57 CURVE SMOOTH",
"977 60 OFFCURVE",
"988 71 OFFCURVE",
"991 84 CURVE",
"995 97 OFFCURVE",
"989 113 OFFCURVE",
"979 123 CURVE SMOOTH"
);
},
{
closed = 1;
nodes = (
"457 211 OFFCURVE",
"388 250 OFFCURVE",
"334 321 CURVE SMOOTH",
"291 378 OFFCURVE",
"272 444 OFFCURVE",
"279 516 CURVE SMOOTH",
"286 597 OFFCURVE",
"321 664 OFFCURVE",
"383 716 CURVE SMOOTH",
"437 761 OFFCURVE",
"497 784 OFFCURVE",
"567 784 CURVE SMOOTH",
"577 784 OFFCURVE",
"588 783 OFFCURVE",
"598 782 CURVE SMOOTH",
"660 777 OFFCURVE",
"715 752 OFFCURVE",
"763 709 CURVE SMOOTH",
"809 667 OFFCURVE",
"840 612 OFFCURVE",
"853 552 CURVE SMOOTH",
"866 489 OFFCURVE",
"861 436 OFFCURVE",
"838 386 CURVE SMOOTH",
"826 361 OFFCURVE",
"815 338 OFFCURVE",
"800 317 CURVE",
"774 286 OFFCURVE",
"762 275 OFFCURVE",
"740 259 CURVE SMOOTH",
"682 216 OFFCURVE",
"616 198 OFFCURVE",
"544 204 CURVE SMOOTH"
);
}
);
width = 1280;
}
);
note = uniE00B;
unicode = E00B;
},
{
glyphname = uniE00C;
lastChange = "2017-08-02 15:03:29 +0000";
layers = (
{
layerId = "489549A1-39E0-4C35-B6CE-29571649E041";
paths = (
{
closed = 1;
nodes = (
"635 -10 LINE SMOOTH",
"508 -10 OFFCURVE",
"435 75 OFFCURVE",
"435 222 CURVE SMOOTH",
"435 596 LINE SMOOTH",
"435 730 OFFCURVE",
"529 790 OFFCURVE",
"623 790 CURVE SMOOTH",
"640 790 LINE SMOOTH",
"676 790 OFFCURVE",
"704 781 OFFCURVE",
"721 763 CURVE SMOOTH",
"749 735 OFFCURVE",
"749 694 OFFCURVE",
"749 650 CURVE",
"748 635 LINE",
"748 280 LINE SMOOTH",
"748 160 OFFCURVE",
"689 129 OFFCURVE",
"640 124 CURVE SMOOTH",
"627 123 LINE",
"599 123 OFFCURVE",
"577 131 OFFCURVE",
"563 146 CURVE SMOOTH",
"538 172 OFFCURVE",
"540 209 OFFCURVE",
"541 249 CURVE SMOOTH",
"541 635 LINE SMOOTH",
"541 652 OFFCURVE",
"555 666 OFFCURVE",
"572 666 CURVE SMOOTH",
"589 666 OFFCURVE",
"604 652 OFFCURVE",
"604 635 CURVE SMOOTH",
"604 280 LINE SMOOTH",
"604 269 OFFCURVE",
"603 257 OFFCURVE",
"603 247 CURVE",
"602 224 OFFCURVE",
"600 196 OFFCURVE",
"607 189 CURVE SMOOTH",
"609 187 OFFCURVE",
"616 185 OFFCURVE",
"627 185 CURVE SMOOTH",
"636 185 LINE",
"651 187 OFFCURVE",
"686 190 OFFCURVE",
"686 280 CURVE SMOOTH",
"686 652 LINE SMOOTH",
"687 681 OFFCURVE",
"687 709 OFFCURVE",
"677 719 CURVE",
"670 727 OFFCURVE",
"652 729 OFFCURVE",
"640 729 CURVE SMOOTH",
"623 729 LINE SMOOTH",
"602 729 OFFCURVE",
"497 722 OFFCURVE",
"497 596 CURVE SMOOTH",
"497 222 LINE SMOOTH",
"497 52 OFFCURVE",
"600 52 OFFCURVE",
"635 52 CURVE SMOOTH",
"647 52 LINE SMOOTH",
"699 52 OFFCURVE",
"796 124 OFFCURVE",
"796 225 CURVE SMOOTH",
"796 637 LINE SMOOTH",
"796 653 OFFCURVE",
"810 667 OFFCURVE",
"827 667 CURVE SMOOTH",
"844 667 OFFCURVE",
"858 653 OFFCURVE",
"858 637 CURVE SMOOTH",
"858 225 LINE SMOOTH",
"858 84 OFFCURVE",
"731 -10 OFFCURVE",
"647 -10 CURVE SMOOTH"
);
}
);
width = 1280;
}
);
note = uniE00C;
unicode = E00C;
},
{
glyphname = uniE00D;
lastChange = "2017-08-02 15:03:29 +0000";
layers = (
{
layerId = "489549A1-39E0-4C35-B6CE-29571649E041";
paths = (
{
closed = 1;
nodes = (
"1145 824 OFFCURVE",
"1043 922 OFFCURVE",
"968 922 CURVE SMOOTH",
"934 922 OFFCURVE",
"907 914 OFFCURVE",
"883 897 CURVE",
"881 896 OFFCURVE",
"880 894 OFFCURVE",
"878 893 CURVE",
"175 190 LINE",
"169 183 OFFCURVE",
"165 174 OFFCURVE",
"165 165 CURVE SMOOTH",
"165 -35 LINE SMOOTH",
"165 -55 OFFCURVE",
"181 -71 OFFCURVE",
"201 -71 CURVE SMOOTH",
"416 -71 LINE SMOOTH",
"426 -71 OFFCURVE",
"435 -67 OFFCURVE",
"442 -60 CURVE SMOOTH",
"1106 606 LINE",
"1160 669 OFFCURVE",
"1165 711 OFFCURVE",
"1156 761 CURVE SMOOTH"
);
},
{
closed = 1;
nodes = (
"1017 618 LINE",
"861 774 LINE",
"927 840 LINE",
"936 847 OFFCURVE",
"947 851 OFFCURVE",
"968 851 CURVE SMOOTH",
"1005 850 OFFCURVE",
"1080 781 OFFCURVE",
"1086 749 CURVE SMOOTH",
"1091 720 OFFCURVE",
"1092 700 OFFCURVE",
"1053 655 CURVE"
);
},
{
closed = 1;
nodes = (
"966 568 LINE",
"932 534 LINE",
"776 690 LINE",
"811 724 LINE"
);
},
{
closed = 1;
nodes = (
"883 483 LINE",
"402 0 LINE",
"236 0 LINE",
"236 150 LINE",
"726 640 LINE"
);
}
);
width = 1280;
}
);
note = uniE00D;
unicode = E00D;
},
{
glyphname = uniE00E;
lastChange = "2017-08-02 15:44:11 +0000";
layers = (
{
layerId = "489549A1-39E0-4C35-B6CE-29571649E041";
paths = (
{
closed = 1;
nodes = (
"815 828 LINE",
"815 957 LINE",
"455 957 LINE",
"455 828 LINE",
"171 828 LINE SMOOTH",
"151 828 OFFCURVE",
"134 813 OFFCURVE",
"134 793 CURVE SMOOTH",
"134 773 OFFCURVE",
"151 757 OFFCURVE",
"171 757 CURVE SMOOTH",
"240 757 LINE",
"240 24 LINE SMOOTH",
"240 -54 OFFCURVE",
"258 -72 OFFCURVE",
"336 -72 CURVE SMOOTH",
"938 -72 LINE SMOOTH",
"1007 -72 OFFCURVE",
"1029 -50 OFFCURVE",
"1029 19 CURVE SMOOTH",
"1029 757 LINE",
"1098 757 LINE SMOOTH",
"1119 757 OFFCURVE",
"1134 773 OFFCURVE",
"1134 793 CURVE SMOOTH",
"1134 813 OFFCURVE",
"1119 828 OFFCURVE",
"1098 828 CURVE SMOOTH"
);
},
{
closed = 1;
nodes = (
"527 828 LINE",
"527 884 LINE",
"742 884 LINE",
"742 828 LINE"
);
},
{
closed = 1;
nodes = (
"957 757 LINE",
"957 19 LINE SMOOTH",
"957 10 OFFCURVE",
"957 4 OFFCURVE",
"956 0 CURVE",
"336 0 LINE",
"313 0 LINE",
"313 757 LINE"
);
},
{
closed = 1;
nodes = (
"427 647 OFFCURVE",
"411 631 OFFCURVE",
"411 611 CURVE SMOOTH",
"411 152 LINE SMOOTH",
"411 132 OFFCURVE",
"427 115 OFFCURVE",
"447 115 CURVE SMOOTH",
"467 115 OFFCURVE",
"483 132 OFFCURVE",
"483 152 CURVE SMOOTH",
"483 611 LINE SMOOTH",
"483 631 OFFCURVE",
"467 647 OFFCURVE",
"447 647 CURVE SMOOTH"
);
},
{
closed = 1;
nodes = (
"615 647 OFFCURVE",
"598 631 OFFCURVE",
"598 611 CURVE SMOOTH",
"598 152 LINE SMOOTH",
"598 132 OFFCURVE",
"615 115 OFFCURVE",
"634 115 CURVE SMOOTH",
"655 115 OFFCURVE",
"671 132 OFFCURVE",
"671 152 CURVE SMOOTH",
"671 611 LINE SMOOTH",
"671 631 OFFCURVE",
"655 647 OFFCURVE",
"634 647 CURVE SMOOTH"
);
},
{
closed = 1;
nodes = (
"842 115 OFFCURVE",
"859 132 OFFCURVE",
"859 152 CURVE SMOOTH",
"859 611 LINE SMOOTH",
"859 631 OFFCURVE",
"842 647 OFFCURVE",
"823 647 CURVE SMOOTH",
"802 647 OFFCURVE",
"786 631 OFFCURVE",
"786 611 CURVE SMOOTH",
"786 152 LINE SMOOTH",
"786 132 OFFCURVE",
"802 115 OFFCURVE",
"823 115 CURVE SMOOTH"
);
}
);
width = 1280;
}
);
note = uniE00E;
unicode = E00E;
},
{
glyphname = uniE00F;
lastChange = "2017-08-02 15:03:29 +0000";
layers = (
{
layerId = "489549A1-39E0-4C35-B6CE-29571649E041";
paths = (
{
closed = 1;
nodes = (
"638 238 LINE SMOOTH",
"603 238 OFFCURVE",
"567 253 OFFCURVE",
"541 279 CURVE SMOOTH",
"514 306 OFFCURVE",
"499 342 OFFCURVE",
"500 380 CURVE SMOOTH",
"500 458 OFFCURVE",
"563 520 OFFCURVE",
"642 521 CURVE SMOOTH",
"679 522 OFFCURVE",
"718 505 OFFCURVE",
"745 477 CURVE SMOOTH",
"770 450 OFFCURVE",
"784 415 OFFCURVE",
"782 378 CURVE",
"782 298 OFFCURVE",
"721 238 OFFCURVE",
"639 238 CURVE SMOOTH"
);
},
{
closed = 1;
nodes = (
"291 237 LINE SMOOTH",
"219 237 OFFCURVE",
"159 290 OFFCURVE",
"151 362 CURVE SMOOTH",
"142 439 OFFCURVE",
"193 505 OFFCURVE",
"272 520 CURVE SMOOTH",
"281 522 OFFCURVE",
"289 521 OFFCURVE",
"296 521 CURVE SMOOTH",
"303 521 LINE SMOOTH",
"306 521 OFFCURVE",
"309 521 OFFCURVE",
"311 520 CURVE",
"344 512 OFFCURVE",
"371 498 OFFCURVE",
"393 476 CURVE SMOOTH",
"428 442 OFFCURVE",
"441 377 OFFCURVE",
"423 329 CURVE SMOOTH",
"403 276 OFFCURVE",
"350 239 OFFCURVE",
"294 237 CURVE"
);
},
{
closed = 1;
nodes = (
"936 237 OFFCURVE",
"882 274 OFFCURVE",
"860 332 CURVE SMOOTH",
"844 373 OFFCURVE",
"850 420 OFFCURVE",
"876 458 CURVE SMOOTH",
"902 497 OFFCURVE",
"946 520 OFFCURVE",
"992 521 CURVE SMOOTH",
"1002 521 LINE SMOOTH",
"1005 521 OFFCURVE",
"1008 521 OFFCURVE",
"1011 520 CURVE",
"1048 513 OFFCURVE",
"1079 495 OFFCURVE",
"1103 467 CURVE SMOOTH",
"1132 432 OFFCURVE",
"1142 384 OFFCURVE",
"1129 339 CURVE SMOOTH",
"1115 293 OFFCURVE",
"1080 258 OFFCURVE",
"1033 243 CURVE SMOOTH",
"1020 239 OFFCURVE",
"1006 237 OFFCURVE",
"993 237 CURVE SMOOTH"
);
},
{
closed = 1;
nodes = (
"285 449 LINE",
"243 441 OFFCURVE",
"218 410 OFFCURVE",
"223 370 CURVE SMOOTH",
"226 340 OFFCURVE",
"251 310 OFFCURVE",
"293 310 CURVE",
"321 311 OFFCURVE",
"347 333 OFFCURVE",
"355 354 CURVE SMOOTH",
"363 376 OFFCURVE",
"357 410 OFFCURVE",
"342 425 CURVE SMOOTH",
"331 436 OFFCURVE",
"317 444 OFFCURVE",
"298 449 CURVE"
);
},
{
closed = 1;
nodes = (
"643 448 LINE",
"603 448 OFFCURVE",
"573 418 OFFCURVE",
"572 379 CURVE SMOOTH",
"572 361 OFFCURVE",
"579 343 OFFCURVE",
"592 330 CURVE",
"605 318 OFFCURVE",
"622 310 OFFCURVE",
"638 310 CURVE SMOOTH",
"681 310 OFFCURVE",
"710 338 OFFCURVE",
"710 378 CURVE SMOOTH",
"710 379 LINE",
"710 381 LINE",
"711 403 OFFCURVE",
"701 418 OFFCURVE",
"692 426 CURVE"
);
},
{
closed = 1;
nodes = (
"970 448 OFFCURVE",
"949 437 OFFCURVE",
"936 417 CURVE",
"923 399 OFFCURVE",
"920 376 OFFCURVE",
"927 357 CURVE SMOOTH",
"941 322 OFFCURVE",
"978 302 OFFCURVE",
"1011 312 CURVE SMOOTH",
"1044 322 OFFCURVE",
"1055 346 OFFCURVE",
"1059 360 CURVE",
"1066 381 OFFCURVE",
"1061 404 OFFCURVE",
"1047 420 CURVE",
"1035 435 OFFCURVE",
"1020 444 OFFCURVE",
"1001 448 CURVE"
);
}
);
width = 1280;
}
);
note = uniE00F;
unicode = E00F;
},
{
glyphname = uniF000;
lastChange = "2017-08-02 15:03:29 +0000";
layers = (
{
layerId = "489549A1-39E0-4C35-B6CE-29571649E041";
paths = (
{
closed = 1;
nodes = (
"826 945 LINE SMOOTH",
"883 944 OFFCURVE",
"909 906 OFFCURVE",
"909 866 CURVE SMOOTH",
"909 843 LINE",
"971 843 LINE SMOOTH",
"1006 843 OFFCURVE",
"1031 831 OFFCURVE",
"1047 806 CURVE",
"1074 776 OFFCURVE",
"1079 721 OFFCURVE",
"1060 640 CURVE SMOOTH",
"1047 579 OFFCURVE",
"1027 545 OFFCURVE",
"974 516 CURVE SMOOTH",
"947 501 OFFCURVE",
"921 494 OFFCURVE",
"894 495 CURVE",
"883 495 LINE",
"866 460 OFFCURVE",
"844 431 OFFCURVE",
"817 410 CURVE",
"780 376 OFFCURVE",
"737 355 OFFCURVE",
"687 348 CURVE",
"683 348 LINE",
"683 247 LINE",
"781 247 LINE",
"806 246 OFFCURVE",
"826 228 OFFCURVE",
"826 204 CURVE SMOOTH",
"826 180 OFFCURVE",
"806 158 OFFCURVE",
"781 158 CURVE SMOOTH",
"497 158 LINE SMOOTH",
"474 158 OFFCURVE",
"454 180 OFFCURVE",
"454 204 CURVE SMOOTH",
"454 228 OFFCURVE",
"474 248 OFFCURVE",
"497 247 CURVE",
"593 247 LINE",
"593 346 LINE",
"587 346 OFFCURVE",
"583 347 OFFCURVE",
"582 348 CURVE",
"519 361 OFFCURVE",
"467 393 OFFCURVE",
"425 444 CURVE SMOOTH",
"416 455 OFFCURVE",
"395 486 OFFCURVE",
"390 495 CURVE",
"382 495 LINE SMOOTH",
"349 495 OFFCURVE",
"320 503 OFFCURVE",
"294 518 CURVE SMOOTH",
"243 548 OFFCURVE",
"215 594 OFFCURVE",
"211 655 CURVE",
"211 755 LINE SMOOTH",
"211 795 OFFCURVE",
"230 823 OFFCURVE",
"267 838 CURVE",
"284 841 OFFCURVE",
"297 842 OFFCURVE",
"305 843 CURVE",
"365 843 LINE",
"364 847 OFFCURVE",
"364 852 OFFCURVE",
"365 858 CURVE",
"365 916 OFFCURVE",
"396 945 OFFCURVE",
"457 945 CURVE SMOOTH"
);
},
{
closed = 1;
nodes = (
"817 576 LINE",
"819 595 LINE",
"821 623 LINE",
"821 768 LINE SMOOTH",
"821 777 OFFCURVE",
"823 787 OFFCURVE",
"826 798 CURVE",
"823 812 OFFCURVE",
"822 823 OFFCURVE",
"821 830 CURVE",
"821 855 LINE",
"454 855 LINE",
"454 843 LINE SMOOTH",
"454 825 OFFCURVE",
"453 809 OFFCURVE",
"450 796 CURVE",
"453 789 OFFCURVE",
"454 781 OFFCURVE",
"454 772 CURVE SMOOTH",
"454 617 LINE",
"459 567 LINE",
"459 559 LINE",
"468 540 OFFCURVE",
"479 520 OFFCURVE",
"493 499 CURVE",
"523 465 OFFCURVE",
"559 444 OFFCURVE",
"602 435 CURVE",
"603 434 OFFCURVE",
"606 433 OFFCURVE",
"610 433 CURVE",
"640 427 LINE",
"642 427 LINE",
"670 433 LINE SMOOTH",
"735 445 OFFCURVE",
"787 496 OFFCURVE",
"800 528 CURVE SMOOTH",
"807 544 OFFCURVE",
"812 554 OFFCURVE",
"817 559 CURVE"
);
},
{
closed = 1;
nodes = (
"363 753 LINE",
"303 753 LINE",
"301 723 LINE",
"301 679 OFFCURVE",
"290 626 OFFCURVE",
"341 595 CURVE",
"347 591 OFFCURVE",
"356 588 OFFCURVE",
"367 585 CURVE",
"364 600 OFFCURVE",
"363 644 OFFCURVE",
"363 719 CURVE SMOOTH"
);
},
{
closed = 1;
nodes = (
"909 753 LINE",
"909 742 LINE SMOOTH",
"910 705 OFFCURVE",
"910 665 OFFCURVE",
"909 621 CURVE SMOOTH",
"909 585 LINE",
"953 593 OFFCURVE",
"963 619 OFFCURVE",
"975 659 CURVE",
"985 712 OFFCURVE",
"986 742 OFFCURVE",
"978 750 CURVE SMOOTH",
"977 751 OFFCURVE",
"977 752 OFFCURVE",
"977 753 CURVE"
);
}
);
width = 1280;
}
);
note = uniF000;
unicode = F000;
},
{
glyphname = uniF001;
lastChange = "2017-08-02 15:03:29 +0000";
layers = (
{
layerId = "489549A1-39E0-4C35-B6CE-29571649E041";
paths = (
{
closed = 1;
nodes = (
"1166 1101 OFFCURVE",
"1030 1145 OFFCURVE",
"908 1084 CURVE SMOOTH",
"898 1079 OFFCURVE",
"883 1072 OFFCURVE",
"873 1056 CURVE",
"835 1006 LINE",
"862 969 LINE SMOOTH",
"870 958 OFFCURVE",
"878 946 OFFCURVE",
"887 937 CURVE SMOOTH",
"956 867 OFFCURVE",
"1025 798 OFFCURVE",
"1095 729 CURVE",
"1105 720 OFFCURVE",
"1116 712 OFFCURVE",
"1127 704 CURVE SMOOTH",
"1164 677 LINE",
"1210 711 LINE",
"1215 715 LINE",
"1281 780 OFFCURVE",
"1289 904 OFFCURVE",
"1234 992 CURVE SMOOTH"
);
},
{
closed = 1;
nodes = (
"259 798 OFFCURVE",
"328 867 OFFCURVE",
"397 937 CURVE SMOOTH",
"406 946 OFFCURVE",
"414 958 OFFCURVE",
"422 969 CURVE SMOOTH",
"449 1005 LINE",
"411 1056 LINE",
"369 1101 OFFCURVE",
"307 1119 OFFCURVE",
"238 1111 CURVE SMOOTH",
"105 1096 OFFCURVE",
"9 986 OFFCURVE",
"15 855 CURVE SMOOTH",
"17 809 OFFCURVE",
"26 743 OFFCURVE",
"88 698 CURVE",
"129 683 LINE",
"157 704 LINE",
"169 712 OFFCURVE",
"180 720 OFFCURVE",
"189 729 CURVE SMOOTH"
);
},
{
closed = 1;
nodes = (
"108 801 OFFCURVE",
"102 824 OFFCURVE",
"100 859 CURVE SMOOTH",
"97 944 OFFCURVE",
"160 1016 OFFCURVE",
"247 1026 CURVE SMOOTH",
"255 1027 OFFCURVE",
"262 1027 OFFCURVE",
"270 1027 CURVE SMOOTH",
"302 1027 OFFCURVE",
"327 1019 OFFCURVE",
"343 1005 CURVE",
"341 1002 OFFCURVE",
"338 999 OFFCURVE",
"336 997 CURVE SMOOTH",
"268 928 OFFCURVE",
"199 859 OFFCURVE",
"129 790 CURVE SMOOTH",
"127 788 OFFCURVE",
"124 785 OFFCURVE",
"121 783 CURVE"
);
},
{
closed = 1;
nodes = (
"1155 790 LINE",
"948 997 LINE",
"942 1005 LINE",
"943 1006 OFFCURVE",
"945 1007 OFFCURVE",
"949 1009 CURVE SMOOTH",
"972 1020 OFFCURVE",
"998 1027 OFFCURVE",
"1023 1027 CURVE SMOOTH",
"1079 1027 OFFCURVE",
"1130 997 OFFCURVE",
"1162 946 CURVE SMOOTH",
"1196 891 OFFCURVE",
"1189 820 OFFCURVE",
"1162 784 CURVE"
);
},
{
closed = 1;
nodes = (
"959 825 OFFCURVE",
"855 887 OFFCURVE",
"732 908 CURVE SMOOTH",
"564 938 OFFCURVE",
"415 892 OFFCURVE",
"289 774 CURVE SMOOTH",
"209 698 OFFCURVE",
"159 605 OFFCURVE",
"140 496 CURVE SMOOTH",
"113 345 OFFCURVE",
"148 208 OFFCURVE",
"244 90 CURVE",
"246 87 OFFCURVE",
"248 82 OFFCURVE",
"251 77 CURVE",
"251 76 LINE",
"238 63 LINE SMOOTH",
"212 38 OFFCURVE",
"185 11 OFFCURVE",
"160 -17 CURVE SMOOTH",
"144 -35 OFFCURVE",
"146 -62 OFFCURVE",
"164 -78 CURVE SMOOTH",
"172 -85 OFFCURVE",
"182 -88 OFFCURVE",
"192 -88 CURVE SMOOTH",
"204 -88 OFFCURVE",
"216 -83 OFFCURVE",
"224 -74 CURVE SMOOTH",
"247 -48 OFFCURVE",
"272 -24 OFFCURVE",
"298 2 CURVE SMOOTH",
"303 7 OFFCURVE",
"308 11 OFFCURVE",
"312 16 CURVE",
"319 12 OFFCURVE",
"325 7 OFFCURVE",
"331 2 CURVE SMOOTH",
"349 -12 LINE",
"422 -63 OFFCURVE",
"502 -93 OFFCURVE",
"589 -102 CURVE SMOOTH",
"608 -104 OFFCURVE",
"626 -105 OFFCURVE",
"644 -105 CURVE SMOOTH",
"758 -105 OFFCURVE",
"862 -68 OFFCURVE",
"956 4 CURVE",
"973 15 LINE",
"986 2 LINE SMOOTH",
"1013 -24 OFFCURVE",
"1038 -48 OFFCURVE",
"1060 -74 CURVE",
"1069 -83 OFFCURVE",
"1081 -88 OFFCURVE",
"1093 -88 CURVE SMOOTH",
"1102 -88 OFFCURVE",
"1112 -85 OFFCURVE",
"1121 -78 CURVE",
"1138 -62 OFFCURVE",
"1140 -35 OFFCURVE",
"1125 -17 CURVE SMOOTH",
"1100 11 OFFCURVE",
"1072 38 OFFCURVE",
"1046 63 CURVE SMOOTH",
"1033 76 LINE",
"1036 81 OFFCURVE",
"1039 85 OFFCURVE",
"1041 89 CURVE",
"1191 272 OFFCURVE",
"1191 539 OFFCURVE",
"1041 723 CURVE SMOOTH"
);
},
{
closed = 1;
nodes = (
"526 -10 OFFCURVE",
"459 15 OFFCURVE",
"399 58 CURVE SMOOTH",
"383 70 LINE SMOOTH",
"368 81 OFFCURVE",
"353 92 OFFCURVE",
"336 102 CURVE",
"333 103 OFFCURVE",
"330 110 OFFCURVE",
"327 116 CURVE SMOOTH",
"323 124 OFFCURVE",
"318 134 OFFCURVE",
"310 143 CURVE",
"231 242 OFFCURVE",
"202 356 OFFCURVE",
"224 481 CURVE SMOOTH",
"240 572 OFFCURVE",
"281 649 OFFCURVE",
"347 711 CURVE SMOOTH",
"432 791 OFFCURVE",
"529 831 OFFCURVE",
"637 831 CURVE SMOOTH",
"663 831 OFFCURVE",
"690 829 OFFCURVE",
"718 824 CURVE SMOOTH",
"821 806 OFFCURVE",
"905 756 OFFCURVE",
"975 669 CURVE SMOOTH",
"1099 516 OFFCURVE",
"1099 295 OFFCURVE",
"975 143 CURVE SMOOTH",
"964 129 OFFCURVE",
"957 115 OFFCURVE",
"951 102 CURVE",
"950 101 OFFCURVE",
"950 101 OFFCURVE",
"950 100 CURVE",
"942 96 LINE",
"929 88 OFFCURVE",
"916 81 OFFCURVE",
"904 72 CURVE SMOOTH",
"812 1 OFFCURVE",
"712 -28 OFFCURVE",
"598 -17 CURVE SMOOTH"
);
},
{
closed = 1;
nodes = (
"781 312 OFFCURVE",
"758 330 OFFCURVE",
"736 348 CURVE SMOOTH",
"687 387 LINE",
"686 388 OFFCURVE",
"684 389 OFFCURVE",
"685 398 CURVE",
"685 675 LINE SMOOTH",
"685 699 OFFCURVE",
"666 718 OFFCURVE",
"642 718 CURVE SMOOTH",
"619 718 OFFCURVE",
"599 699 OFFCURVE",
"599 675 CURVE SMOOTH",
"599 609 LINE SMOOTH",
"600 539 OFFCURVE",
"600 459 OFFCURVE",
"599 399 CURVE SMOOTH",
"599 364 OFFCURVE",
"611 337 OFFCURVE",
"636 318 CURVE SMOOTH",
"649 308 OFFCURVE",
"666 295 OFFCURVE",
"683 281 CURVE SMOOTH",
"706 262 OFFCURVE",
"731 243 OFFCURVE",
"750 229 CURVE SMOOTH",
"757 224 OFFCURVE",
"766 222 OFFCURVE",
"775 222 CURVE SMOOTH",
"788 222 OFFCURVE",
"801 228 OFFCURVE",
"810 240 CURVE",
"823 259 OFFCURVE",
"819 286 OFFCURVE",
"799 299 CURVE"
);
}
);
width = 1280;
}
);
note = uniF001;
unicode = F001;
},
{
glyphname = uniF002;
lastChange = "2017-08-02 15:03:29 +0000";
layers = (
{
layerId = "489549A1-39E0-4C35-B6CE-29571649E041";
paths = (
{
closed = 1;
nodes = (
"927 -61 OFFCURVE",
"898 -47 OFFCURVE",
"880 -37 CURVE SMOOTH",
"834 -11 OFFCURVE",
"791 13 OFFCURVE",
"748 36 CURVE SMOOTH",
"721 51 OFFCURVE",
"695 65 OFFCURVE",
"668 81 CURVE SMOOTH",
"648 92 OFFCURVE",
"634 93 OFFCURVE",
"615 85 CURVE SMOOTH",
"569 64 OFFCURVE",
"524 39 OFFCURVE",
"480 15 CURVE SMOOTH",
"444 -5 OFFCURVE",
"408 -24 OFFCURVE",
"371 -42 CURVE",
"353 -52 OFFCURVE",
"333 -53 OFFCURVE",
"319 -53 CURVE SMOOTH",
"299 -53 OFFCURVE",
"280 -49 OFFCURVE",
"265 -41 CURVE SMOOTH",
"233 -24 OFFCURVE",
"208 20 OFFCURVE",
"211 55 CURVE SMOOTH",
"214 103 OFFCURVE",
"228 192 OFFCURVE",
"239 264 CURVE SMOOTH",
"246 307 OFFCURVE",
"253 355 OFFCURVE",
"253 365 CURVE SMOOTH",
"253 369 OFFCURVE",
"246 377 OFFCURVE",
"233 389 CURVE",
"220 402 LINE",
"195 429 OFFCURVE",
"168 455 OFFCURVE",
"142 481 CURVE SMOOTH",
"111 511 OFFCURVE",
"81 541 OFFCURVE",
"52 572 CURVE SMOOTH",
"12 616 OFFCURVE",
"-2 666 OFFCURVE",
"13 710 CURVE SMOOTH",
"27 751 OFFCURVE",
"64 779 OFFCURVE",
"114 788 CURVE SMOOTH",
"154 794 OFFCURVE",
"186 797 OFFCURVE",
"224 801 CURVE SMOOTH",
"252 804 OFFCURVE",
"283 807 OFFCURVE",
"322 812 CURVE SMOOTH",
"382 820 OFFCURVE",
"408 836 OFFCURVE",
"426 875 CURVE SMOOTH",
"454 938 OFFCURVE",
"488 1011 OFFCURVE",
"529 1079 CURVE",
"533 1087 LINE",
"549 1114 OFFCURVE",
"575 1159 OFFCURVE",
"640 1159 CURVE SMOOTH",
"703 1159 OFFCURVE",
"732 1111 OFFCURVE",
"749 1082 CURVE SMOOTH",
"791 1011 OFFCURVE",
"824 941 OFFCURVE",
"854 875 CURVE SMOOTH",
"871 837 OFFCURVE",
"896 818 OFFCURVE",
"938 813 CURVE SMOOTH",
"1013 805 LINE SMOOTH",
"1061 800 OFFCURVE",
"1110 794 OFFCURVE",
"1158 788 CURVE SMOOTH",
"1206 782 OFFCURVE",
"1243 759 OFFCURVE",
"1261 724 CURVE SMOOTH",
"1278 690 OFFCURVE",
"1275 648 OFFCURVE",
"1252 606 CURVE SMOOTH",
"1246 595 OFFCURVE",
"1234 582 OFFCURVE",
"1159 504 CURVE SMOOTH",
"1112 455 OFFCURVE",
"1040 382 OFFCURVE",
"1030 365 CURVE",
"1027 361 OFFCURVE",
"1026 354 OFFCURVE",
"1026 351 CURVE",
"1034 294 OFFCURVE",
"1042 255 OFFCURVE",
"1049 219 CURVE SMOOTH",
"1056 182 OFFCURVE",
"1063 148 OFFCURVE",
"1070 101 CURVE SMOOTH",
"1074 69 OFFCURVE",
"1083 2 OFFCURVE",
"1021 -41 CURVE SMOOTH",
"1002 -55 OFFCURVE",
"981 -61 OFFCURVE",
"958 -61 CURVE SMOOTH"
);
},
{
closed = 1;
nodes = (
"661 177 OFFCURVE",
"686 171 OFFCURVE",
"710 157 CURVE SMOOTH",
"790 113 LINE SMOOTH",
"833 89 OFFCURVE",
"877 66 OFFCURVE",
"923 39 CURVE SMOOTH",
"939 30 OFFCURVE",
"950 26 OFFCURVE",
"958 26 CURVE SMOOTH",
"962 26 OFFCURVE",
"965 26 OFFCURVE",
"971 30 CURVE SMOOTH",
"987 41 OFFCURVE",
"988 57 OFFCURVE",
"983 89 CURVE SMOOTH",
"977 134 OFFCURVE",
"970 167 OFFCURVE",
"964 202 CURVE",
"956 239 OFFCURVE",
"948 279 OFFCURVE",
"939 339 CURVE SMOOTH",
"936 363 OFFCURVE",
"943 392 OFFCURVE",
"956 413 CURVE",
"971 435 OFFCURVE",
"1021 487 OFFCURVE",
"1096 565 CURVE SMOOTH",
"1130 599 OFFCURVE",
"1171 642 OFFCURVE",
"1178 651 CURVE",
"1184 663 OFFCURVE",
"1187 677 OFFCURVE",
"1183 685 CURVE SMOOTH",
"1179 693 OFFCURVE",
"1165 699 OFFCURVE",
"1146 701 CURVE",
"1099 708 OFFCURVE",
"1051 713 OFFCURVE",
"1004 718 CURVE SMOOTH",
"928 727 LINE SMOOTH",
"856 735 OFFCURVE",
"804 773 OFFCURVE",
"774 839 CURVE SMOOTH",
"746 903 OFFCURVE",
"714 970 OFFCURVE",
"676 1034 CURVE SMOOTH",
"659 1063 OFFCURVE",
"651 1072 OFFCURVE",
"640 1072 CURVE SMOOTH",
"628 1072 OFFCURVE",
"624 1069 OFFCURVE",
"609 1043 CURVE SMOOTH",
"604 1034 LINE",
"565 970 OFFCURVE",
"533 900 OFFCURVE",
"505 839 CURVE SMOOTH",
"466 754 OFFCURVE",
"396 734 OFFCURVE",
"333 726 CURVE SMOOTH",
"293 721 OFFCURVE",
"262 717 OFFCURVE",
"233 714 CURVE SMOOTH",
"197 711 OFFCURVE",
"166 708 OFFCURVE",
"129 701 CURVE SMOOTH",
"111 698 OFFCURVE",
"99 691 OFFCURVE",
"96 682 CURVE",
"92 672 OFFCURVE",
"96 654 OFFCURVE",
"117 631 CURVE SMOOTH",
"144 601 OFFCURVE",
"174 572 OFFCURVE",
"203 544 CURVE SMOOTH",
"230 517 OFFCURVE",
"258 490 OFFCURVE",
"284 462 CURVE",
"287 458 OFFCURVE",
"291 455 OFFCURVE",
"295 451 CURVE SMOOTH",
"313 433 OFFCURVE",
"339 408 OFFCURVE",
"341 367 CURVE",
"341 356 OFFCURVE",
"338 335 OFFCURVE",
"325 251 CURVE SMOOTH",
"315 180 OFFCURVE",
"301 93 OFFCURVE",
"298 48 CURVE",
"298 46 OFFCURVE",
"303 38 OFFCURVE",
"307 35 CURVE",
"307 35 OFFCURVE",
"311 34 OFFCURVE",
"319 34 CURVE SMOOTH",
"327 34 OFFCURVE",
"331 35 OFFCURVE",
"332 36 CURVE",
"368 54 OFFCURVE",
"403 73 OFFCURVE",
"438 92 CURVE SMOOTH",
"483 116 OFFCURVE",
"530 142 OFFCURVE",
"579 164 CURVE SMOOTH",
"598 173 OFFCURVE",
"617 177 OFFCURVE",
"637 177 CURVE SMOOTH"
);
}
);
width = 1280;
}
);
note = uniF002;
unicode = F002;
},
{
glyphname = uniF003;
lastChange = "2017-08-02 15:03:29 +0000";
layers = (
{
layerId = "489549A1-39E0-4C35-B6CE-29571649E041";
paths = (
{
closed = 1;
nodes = (
"1218 384 LINE SMOOTH",
"1232 435 OFFCURVE",
"1240 489 OFFCURVE",
"1240 544 CURVE SMOOTH",
"1240 639 OFFCURVE",
"1218 728 OFFCURVE",
"1178 807 CURVE",
"1183 813 OFFCURVE",
"1186 819 OFFCURVE",
"1188 827 CURVE SMOOTH",
"1191 841 LINE",
"1195 864 OFFCURVE",
"1180 886 OFFCURVE",
"1158 891 CURVE SMOOTH",
"1148 893 OFFCURVE",
"1138 891 OFFCURVE",
"1130 887 CURVE",
"1092 940 OFFCURVE",
"1045 987 OFFCURVE",
"992 1025 CURVE",
"996 1031 OFFCURVE",
"998 1038 OFFCURVE",
"999 1045 CURVE",
"1002 1025 OFFCURVE",
"1019 1010 OFFCURVE",
"1040 1010 CURVE SMOOTH",
"1055 1010 LINE",
"1070 1011 OFFCURVE",
"1083 1018 OFFCURVE",
"1091 1030 CURVE",
"1092 1023 OFFCURVE",
"1094 1017 OFFCURVE",
"1098 1011 CURVE SMOOTH",
"1106 999 LINE",
"1110 992 OFFCURVE",
"1117 986 OFFCURVE",
"1125 982 CURVE",
"1116 975 OFFCURVE",
"1110 963 OFFCURVE",
"1110 950 CURVE SMOOTH",
"1110 936 LINE SMOOTH",
"1110 912 OFFCURVE",
"1129 894 OFFCURVE",
"1153 894 CURVE SMOOTH",
"1176 894 OFFCURVE",
"1194 912 OFFCURVE",
"1194 936 CURVE SMOOTH",
"1194 950 LINE SMOOTH",
"1194 969 OFFCURVE",
"1183 984 OFFCURVE",
"1167 990 CURVE",
"1184 1003 OFFCURVE",
"1188 1026 OFFCURVE",
"1176 1046 CURVE",
"1168 1058 LINE SMOOTH",
"1155 1077 OFFCURVE",
"1129 1083 OFFCURVE",
"1109 1070 CURVE",
"1104 1067 OFFCURVE",
"1100 1063 OFFCURVE",
"1097 1058 CURVE",
"1094 1079 OFFCURVE",
"1076 1095 OFFCURVE",
"1055 1095 CURVE SMOOTH",
"1040 1095 LINE SMOOTH",
"1017 1095 OFFCURVE",
"999 1076 OFFCURVE",
"998 1054 CURVE",
"998 1057 OFFCURVE",
"997 1059 OFFCURVE",
"996 1062 CURVE SMOOTH",
"989 1084 OFFCURVE",
"964 1096 OFFCURVE",
"943 1088 CURVE SMOOTH",
"929 1083 LINE SMOOTH",
"923 1081 OFFCURVE",
"917 1077 OFFCURVE",
"913 1072 CURVE",
"834 1112 OFFCURVE",
"744 1134 OFFCURVE",
"650 1134 CURVE SMOOTH",
"554 1134 OFFCURVE",
"462 1111 OFFCURVE",
"382 1070 CURVE",
"377 1075 OFFCURVE",
"371 1080 OFFCURVE",
"363 1083 CURVE SMOOTH",
"350 1088 LINE SMOOTH",
"328 1096 OFFCURVE",
"303 1084 OFFCURVE",
"295 1062 CURVE",
"294 1061 OFFCURVE",
"294 1059 OFFCURVE",
"294 1058 CURVE",
"291 1078 OFFCURVE",
"273 1095 OFFCURVE",
"252 1095 CURVE SMOOTH",
"236 1095 LINE SMOOTH",
"215 1095 OFFCURVE",
"198 1079 OFFCURVE",
"195 1058 CURVE",
"192 1063 OFFCURVE",
"188 1067 OFFCURVE",
"183 1070 CURVE",
"164 1083 OFFCURVE",
"137 1077 OFFCURVE",
"124 1058 CURVE SMOOTH",
"116 1046 LINE",
"104 1026 OFFCURVE",
"107 1003 OFFCURVE",
"125 989 CURVE",
"108 984 OFFCURVE",
"97 969 OFFCURVE",
"97 950 CURVE SMOOTH",
"97 936 LINE SMOOTH",
"97 912 OFFCURVE",
"116 894 OFFCURVE",
"140 894 CURVE SMOOTH",
"163 894 OFFCURVE",
"182 912 OFFCURVE",
"182 936 CURVE SMOOTH",
"182 950 LINE SMOOTH",
"182 963 OFFCURVE",
"176 975 OFFCURVE",
"167 982 CURVE",
"175 986 OFFCURVE",
"182 992 OFFCURVE",
"187 999 CURVE",
"194 1011 LINE",
"198 1017 OFFCURVE",
"200 1023 OFFCURVE",
"201 1030 CURVE",
"208 1018 OFFCURVE",
"221 1011 OFFCURVE",
"236 1010 CURVE",
"251 1010 LINE SMOOTH",
"271 1010 OFFCURVE",
"288 1023 OFFCURVE",
"293 1043 CURVE",
"294 1035 OFFCURVE",
"298 1027 OFFCURVE",
"303 1021 CURVE",
"251 983 OFFCURVE",
"205 936 OFFCURVE",
"167 883 CURVE",
"158 890 OFFCURVE",
"146 893 OFFCURVE",
"134 891 CURVE",
"111 886 OFFCURVE",
"96 864 OFFCURVE",
"101 841 CURVE SMOOTH",
"104 827 LINE SMOOTH",
"106 817 OFFCURVE",
"112 808 OFFCURVE",
"119 802 CURVE",
"81 724 OFFCURVE",
"60 637 OFFCURVE",
"60 544 CURVE SMOOTH",
"60 453 OFFCURVE",
"81 366 OFFCURVE",
"118 289 CURVE",
"111 283 OFFCURVE",
"106 275 OFFCURVE",
"104 265 CURVE SMOOTH",
"101 251 LINE SMOOTH",
"96 228 OFFCURVE",
"111 205 OFFCURVE",
"134 200 CURVE",
"137 200 OFFCURVE",
"140 199 OFFCURVE",
"142 199 CURVE SMOOTH",
"151 199 OFFCURVE",
"159 202 OFFCURVE",
"166 207 CURVE",
"203 154 OFFCURVE",
"249 107 OFFCURVE",
"301 69 CURVE",
"297 63 OFFCURVE",
"294 56 OFFCURVE",
"293 49 CURVE",
"288 67 OFFCURVE",
"270 80 OFFCURVE",
"251 81 CURVE",
"236 81 LINE SMOOTH",
"221 81 OFFCURVE",
"208 73 OFFCURVE",
"201 62 CURVE",
"200 68 OFFCURVE",
"198 74 OFFCURVE",
"194 80 CURVE",
"187 93 LINE",
"182 101 OFFCURVE",
"175 106 OFFCURVE",
"167 109 CURVE",
"176 117 OFFCURVE",
"182 128 OFFCURVE",
"182 141 CURVE SMOOTH",
"182 156 LINE SMOOTH",
"182 179 OFFCURVE",
"163 198 OFFCURVE",
"140 198 CURVE SMOOTH",
"116 198 OFFCURVE",
"97 179 OFFCURVE",
"97 156 CURVE SMOOTH",
"97 141 LINE SMOOTH",
"97 123 OFFCURVE",
"108 108 OFFCURVE",
"124 102 CURVE",
"107 88 OFFCURVE",
"104 65 OFFCURVE",
"116 46 CURVE SMOOTH",
"124 34 LINE",
"132 21 OFFCURVE",
"145 15 OFFCURVE",
"159 15 CURVE SMOOTH",
"167 15 OFFCURVE",
"176 18 OFFCURVE",
"183 22 CURVE SMOOTH",
"188 25 OFFCURVE",
"192 29 OFFCURVE",
"195 34 CURVE",
"198 13 OFFCURVE",
"215 -3 OFFCURVE",
"237 -3 CURVE",
"252 -2 LINE",
"273 -2 OFFCURVE",
"291 14 OFFCURVE",
"294 34 CURVE",
"294 32 OFFCURVE",
"294 31 OFFCURVE",
"295 29 CURVE",
"302 11 OFFCURVE",
"318 1 OFFCURVE",
"335 1 CURVE SMOOTH",
"340 1 OFFCURVE",
"344 2 OFFCURVE",
"350 4 CURVE",
"363 9 LINE",
"369 11 OFFCURVE",
"375 15 OFFCURVE",
"380 20 CURVE",
"461 -22 OFFCURVE",
"553 -46 OFFCURVE",
"650 -46 CURVE SMOOTH",
"703 -46 OFFCURVE",
"754 -39 OFFCURVE",
"803 -26 CURVE",
"806 -26 OFFCURVE",
"808 -25 OFFCURVE",
"810 -24 CURVE",
"847 -14 OFFCURVE",
"882 0 OFFCURVE",
"915 17 CURVE",
"919 14 OFFCURVE",
"924 11 OFFCURVE",
"929 9 CURVE",
"943 4 LINE",
"947 2 OFFCURVE",
"952 1 OFFCURVE",
"956 1 CURVE SMOOTH",
"974 1 OFFCURVE",
"991 12 OFFCURVE",
"996 29 CURVE",
"997 32 OFFCURVE",
"998 34 OFFCURVE",
"998 37 CURVE",
"1000 15 OFFCURVE",
"1017 -2 OFFCURVE",
"1040 -2 CURVE",
"1055 -3 LINE",
"1076 -3 OFFCURVE",
"1094 13 OFFCURVE",
"1097 34 CURVE",
"1100 29 OFFCURVE",
"1104 25 OFFCURVE",
"1109 22 CURVE SMOOTH",
"1116 18 OFFCURVE",
"1124 15 OFFCURVE",
"1133 15 CURVE SMOOTH",
"1146 15 OFFCURVE",
"1159 21 OFFCURVE",
"1168 34 CURVE SMOOTH",
"1176 46 LINE SMOOTH",
"1188 65 OFFCURVE",
"1184 88 OFFCURVE",
"1168 102 CURVE",
"1183 108 OFFCURVE",
"1194 123 OFFCURVE",
"1194 141 CURVE SMOOTH",
"1194 156 LINE SMOOTH",
"1194 179 OFFCURVE",
"1176 198 OFFCURVE",
"1153 198 CURVE SMOOTH",
"1129 198 OFFCURVE",
"1110 179 OFFCURVE",
"1110 156 CURVE SMOOTH",
"1110 141 LINE SMOOTH",
"1110 128 OFFCURVE",
"1116 117 OFFCURVE",
"1125 109 CURVE",
"1118 106 OFFCURVE",
"1111 101 OFFCURVE",
"1106 93 CURVE SMOOTH",
"1098 80 LINE",
"1094 74 OFFCURVE",
"1092 68 OFFCURVE",
"1091 62 CURVE",
"1083 73 OFFCURVE",
"1070 81 OFFCURVE",
"1055 81 CURVE SMOOTH",
"1041 81 LINE",
"1021 80 OFFCURVE",
"1002 66 OFFCURVE",
"999 46 CURVE",
"998 53 OFFCURVE",
"996 59 OFFCURVE",
"993 64 CURVE",
"1047 103 OFFCURVE",
"1093 150 OFFCURVE",
"1131 203 CURVE",
"1137 200 OFFCURVE",
"1143 199 OFFCURVE",
"1149 199 CURVE SMOOTH",
"1152 199 OFFCURVE",
"1155 200 OFFCURVE",
"1158 200 CURVE",
"1180 205 OFFCURVE",
"1195 228 OFFCURVE",
"1191 251 CURVE",
"1188 265 LINE",
"1186 272 OFFCURVE",
"1183 278 OFFCURVE",
"1179 283 CURVE",
"1194 313 OFFCURVE",
"1206 345 OFFCURVE",
"1216 377 CURVE SMOOTH"
);
},
{
closed = 1;
nodes = (
"696 860 LINE",
"677 863 OFFCURVE",
"658 865 OFFCURVE",
"638 865 CURVE SMOOTH",
"622 865 OFFCURVE",
"606 864 OFFCURVE",
"591 862 CURVE",
"539 1037 LINE",
"575 1045 OFFCURVE",
"612 1049 OFFCURVE",
"650 1049 CURVE SMOOTH",
"683 1049 OFFCURVE",
"714 1046 OFFCURVE",
"745 1040 CURVE"
);
},
{
closed = 1;
nodes = (
"937 671 LINE",
"905 743 OFFCURVE",
"847 801 OFFCURVE",
"776 834 CURVE",
"826 1017 LINE",
"962 967 OFFCURVE",
"1071 859 OFFCURVE",
"1123 724 CURVE"
);
},
{
closed = 1;
nodes = (
"510 839 LINE",
"434 806 OFFCURVE",
"373 746 OFFCURVE",
"339 671 CURVE",
"177 722 LINE",
"227 853 OFFCURVE",
"329 959 OFFCURVE",
"459 1012 CURVE"
);
},
{
closed = 1;
nodes = (
"715 308 OFFCURVE",
"714 307 OFFCURVE",
"713 307 CURVE SMOOTH",
"711 307 OFFCURVE",
"710 306 OFFCURVE",
"708 305 CURVE",
"686 299 OFFCURVE",
"662 295 OFFCURVE",
"638 295 CURVE SMOOTH",
"617 295 OFFCURVE",
"597 298 OFFCURVE",
"578 303 CURVE",
"576 303 OFFCURVE",
"575 304 OFFCURVE",
"574 304 CURVE",
"572 305 OFFCURVE",
"570 305 OFFCURVE",
"568 305 CURVE",
"492 328 OFFCURVE",
"432 388 OFFCURVE",
"407 463 CURVE",
"407 464 OFFCURVE",
"406 466 OFFCURVE",
"406 468 CURVE",
"403 475 LINE",
"398 495 OFFCURVE",
"395 516 OFFCURVE",
"395 538 CURVE SMOOTH",
"395 671 OFFCURVE",
"505 780 OFFCURVE",
"638 780 CURVE SMOOTH",
"772 780 OFFCURVE",
"881 671 OFFCURVE",
"881 538 CURVE SMOOTH",
"881 516 OFFCURVE",
"878 495 OFFCURVE",
"873 475 CURVE",
"870 467 LINE",
"869 463 LINE",
"845 390 OFFCURVE",
"788 332 OFFCURVE",
"716 308 CURVE"
);
},
{
closed = 1;
nodes = (
"1146 642 LINE",
"1153 610 OFFCURVE",
"1156 578 OFFCURVE",
"1156 544 CURVE SMOOTH",
"1156 510 OFFCURVE",
"1153 476 OFFCURVE",
"1146 444 CURVE",
"961 488 LINE",
"964 505 OFFCURVE",
"965 521 OFFCURVE",
"965 538 CURVE SMOOTH",
"965 556 OFFCURVE",
"964 573 OFFCURVE",
"961 590 CURVE"
);
},
{
closed = 1;
nodes = (
"145 577 OFFCURVE",
"148 610 OFFCURVE",
"154 641 CURVE",
"315 591 LINE",
"312 574 OFFCURVE",
"311 556 OFFCURVE",
"311 538 CURVE SMOOTH",
"311 521 OFFCURVE",
"312 504 OFFCURVE",
"315 487 CURVE",
"155 445 LINE",
"148 477 OFFCURVE",
"145 510 OFFCURVE",
"145 544 CURVE SMOOTH"
);
},
{
closed = 1;
nodes = (
"339 406 LINE",
"372 331 OFFCURVE",
"433 270 OFFCURVE",
"509 237 CURVE",
"459 76 LINE",
"330 129 OFFCURVE",
"228 234 OFFCURVE",
"178 364 CURVE"
);
},
{
closed = 1;
nodes = (
"777 241 LINE",
"848 275 OFFCURVE",
"905 334 OFFCURVE",
"937 406 CURVE",
"1122 363 LINE",
"1070 228 OFFCURVE",
"962 121 OFFCURVE",
"826 71 CURVE"
);
},
{
closed = 1;
nodes = (
"590 213 LINE",
"606 211 OFFCURVE",
"622 210 OFFCURVE",
"638 210 CURVE SMOOTH",
"658 210 OFFCURVE",
"677 212 OFFCURVE",
"696 215 CURVE",
"745 48 LINE",
"714 42 OFFCURVE",
"682 39 OFFCURVE",
"650 39 CURVE SMOOTH",
"612 39 OFFCURVE",
"575 43 OFFCURVE",
"540 51 CURVE"
);
}
);
width = 1280;
}
);
note = uniF003;
unicode = F003;
},
{
glyphname = uniF004;
lastChange = "2017-08-02 15:03:29 +0000";
layers = (
{
layerId = "489549A1-39E0-4C35-B6CE-29571649E041";
paths = (
{
closed = 1;
nodes = (
"885 394 OFFCURVE",
"868 376 OFFCURVE",
"868 353 CURVE SMOOTH",
"868 232 LINE",
"866 199 OFFCURVE",
"860 199 OFFCURVE",
"840 199 CURVE SMOOTH",
"650 199 LINE",
"650 792 LINE SMOOTH",
"650 838 OFFCURVE",
"641 874 OFFCURVE",
"588 902 CURVE",
"303 1028 LINE",
"805 1028 LINE SMOOTH",
"827 1028 OFFCURVE",
"835 1024 OFFCURVE",
"838 1022 CURVE",
"840 1019 OFFCURVE",
"846 1010 OFFCURVE",
"846 981 CURVE SMOOTH",
"846 811 LINE SMOOTH",
"846 788 OFFCURVE",
"864 770 OFFCURVE",
"885 770 CURVE SMOOTH",
"908 770 OFFCURVE",
"926 788 OFFCURVE",
"926 811 CURVE SMOOTH",
"926 981 LINE SMOOTH",
"926 1009 OFFCURVE",
"923 1051 OFFCURVE",
"894 1078 CURVE SMOOTH",
"866 1105 OFFCURVE",
"828 1108 OFFCURVE",
"804 1107 CURVE",
"202 1109 LINE SMOOTH",
"202 1109 OFFCURVE",
"198 1108 OFFCURVE",
"196 1108 CURVE",
"98 1095 OFFCURVE",
"87 1024 OFFCURVE",
"88 971 CURVE SMOOTH",
"88 246 LINE",
"86 189 OFFCURVE",
"96 125 OFFCURVE",
"174 84 CURVE SMOOTH",
"248 45 OFFCURVE",
"322 4 OFFCURVE",
"394 -36 CURVE SMOOTH",
"437 -61 OFFCURVE",
"481 -85 OFFCURVE",
"525 -110 CURVE SMOOTH",
"547 -123 OFFCURVE",
"570 -135 OFFCURVE",
"593 -135 CURVE SMOOTH",
"602 -135 OFFCURVE",
"610 -132 OFFCURVE",
"619 -127 CURVE SMOOTH",
"649 -110 OFFCURVE",
"650 -73 OFFCURVE",
"650 -43 CURVE SMOOTH",
"650 120 LINE",
"841 120 LINE SMOOTH",
"887 120 OFFCURVE",
"943 139 OFFCURVE",
"947 229 CURVE",
"947 353 LINE SMOOTH",
"947 376 OFFCURVE",
"929 394 OFFCURVE",
"907 394 CURVE SMOOTH"
);
},
{
closed = 1;
nodes = (
"570 -43 LINE",
"568 -42 OFFCURVE",
"565 -41 OFFCURVE",
"563 -39 CURVE",
"519 -15 OFFCURVE",
"476 9 OFFCURVE",
"432 34 CURVE SMOOTH",
"360 74 OFFCURVE",
"285 116 OFFCURVE",
"211 154 CURVE SMOOTH",
"176 173 OFFCURVE",
"166 193 OFFCURVE",
"166 245 CURVE SMOOTH",
"166 971 LINE SMOOTH",
"166 983 OFFCURVE",
"167 994 OFFCURVE",
"169 1001 CURVE",
"171 999 OFFCURVE",
"174 998 OFFCURVE",
"176 998 CURVE",
"554 830 LINE",
"568 822 OFFCURVE",
"570 821 OFFCURVE",
"570 793 CURVE SMOOTH"
);
},
{
closed = 1;
nodes = (
"1089 733 LINE",
"1075 751 OFFCURVE",
"1050 752 OFFCURVE",
"1033 738 CURVE SMOOTH",
"1017 724 OFFCURVE",
"1015 698 OFFCURVE",
"1029 682 CURVE SMOOTH",
"1094 606 LINE",
"763 606 LINE SMOOTH",
"741 606 OFFCURVE",
"723 588 OFFCURVE",
"723 567 CURVE SMOOTH",
"723 544 OFFCURVE",
"741 525 OFFCURVE",
"763 525 CURVE SMOOTH",
"1099 525 LINE",
"1033 466 LINE",
"1016 452 OFFCURVE",
"1015 426 OFFCURVE",
"1030 409 CURVE",
"1038 401 OFFCURVE",
"1048 396 OFFCURVE",
"1059 396 CURVE SMOOTH",
"1069 396 OFFCURVE",
"1079 400 OFFCURVE",
"1086 407 CURVE",
"1157 471 LINE SMOOTH",
"1236 542 OFFCURVE",
"1205 599 OFFCURVE",
"1160 652 CURVE SMOOTH"
);
}
);
width = 1280;
}
);
note = uniF004;
unicode = F004;
},
{
glyphname = uniF005;
lastChange = "2017-08-02 15:03:29 +0000";
layers = (
{
layerId = "489549A1-39E0-4C35-B6CE-29571649E041";
paths = (
{
closed = 1;
nodes = (
"294 -86 OFFCURVE",
"6 201 OFFCURVE",
"6 554 CURVE SMOOTH",
"6 906 OFFCURVE",
"294 1194 OFFCURVE",
"646 1194 CURVE SMOOTH",
"999 1194 OFFCURVE",
"1286 906 OFFCURVE",
"1286 554 CURVE SMOOTH",
"1286 201 OFFCURVE",
"999 -86 OFFCURVE",
"646 -86 CURVE SMOOTH"
);
},
{
closed = 1;
nodes = (
"338 1112 OFFCURVE",
"88 862 OFFCURVE",
"88 554 CURVE SMOOTH",
"88 246 OFFCURVE",
"338 -5 OFFCURVE",
"646 -5 CURVE SMOOTH",
"954 -5 OFFCURVE",
"1205 246 OFFCURVE",
"1205 554 CURVE SMOOTH",
"1205 862 OFFCURVE",
"954 1112 OFFCURVE",
"646 1112 CURVE SMOOTH"
);
},
{
closed = 1;
nodes = (
"624 766 OFFCURVE",
"606 784 OFFCURVE",
"606 807 CURVE SMOOTH",
"606 888 LINE SMOOTH",
"606 911 OFFCURVE",
"624 929 OFFCURVE",
"646 929 CURVE SMOOTH",
"669 929 OFFCURVE",
"687 911 OFFCURVE",
"687 888 CURVE SMOOTH",
"687 807 LINE SMOOTH",
"687 784 OFFCURVE",
"669 766 OFFCURVE",
"646 766 CURVE SMOOTH"
);
},
{
closed = 1;
nodes = (
"624 154 OFFCURVE",
"606 172 OFFCURVE",
"606 194 CURVE SMOOTH",
"606 645 LINE SMOOTH",
"606 668 OFFCURVE",
"624 686 OFFCURVE",
"646 686 CURVE SMOOTH",
"669 686 OFFCURVE",
"687 668 OFFCURVE",
"687 645 CURVE SMOOTH",
"687 194 LINE SMOOTH",
"687 172 OFFCURVE",
"669 154 OFFCURVE",
"646 154 CURVE SMOOTH"
);
}
);
width = 1280;
}
);
note = uniF005;
unicode = F005;
},
{
glyphname = uniF006;
lastChange = "2017-08-02 15:03:29 +0000";
layers = (
{
layerId = "489549A1-39E0-4C35-B6CE-29571649E041";
paths = (
{
closed = 1;
nodes = (
"294 -84 OFFCURVE",
"7 203 OFFCURVE",
"7 556 CURVE SMOOTH",
"7 909 OFFCURVE",
"294 1196 OFFCURVE",
"647 1196 CURVE SMOOTH",
"1000 1196 OFFCURVE",
"1287 909 OFFCURVE",
"1287 556 CURVE SMOOTH",
"1287 203 OFFCURVE",
"1000 -84 OFFCURVE",
"647 -84 CURVE SMOOTH"
);
},
{
closed = 1;
nodes = (
"339 1115 OFFCURVE",
"88 864 OFFCURVE",
"88 556 CURVE SMOOTH",
"88 248 OFFCURVE",
"339 -2 OFFCURVE",
"647 -2 CURVE SMOOTH",
"955 -2 OFFCURVE",
"1206 248 OFFCURVE",
"1206 556 CURVE SMOOTH",
"1206 864 OFFCURVE",
"955 1115 OFFCURVE",
"647 1115 CURVE SMOOTH"
);
},
{
closed = 1;
nodes = (
"558 301 OFFCURVE",
"550 303 OFFCURVE",
"543 308 CURVE SMOOTH",
"305 476 LINE SMOOTH",
"287 488 OFFCURVE",
"283 514 OFFCURVE",
"296 532 CURVE",
"308 550 OFFCURVE",
"334 555 OFFCURVE",
"352 542 CURVE SMOOTH",
"560 396 LINE",
"916 802 LINE SMOOTH",
"931 819 OFFCURVE",
"956 821 OFFCURVE",
"973 806 CURVE SMOOTH",
"990 791 OFFCURVE",
"992 766 OFFCURVE",
"977 749 CURVE SMOOTH",
"597 315 LINE SMOOTH",
"589 306 OFFCURVE",
"578 301 OFFCURVE",
"566 301 CURVE SMOOTH"
);
}
);
width = 1280;
}
);
note = uniF006;
unicode = F006;
},
{
glyphname = uniF007;
lastChange = "2017-08-02 15:03:29 +0000";
layers = (
{
layerId = "489549A1-39E0-4C35-B6CE-29571649E041";
paths = (
{
closed = 1;
nodes = (
"976 1079 OFFCURVE",
"823 1142 OFFCURVE",
"660 1142 CURVE SMOOTH",
"497 1142 OFFCURVE",
"343 1079 OFFCURVE",
"228 963 CURVE SMOOTH",
"113 848 OFFCURVE",
"49 695 OFFCURVE",
"49 532 CURVE SMOOTH",
"49 369 OFFCURVE",
"113 215 OFFCURVE",
"228 100 CURVE SMOOTH",
"343 -15 OFFCURVE",
"497 -79 OFFCURVE",
"660 -79 CURVE SMOOTH",
"823 -79 OFFCURVE",
"976 -15 OFFCURVE",
"1091 100 CURVE SMOOTH",
"1329 338 OFFCURVE",
"1329 725 OFFCURVE",
"1091 963 CURVE SMOOTH"
);
},
{
closed = 1;
nodes = (
"936 54 OFFCURVE",
"802 -1 OFFCURVE",
"660 -1 CURVE SMOOTH",
"517 -1 OFFCURVE",
"383 54 OFFCURVE",
"283 155 CURVE SMOOTH",
"182 256 OFFCURVE",
"127 389 OFFCURVE",
"127 532 CURVE SMOOTH",
"127 674 OFFCURVE",
"182 808 OFFCURVE",
"283 909 CURVE SMOOTH",
"383 1009 OFFCURVE",
"517 1065 OFFCURVE",
"660 1065 CURVE SMOOTH",
"802 1065 OFFCURVE",
"936 1009 OFFCURVE",
"1036 909 CURVE SMOOTH",
"1244 701 OFFCURVE",
"1244 363 OFFCURVE",
"1036 155 CURVE SMOOTH"
);
},
{
closed = 1;
nodes = (
"850 753 OFFCURVE",
"826 753 OFFCURVE",
"810 737 CURVE SMOOTH",
"660 587 LINE",
"509 737 LINE",
"494 753 OFFCURVE",
"469 753 OFFCURVE",
"454 737 CURVE SMOOTH",
"439 722 OFFCURVE",
"439 698 OFFCURVE",
"454 683 CURVE SMOOTH",
"605 532 LINE",
"454 381 LINE SMOOTH",
"439 366 OFFCURVE",
"439 341 OFFCURVE",
"454 326 CURVE",
"462 319 OFFCURVE",
"471 315 OFFCURVE",
"481 315 CURVE SMOOTH",
"491 315 OFFCURVE",
"501 319 OFFCURVE",
"509 326 CURVE",
"660 477 LINE",
"810 326 LINE",
"818 319 OFFCURVE",
"828 315 OFFCURVE",
"838 315 CURVE SMOOTH",
"848 315 OFFCURVE",
"858 319 OFFCURVE",
"865 326 CURVE SMOOTH",
"880 341 OFFCURVE",
"880 366 OFFCURVE",
"865 381 CURVE SMOOTH",
"714 532 LINE",
"865 683 LINE SMOOTH",
"880 698 OFFCURVE",
"880 722 OFFCURVE",
"865 737 CURVE SMOOTH"
);
}
);
width = 1280;
}
);
note = uniF007;
unicode = F007;
},
{
glyphname = uniF008;
lastChange = "2017-08-02 15:03:29 +0000";
layers = (
{
layerId = "489549A1-39E0-4C35-B6CE-29571649E041";
paths = (
{
closed = 1;
nodes = (
"284 1188 OFFCURVE",
"-3 901 OFFCURVE",
"-3 548 CURVE SMOOTH",
"-3 196 OFFCURVE",
"284 -92 OFFCURVE",
"637 -92 CURVE SMOOTH",
"990 -92 OFFCURVE",
"1277 196 OFFCURVE",
"1277 548 CURVE SMOOTH",
"1277 901 OFFCURVE",
"990 1188 OFFCURVE",
"637 1188 CURVE SMOOTH"
);
},
{
closed = 1;
nodes = (
"329 -10 OFFCURVE",
"79 240 OFFCURVE",
"79 548 CURVE SMOOTH",
"79 856 OFFCURVE",
"329 1107 OFFCURVE",
"637 1107 CURVE SMOOTH",
"945 1107 OFFCURVE",
"1196 856 OFFCURVE",
"1196 548 CURVE SMOOTH",
"1196 240 OFFCURVE",
"945 -10 OFFCURVE",
"637 -10 CURVE SMOOTH"
);
},
{
closed = 1;
nodes = (
"678 589 LINE",
"678 813 LINE SMOOTH",
"678 835 OFFCURVE",
"660 853 OFFCURVE",
"637 853 CURVE SMOOTH",
"615 853 OFFCURVE",
"597 835 OFFCURVE",
"597 813 CURVE SMOOTH",
"597 589 LINE",
"373 589 LINE SMOOTH",
"350 589 OFFCURVE",
"332 571 OFFCURVE",
"332 548 CURVE SMOOTH",
"332 526 OFFCURVE",
"350 508 OFFCURVE",
"373 508 CURVE SMOOTH",
"597 508 LINE",
"597 284 LINE SMOOTH",
"597 262 OFFCURVE",
"615 243 OFFCURVE",
"637 243 CURVE SMOOTH",
"660 243 OFFCURVE",
"678 262 OFFCURVE",
"678 284 CURVE SMOOTH",
"678 508 LINE",
"901 508 LINE SMOOTH",
"924 508 OFFCURVE",
"942 526 OFFCURVE",
"942 548 CURVE SMOOTH",
"942 571 OFFCURVE",
"924 589 OFFCURVE",
"901 589 CURVE SMOOTH"
);
}
);
width = 1280;
}
);
note = uniF008;
unicode = F008;
},
{
glyphname = uniF009;
lastChange = "2017-08-02 15:03:29 +0000";
layers = (
{
layerId = "489549A1-39E0-4C35-B6CE-29571649E041";
paths = (
{
closed = 1;
nodes = (
"1091 135 OFFCURVE",
"1082 147 OFFCURVE",
"1073 156 CURVE",
"1073 172 OFFCURVE",
"1064 187 OFFCURVE",
"1049 193 CURVE SMOOTH",
"1001 213 OFFCURVE",
"998 261 OFFCURVE",
"998 338 CURVE SMOOTH",
"998 359 LINE",
"997 412 OFFCURVE",
"1003 430 OFFCURVE",
"1011 457 CURVE SMOOTH",
"1017 477 OFFCURVE",
"1025 502 OFFCURVE",
"1031 544 CURVE",
"1032 548 OFFCURVE",
"1034 553 OFFCURVE",
"1035 558 CURVE",
"1039 574 OFFCURVE",
"1045 596 OFFCURVE",
"1039 621 CURVE",
"1045 639 LINE SMOOTH",
"1051 659 OFFCURVE",
"1057 681 OFFCURVE",
"1058 705 CURVE SMOOTH",
"1065 865 OFFCURVE",
"1019 990 OFFCURVE",
"918 1087 CURVE SMOOTH",
"840 1162 OFFCURVE",
"738 1202 OFFCURVE",
"629 1200 CURVE SMOOTH",
"521 1198 OFFCURVE",
"422 1153 OFFCURVE",
"348 1075 CURVE SMOOTH",
"250 973 OFFCURVE",
"207 841 OFFCURVE",
"225 695 CURVE SMOOTH",
"231 644 OFFCURVE",
"240 593 OFFCURVE",
"249 544 CURVE SMOOTH",
"256 506 OFFCURVE",
"263 467 OFFCURVE",
"268 428 CURVE SMOOTH",
"272 401 OFFCURVE",
"277 382 OFFCURVE",
"281 366 CURVE SMOOTH",
"288 341 OFFCURVE",
"291 328 OFFCURVE",
"285 285 CURVE SMOOTH",
"281 254 OFFCURVE",
"272 237 OFFCURVE",
"252 217 CURVE",
"245 214 OFFCURVE",
"238 209 OFFCURVE",
"234 202 CURVE",
"231 198 LINE",
"231 197 OFFCURVE",
"230 196 OFFCURVE",
"229 195 CURVE",
"229 194 OFFCURVE",
"228 194 OFFCURVE",
"227 193 CURVE",
"220 187 OFFCURVE",
"216 180 OFFCURVE",
"215 172 CURVE",
"212 167 OFFCURVE",
"208 161 OFFCURVE",
"203 155 CURVE",
"158 89 OFFCURVE",
"142 24 OFFCURVE",
"153 -46 CURVE SMOOTH",
"156 -64 OFFCURVE",
"171 -78 OFFCURVE",
"190 -78 CURVE SMOOTH",
"1090 -78 LINE SMOOTH",
"1108 -78 OFFCURVE",
"1122 -65 OFFCURVE",
"1126 -47 CURVE SMOOTH",
"1138 9 OFFCURVE",
"1128 66 OFFCURVE",
"1099 121 CURVE SMOOTH"
);
},
{
closed = 1;
nodes = (
"463 1086 OFFCURVE",
"543 1122 OFFCURVE",
"631 1124 CURVE SMOOTH",
"719 1125 OFFCURVE",
"801 1093 OFFCURVE",
"865 1033 CURVE SMOOTH",
"949 952 OFFCURVE",
"988 845 OFFCURVE",
"982 708 CURVE",
"982 696 OFFCURVE",
"978 683 OFFCURVE",
"974 669 CURVE",
"955 695 OFFCURVE",
"943 721 OFFCURVE",
"937 735 CURVE",
"930 749 OFFCURVE",
"925 760 OFFCURVE",
"912 767 CURVE",
"909 768 OFFCURVE",
"905 770 OFFCURVE",
"902 770 CURVE",
"860 778 OFFCURVE",
"838 833 OFFCURVE",
"816 886 CURVE SMOOTH",
"811 898 LINE SMOOTH",
"804 914 OFFCURVE",
"789 923 OFFCURVE",
"773 922 CURVE",
"767 922 OFFCURVE",
"761 920 OFFCURVE",
"755 917 CURVE",
"694 883 OFFCURVE",
"676 823 OFFCURVE",
"664 778 CURVE",
"595 792 OFFCURVE",
"547 826 OFFCURVE",
"516 881 CURVE",
"514 885 OFFCURVE",
"512 889 OFFCURVE",
"509 892 CURVE",
"514 908 OFFCURVE",
"508 927 OFFCURVE",
"493 936 CURVE SMOOTH",
"476 947 OFFCURVE",
"452 942 OFFCURVE",
"441 924 CURVE",
"438 918 OFFCURVE",
"434 912 OFFCURVE",
"430 905 CURVE SMOOTH",
"424 894 OFFCURVE",
"417 882 OFFCURVE",
"410 874 CURVE SMOOTH",
"378 836 OFFCURVE",
"356 793 OFFCURVE",
"337 748 CURVE",
"329 747 OFFCURVE",
"320 745 OFFCURVE",
"310 740 CURVE SMOOTH",
"306 738 OFFCURVE",
"302 736 OFFCURVE",
"298 733 CURVE",
"291 844 OFFCURVE",
"326 943 OFFCURVE",
"403 1023 CURVE SMOOTH"
);
},
{
closed = 1;
nodes = (
"507 758 OFFCURVE",
"570 719 OFFCURVE",
"653 703 CURVE SMOOTH",
"659 702 OFFCURVE",
"667 700 OFFCURVE",
"676 700 CURVE SMOOTH",
"698 700 OFFCURVE",
"725 709 OFFCURVE",
"737 753 CURVE SMOOTH",
"744 780 OFFCURVE",
"751 803 OFFCURVE",
"761 820 CURVE",
"783 771 OFFCURVE",
"814 720 OFFCURVE",
"868 701 CURVE",
"878 680 OFFCURVE",
"895 643 OFFCURVE",
"925 606 CURVE",
"923 604 OFFCURVE",
"921 602 OFFCURVE",
"919 601 CURVE",
"869 571 OFFCURVE",
"848 525 OFFCURVE",
"829 484 CURVE",
"822 467 OFFCURVE",
"814 450 OFFCURVE",
"803 437 CURVE",
"783 410 LINE SMOOTH",
"766 388 OFFCURVE",
"749 363 OFFCURVE",
"730 354 CURVE",
"686 331 OFFCURVE",
"649 325 OFFCURVE",
"613 336 CURVE",
"601 338 OFFCURVE",
"563 348 OFFCURVE",
"540 368 CURVE",
"538 370 OFFCURVE",
"537 372 OFFCURVE",
"535 373 CURVE",
"492 407 OFFCURVE",
"461 453 OFFCURVE",
"437 513 CURVE SMOOTH",
"428 536 OFFCURVE",
"416 567 OFFCURVE",
"378 585 CURVE",
"369 590 OFFCURVE",
"357 602 OFFCURVE",
"346 619 CURVE",
"338 630 OFFCURVE",
"335 644 OFFCURVE",
"337 657 CURVE",
"345 650 OFFCURVE",
"355 647 OFFCURVE",
"365 648 CURVE",
"386 651 OFFCURVE",
"401 670 OFFCURVE",
"399 691 CURVE",
"399 693 OFFCURVE",
"398 695 OFFCURVE",
"398 697 CURVE",
"417 743 OFFCURVE",
"436 785 OFFCURVE",
"464 821 CURVE"
);
},
{
closed = 1;
nodes = (
"833 275 OFFCURVE",
"816 283 OFFCURVE",
"805 314 CURVE",
"805 315 OFFCURVE",
"805 315 OFFCURVE",
"804 316 CURVE",
"819 332 OFFCURVE",
"832 349 OFFCURVE",
"844 366 CURVE SMOOTH",
"850 374 OFFCURVE",
"856 383 OFFCURVE",
"863 391 CURVE SMOOTH",
"879 410 OFFCURVE",
"890 432 OFFCURVE",
"899 453 CURVE SMOOTH",
"914 487 OFFCURVE",
"926 513 OFFCURVE",
"952 531 CURVE",
"947 509 OFFCURVE",
"942 494 OFFCURVE",
"938 480 CURVE SMOOTH",
"929 449 OFFCURVE",
"921 423 OFFCURVE",
"921 359 CURVE SMOOTH",
"921 338 LINE SMOOTH",
"921 307 OFFCURVE",
"921 272 OFFCURVE",
"928 238 CURVE",
"909 249 OFFCURVE",
"890 256 OFFCURVE",
"873 262 CURVE SMOOTH"
);
},
{
closed = 1;
nodes = (
"361 275 LINE",
"369 330 OFFCURVE",
"364 353 OFFCURVE",
"355 386 CURVE SMOOTH",
"351 400 OFFCURVE",
"347 415 OFFCURVE",
"344 439 CURVE SMOOTH",
"340 469 OFFCURVE",
"335 497 OFFCURVE",
"329 526 CURVE",
"345 517 LINE",
"355 512 OFFCURVE",
"358 505 OFFCURVE",
"366 484 CURVE SMOOTH",
"391 422 OFFCURVE",
"426 370 OFFCURVE",
"471 329 CURVE",
"462 320 OFFCURVE",
"447 308 OFFCURVE",
"419 288 CURVE SMOOTH",
"399 273 OFFCURVE",
"382 267 OFFCURVE",
"358 259 CURVE"
);
},
{
closed = 1;
nodes = (
"653 27 OFFCURVE",
"647 19 OFFCURVE",
"641 11 CURVE",
"623 31 LINE",
"581 74 OFFCURVE",
"539 102 OFFCURVE",
"499 130 CURVE SMOOTH",
"469 151 OFFCURVE",
"440 171 OFFCURVE",
"410 197 CURVE",
"428 204 OFFCURVE",
"445 212 OFFCURVE",
"464 226 CURVE SMOOTH",
"494 248 OFFCURVE",
"517 266 OFFCURVE",
"532 283 CURVE",
"564 268 OFFCURVE",
"593 262 OFFCURVE",
"595 262 CURVE",
"639 248 OFFCURVE",
"686 252 OFFCURVE",
"737 273 CURVE",
"738 273 OFFCURVE",
"738 272 OFFCURVE",
"739 272 CURVE",
"739 271 OFFCURVE",
"740 271 OFFCURVE",
"741 271 CURVE",
"767 218 OFFCURVE",
"811 202 OFFCURVE",
"848 190 CURVE SMOOTH",
"851 189 OFFCURVE",
"854 188 OFFCURVE",
"857 186 CURVE",
"833 166 OFFCURVE",
"808 149 OFFCURVE",
"783 131 CURVE SMOOTH",
"743 104 OFFCURVE",
"702 77 OFFCURVE",
"661 35 CURVE SMOOTH"
);
},
{
closed = 1;
nodes = (
"277 127 OFFCURVE",
"285 139 OFFCURVE",
"291 148 CURVE",
"303 160 LINE",
"304 160 LINE",
"313 164 OFFCURVE",
"322 167 OFFCURVE",
"330 170 CURVE",
"331 168 OFFCURVE",
"332 167 OFFCURVE",
"334 165 CURVE SMOOTH",
"376 123 OFFCURVE",
"417 94 OFFCURVE",
"457 68 CURVE",
"487 46 OFFCURVE",
"517 25 OFFCURVE",
"546 -1 CURVE",
"225 -1 LINE",
"225 37 OFFCURVE",
"239 74 OFFCURVE",
"266 112 CURVE SMOOTH"
);
},
{
closed = 1;
nodes = (
"734 -1 LINE",
"764 27 OFFCURVE",
"794 48 OFFCURVE",
"825 70 CURVE SMOOTH",
"858 92 OFFCURVE",
"893 115 OFFCURVE",
"928 148 CURVE",
"945 138 OFFCURVE",
"961 132 OFFCURVE",
"975 126 CURVE SMOOTH",
"1002 115 OFFCURVE",
"1019 109 OFFCURVE",
"1032 84 CURVE",
"1048 56 OFFCURVE",
"1056 27 OFFCURVE",
"1056 -1 CURVE"
);
}
);
width = 1280;
}
);
note = uniF009;
unicode = F009;
},
{
glyphname = uniF011;
lastChange = "2017-08-02 15:03:29 +0000";
layers = (
{
layerId = "489549A1-39E0-4C35-B6CE-29571649E041";
paths = (
{
closed = 1;
nodes = (
"1084 189 OFFCURVE",
"1030 246 OFFCURVE",
"950 306 CURVE",
"944 310 LINE",
"916 332 OFFCURVE",
"889 351 OFFCURVE",
"874 379 CURVE SMOOTH",
"870 386 OFFCURVE",
"864 391 OFFCURVE",
"859 396 CURVE",
"848 456 LINE",
"874 483 OFFCURVE",
"896 517 OFFCURVE",
"915 556 CURVE SMOOTH",
"928 581 OFFCURVE",
"935 594 OFFCURVE",
"952 600 CURVE",
"974 610 OFFCURVE",
"989 628 OFFCURVE",
"1002 642 CURVE",
"1005 646 LINE",
"1031 675 OFFCURVE",
"1041 711 OFFCURVE",
"1032 743 CURVE SMOOTH",
"1025 769 OFFCURVE",
"1008 791 OFFCURVE",
"982 805 CURVE",
"994 882 OFFCURVE",
"996 966 OFFCURVE",
"955 1045 CURVE SMOOTH",
"914 1121 OFFCURVE",
"841 1167 OFFCURVE",
"730 1185 CURVE SMOOTH",
"645 1199 OFFCURVE",
"563 1195 OFFCURVE",
"484 1172 CURVE SMOOTH",
"371 1139 OFFCURVE",
"305 1074 OFFCURVE",
"284 974 CURVE SMOOTH",
"273 919 OFFCURVE",
"280 869 OFFCURVE",
"288 822 CURVE",
"289 818 OFFCURVE",
"290 814 OFFCURVE",
"290 810 CURVE",
"268 801 OFFCURVE",
"250 783 OFFCURVE",
"241 760 CURVE",
"223 723 OFFCURVE",
"233 676 OFFCURVE",
"263 643 CURVE SMOOTH",
"276 629 OFFCURVE",
"291 618 OFFCURVE",
"305 608 CURVE SMOOTH",
"312 603 OFFCURVE",
"319 598 OFFCURVE",
"325 593 CURVE SMOOTH",
"331 588 LINE",
"338 582 LINE",
"360 532 OFFCURVE",
"386 491 OFFCURVE",
"419 457 CURVE",
"417 449 OFFCURVE",
"415 441 OFFCURVE",
"414 432 CURVE SMOOTH",
"409 391 OFFCURVE",
"386 356 OFFCURVE",
"343 325 CURVE SMOOTH",
"271 274 OFFCURVE",
"190 207 OFFCURVE",
"136 108 CURVE SMOOTH",
"108 55 OFFCURVE",
"97 3 OFFCURVE",
"103 -47 CURVE SMOOTH",
"105 -67 OFFCURVE",
"121 -81 OFFCURVE",
"141 -81 CURVE SMOOTH",
"1129 -81 LINE SMOOTH",
"1148 -81 OFFCURVE",
"1165 -66 OFFCURVE",
"1166 -45 CURVE",
"1171 12 OFFCURVE",
"1156 66 OFFCURVE",
"1121 124 CURVE SMOOTH"
);
},
{
closed = 1;
nodes = (
"374 1031 OFFCURVE",
"419 1074 OFFCURVE",
"506 1099 CURVE SMOOTH",
"572 1119 OFFCURVE",
"644 1122 OFFCURVE",
"717 1110 CURVE SMOOTH",
"804 1096 OFFCURVE",
"858 1064 OFFCURVE",
"887 1009 CURVE SMOOTH",
"924 940 OFFCURVE",
"916 860 OFFCURVE",
"903 785 CURVE",
"876 814 OFFCURVE",
"844 842 OFFCURVE",
"803 863 CURVE SMOOTH",
"734 901 OFFCURVE",
"653 931 OFFCURVE",
"556 956 CURVE SMOOTH",
"545 959 OFFCURVE",
"533 961 OFFCURVE",
"521 963 CURVE",
"512 965 OFFCURVE",
"503 966 OFFCURVE",
"494 968 CURVE SMOOTH",
"440 981 OFFCURVE",
"424 976 OFFCURVE",
"392 929 CURVE SMOOTH",
"376 905 OFFCURVE",
"367 880 OFFCURVE",
"360 855 CURVE",
"353 893 OFFCURVE",
"351 925 OFFCURVE",
"358 958 CURVE SMOOTH"
);
},
{
closed = 1;
nodes = (
"374 652 LINE SMOOTH",
"372 654 OFFCURVE",
"369 655 OFFCURVE",
"367 657 CURVE",
"373 655 OFFCURVE",
"380 655 OFFCURVE",
"387 657 CURVE",
"407 661 OFFCURVE",
"419 683 OFFCURVE",
"415 702 CURVE",
"414 705 OFFCURVE",
"414 709 OFFCURVE",
"412 711 CURVE",
"412 717 OFFCURVE",
"411 725 OFFCURVE",
"408 733 CURVE",
"412 742 OFFCURVE",
"415 750 OFFCURVE",
"417 759 CURVE SMOOTH",
"420 771 OFFCURVE",
"422 782 OFFCURVE",
"424 792 CURVE SMOOTH",
"431 827 OFFCURVE",
"436 859 OFFCURVE",
"456 888 CURVE",
"459 892 OFFCURVE",
"462 895 OFFCURVE",
"463 898 CURVE",
"467 898 OFFCURVE",
"472 896 OFFCURVE",
"477 894 CURVE",
"487 892 OFFCURVE",
"497 890 OFFCURVE",
"507 889 CURVE",
"538 883 LINE",
"629 859 OFFCURVE",
"702 831 OFFCURVE",
"768 797 CURVE SMOOTH",
"813 772 OFFCURVE",
"848 735 OFFCURVE",
"876 700 CURVE",
"877 694 OFFCURVE",
"878 688 OFFCURVE",
"880 682 CURVE",
"883 671 OFFCURVE",
"890 663 OFFCURVE",
"900 659 CURVE",
"871 639 OFFCURVE",
"858 611 OFFCURVE",
"847 589 CURVE SMOOTH",
"816 527 OFFCURVE",
"778 484 OFFCURVE",
"728 458 CURVE SMOOTH",
"653 420 OFFCURVE",
"582 426 OFFCURVE",
"511 477 CURVE SMOOTH",
"468 509 OFFCURVE",
"434 553 OFFCURVE",
"408 612 CURVE SMOOTH",
"401 629 OFFCURVE",
"388 640 OFFCURVE",
"378 648 CURVE"
);
},
{
closed = 1;
nodes = (
"307 707 OFFCURVE",
"306 723 OFFCURVE",
"310 731 CURVE",
"311 732 OFFCURVE",
"312 734 OFFCURVE",
"314 736 CURVE",
"320 726 OFFCURVE",
"327 716 OFFCURVE",
"336 706 CURVE",
"337 704 OFFCURVE",
"337 703 OFFCURVE",
"337 701 CURVE",
"338 695 OFFCURVE",
"339 689 OFFCURVE",
"341 684 CURVE",
"342 679 OFFCURVE",
"344 675 OFFCURVE",
"347 671 CURVE",
"336 679 OFFCURVE",
"327 687 OFFCURVE",
"319 695 CURVE SMOOTH"
);
},
{
closed = 1;
nodes = (
"953 703 OFFCURVE",
"952 704 OFFCURVE",
"952 705 CURVE SMOOTH",
"952 707 OFFCURVE",
"955 713 OFFCURVE",
"959 720 CURVE",
"959 713 OFFCURVE",
"956 707 OFFCURVE",
"953 702 CURVE"
);
},
{
closed = 1;
nodes = (
"684 -4 LINE",
"594 -4 LINE",
"593 -1 OFFCURVE",
"591 2 OFFCURVE",
"589 5 CURVE",
"581 14 LINE",
"616 248 LINE",
"619 260 OFFCURVE",
"615 272 OFFCURVE",
"607 280 CURVE",
"505 391 LINE",
"547 369 OFFCURVE",
"589 357 OFFCURVE",
"633 357 CURVE SMOOTH",
"676 357 OFFCURVE",
"720 368 OFFCURVE",
"763 391 CURVE SMOOTH",
"769 394 OFFCURVE",
"775 397 OFFCURVE",
"780 401 CURVE",
"781 397 LINE",
"649 298 LINE",
"637 290 OFFCURVE",
"630 276 OFFCURVE",
"634 261 CURVE",
"678 40 LINE",
"679 31 OFFCURVE",
"684 24 OFFCURVE",
"689 18 CURVE"
);
},
{
closed = 1;
nodes = (
"762 -4 LINE",
"770 27 LINE SMOOTH",
"785 90 OFFCURVE",
"801 152 OFFCURVE",
"816 215 CURVE SMOOTH",
"822 237 OFFCURVE",
"826 261 OFFCURVE",
"830 284 CURVE SMOOTH",
"834 305 LINE",
"853 283 OFFCURVE",
"876 266 OFFCURVE",
"898 250 CURVE",
"904 245 LINE",
"976 191 OFFCURVE",
"1023 142 OFFCURVE",
"1056 86 CURVE SMOOTH",
"1075 55 OFFCURVE",
"1086 25 OFFCURVE",
"1089 -4 CURVE"
);
},
{
closed = 1;
nodes = (
"249 157 OFFCURVE",
"322 217 OFFCURVE",
"387 264 CURVE SMOOTH",
"404 276 OFFCURVE",
"419 289 OFFCURVE",
"432 303 CURVE",
"438 272 LINE",
"445 243 OFFCURVE",
"451 212 OFFCURVE",
"458 183 CURVE SMOOTH",
"473 121 OFFCURVE",
"488 59 OFFCURVE",
"504 -3 CURVE",
"504 -4 LINE",
"177 -4 LINE",
"181 19 OFFCURVE",
"188 45 OFFCURVE",
"203 72 CURVE SMOOTH"
);
},
{
closed = 1;
nodes = (
"737 213 OFFCURVE",
"733 194 OFFCURVE",
"728 175 CURVE",
"713 252 LINE",
"752 281 LINE",
"749 265 OFFCURVE",
"747 248 OFFCURVE",
"742 232 CURVE"
);
},
{
closed = 1;
nodes = (
"527 222 OFFCURVE",
"522 243 OFFCURVE",
"518 264 CURVE",
"539 241 LINE",
"533 199 LINE",
"532 199 OFFCURVE",
"532 200 OFFCURVE",
"532 201 CURVE"
);
}
);
width = 1280;
}
);
note = uniF011;
unicode = F011;
},
{
glyphname = uniF012;
lastChange = "2017-08-02 15:03:29 +0000";
layers = (
{
layerId = "489549A1-39E0-4C35-B6CE-29571649E041";
paths = (
{
closed = 1;
nodes = (
"1119 70 OFFCURVE",
"1091 95 OFFCURVE",
"1062 119 CURVE SMOOTH",
"1053 126 OFFCURVE",
"1044 133 OFFCURVE",
"1034 143 CURVE",
"1012 163 OFFCURVE",
"990 183 OFFCURVE",
"968 202 CURVE",
"960 210 LINE",
"1017 277 OFFCURVE",
"1051 330 OFFCURVE",
"1058 436 CURVE",
"1059 445 LINE",
"1065 533 OFFCURVE",
"1071 624 OFFCURVE",
"1071 714 CURVE",
"1070 830 OFFCURVE",
"1047 927 OFFCURVE",
"1001 1011 CURVE SMOOTH",
"937 1130 OFFCURVE",
"832 1193 OFFCURVE",
"690 1200 CURVE SMOOTH",
"630 1203 OFFCURVE",
"559 1202 OFFCURVE",
"488 1172 CURVE SMOOTH",
"398 1135 OFFCURVE",
"332 1071 OFFCURVE",
"292 982 CURVE SMOOTH",
"219 818 OFFCURVE",
"200 635 OFFCURVE",
"233 423 CURVE SMOOTH",
"243 353 OFFCURVE",
"276 318 OFFCURVE",
"307 283 CURVE SMOOTH",
"321 268 OFFCURVE",
"335 253 OFFCURVE",
"349 233 CURVE",
"338 228 OFFCURVE",
"326 224 OFFCURVE",
"313 219 CURVE SMOOTH",
"285 209 OFFCURVE",
"253 198 OFFCURVE",
"223 167 CURVE SMOOTH",
"187 129 OFFCURVE",
"166 77 OFFCURVE",
"159 9 CURVE SMOOTH",
"157 -6 OFFCURVE",
"154 -35 OFFCURVE",
"174 -56 CURVE SMOOTH",
"191 -75 OFFCURVE",
"215 -77 OFFCURVE",
"238 -77 CURVE SMOOTH",
"1046 -77 LINE SMOOTH",
"1069 -77 OFFCURVE",
"1091 -77 OFFCURVE",
"1108 -60 CURVE",
"1124 -42 OFFCURVE",
"1123 -21 OFFCURVE",
"1122 3 CURVE SMOOTH"
);
},
{
closed = 1;
nodes = (
"395 1021 OFFCURVE",
"446 1071 OFFCURVE",
"517 1100 CURVE SMOOTH",
"575 1124 OFFCURVE",
"635 1125 OFFCURVE",
"687 1123 CURVE SMOOTH",
"801 1118 OFFCURVE",
"881 1069 OFFCURVE",
"933 974 CURVE SMOOTH",
"973 900 OFFCURVE",
"993 815 OFFCURVE",
"993 714 CURVE SMOOTH",
"994 626 OFFCURVE",
"988 537 OFFCURVE",
"981 450 CURVE",
"981 442 LINE",
"976 371 OFFCURVE",
"959 334 OFFCURVE",
"919 283 CURVE",
"920 329 LINE SMOOTH",
"921 377 OFFCURVE",
"922 416 OFFCURVE",
"922 479 CURVE SMOOTH",
"922 485 OFFCURVE",
"919 516 OFFCURVE",
"916 541 CURVE",
"920 563 OFFCURVE",
"921 586 OFFCURVE",
"919 611 CURVE SMOOTH",
"916 661 OFFCURVE",
"912 711 OFFCURVE",
"910 762 CURVE SMOOTH",
"906 820 LINE",
"907 822 OFFCURVE",
"907 825 OFFCURVE",
"907 827 CURVE SMOOTH",
"907 897 LINE SMOOTH",
"907 918 OFFCURVE",
"889 935 OFFCURVE",
"868 935 CURVE SMOOTH",
"846 935 OFFCURVE",
"829 918 OFFCURVE",
"829 897 CURVE SMOOTH",
"829 835 LINE",
"799 835 LINE SMOOTH",
"758 835 OFFCURVE",
"714 834 OFFCURVE",
"687 833 CURVE",
"685 833 OFFCURVE",
"682 833 OFFCURVE",
"680 832 CURVE",
"677 870 LINE SMOOTH",
"676 891 OFFCURVE",
"658 905 OFFCURVE",
"639 905 CURVE",
"634 909 OFFCURVE",
"629 912 OFFCURVE",
"623 914 CURVE",
"602 920 OFFCURVE",
"581 908 OFFCURVE",
"575 888 CURVE SMOOTH",
"557 826 LINE",
"538 824 LINE",
"455 818 LINE",
"454 833 OFFCURVE",
"445 846 OFFCURVE",
"431 852 CURVE",
"410 859 OFFCURVE",
"388 849 OFFCURVE",
"380 830 CURVE",
"375 816 OFFCURVE",
"367 794 OFFCURVE",
"374 773 CURVE",
"373 759 OFFCURVE",
"372 744 OFFCURVE",
"370 730 CURVE",
"367 691 OFFCURVE",
"365 651 OFFCURVE",
"366 611 CURVE SMOOTH",
"367 583 OFFCURVE",
"370 558 OFFCURVE",
"375 534 CURVE SMOOTH",
"379 515 OFFCURVE",
"382 497 OFFCURVE",
"384 479 CURVE",
"385 458 OFFCURVE",
"385 438 OFFCURVE",
"384 417 CURVE",
"384 393 OFFCURVE",
"383 368 OFFCURVE",
"385 343 CURVE",
"387 327 OFFCURVE",
"389 315 OFFCURVE",
"392 306 CURVE",
"365 336 LINE",
"335 367 OFFCURVE",
"316 387 OFFCURVE",
"309 435 CURVE SMOOTH",
"278 632 OFFCURVE",
"297 800 OFFCURVE",
"363 950 CURVE SMOOTH"
);
},
{
closed = 1;
nodes = (
"622 754 OFFCURVE",
"633 748 OFFCURVE",
"645 748 CURVE SMOOTH",
"649 748 LINE",
"658 749 OFFCURVE",
"666 753 OFFCURVE",
"672 759 CURVE",
"677 756 OFFCURVE",
"683 755 OFFCURVE",
"689 755 CURVE SMOOTH",
"691 755 LINE",
"717 756 OFFCURVE",
"760 757 OFFCURVE",
"800 757 CURVE SMOOTH",
"811 757 OFFCURVE",
"823 758 OFFCURVE",
"833 758 CURVE",
"833 757 LINE",
"836 707 OFFCURVE",
"839 656 OFFCURVE",
"843 606 CURVE",
"844 598 OFFCURVE",
"844 590 OFFCURVE",
"843 582 CURVE",
"837 573 OFFCURVE",
"834 561 OFFCURVE",
"837 549 CURVE",
"837 548 OFFCURVE",
"838 546 OFFCURVE",
"838 544 CURVE",
"833 525 OFFCURVE",
"824 508 OFFCURVE",
"812 492 CURVE",
"798 475 LINE",
"773 442 OFFCURVE",
"750 411 OFFCURVE",
"717 394 CURVE SMOOTH",
"649 358 OFFCURVE",
"593 365 OFFCURVE",
"532 419 CURVE SMOOTH",
"521 429 OFFCURVE",
"510 442 OFFCURVE",
"498 456 CURVE",
"493 465 OFFCURVE",
"486 473 OFFCURVE",
"479 481 CURVE",
"460 500 LINE",
"458 517 OFFCURVE",
"455 533 OFFCURVE",
"452 547 CURVE",
"448 571 OFFCURVE",
"443 592 OFFCURVE",
"443 612 CURVE",
"442 649 OFFCURVE",
"445 685 OFFCURVE",
"448 724 CURVE",
"449 729 OFFCURVE",
"449 734 OFFCURVE",
"450 740 CURVE",
"482 741 OFFCURVE",
"513 744 OFFCURVE",
"545 747 CURVE SMOOTH",
"590 750 LINE",
"599 751 OFFCURVE",
"609 756 OFFCURVE",
"615 763 CURVE"
);
},
{
closed = 1;
nodes = (
"843 306 LINE",
"830 320 OFFCURVE",
"817 333 OFFCURVE",
"808 348 CURVE",
"805 352 OFFCURVE",
"802 355 OFFCURVE",
"799 358 CURVE",
"816 373 OFFCURVE",
"831 390 OFFCURVE",
"844 407 CURVE",
"844 381 OFFCURVE",
"844 357 OFFCURVE",
"843 331 CURVE"
);
},
{
closed = 1;
nodes = (
"464 338 OFFCURVE",
"463 343 OFFCURVE",
"463 350 CURVE",
"462 359 OFFCURVE",
"462 369 OFFCURVE",
"462 379 CURVE",
"468 372 OFFCURVE",
"474 366 OFFCURVE",
"481 360 CURVE",
"483 359 OFFCURVE",
"484 357 OFFCURVE",
"486 356 CURVE",
"479 351 OFFCURVE",
"471 344 OFFCURVE",
"464 334 CURVE"
);
},
{
closed = 1;
nodes = (
"528 291 OFFCURVE",
"529 291 OFFCURVE",
"534 295 CURVE",
"541 300 OFFCURVE",
"548 305 OFFCURVE",
"554 313 CURVE",
"582 300 OFFCURVE",
"610 294 OFFCURVE",
"639 294 CURVE SMOOTH",
"668 294 OFFCURVE",
"698 301 OFFCURVE",
"728 314 CURVE",
"732 310 OFFCURVE",
"738 306 OFFCURVE",
"744 304 CURVE",
"759 281 OFFCURVE",
"778 261 OFFCURVE",
"797 242 CURVE",
"760 227 LINE",
"738 219 OFFCURVE",
"719 207 OFFCURVE",
"698 195 CURVE SMOOTH",
"672 180 OFFCURVE",
"662 155 OFFCURVE",
"658 135 CURVE",
"653 131 OFFCURVE",
"647 124 OFFCURVE",
"643 116 CURVE",
"642 115 OFFCURVE",
"642 113 OFFCURVE",
"641 112 CURVE",
"641 113 OFFCURVE",
"640 114 OFFCURVE",
"640 115 CURVE",
"636 121 OFFCURVE",
"631 126 OFFCURVE",
"627 130 CURVE",
"621 169 OFFCURVE",
"598 212 OFFCURVE",
"533 238 CURVE SMOOTH",
"502 250 LINE",
"514 259 OFFCURVE",
"521 274 OFFCURVE",
"525 283 CURVE"
);
},
{
closed = 1;
nodes = (
"238 1 LINE SMOOTH",
"237 1 OFFCURVE",
"237 1 OFFCURVE",
"237 2 CURVE",
"241 51 OFFCURVE",
"255 88 OFFCURVE",
"279 113 CURVE SMOOTH",
"297 131 OFFCURVE",
"315 137 OFFCURVE",
"338 145 CURVE SMOOTH",
"358 152 OFFCURVE",
"379 159 OFFCURVE",
"401 173 CURVE",
"404 170 LINE",
"410 163 OFFCURVE",
"420 158 OFFCURVE",
"431 157 CURVE",
"439 157 LINE SMOOTH",
"453 157 OFFCURVE",
"466 164 OFFCURVE",
"473 177 CURVE",
"484 173 OFFCURVE",
"494 170 OFFCURVE",
"505 165 CURVE",
"545 150 OFFCURVE",
"553 129 OFFCURVE",
"551 100 CURVE",
"551 85 OFFCURVE",
"560 64 OFFCURVE",
"576 57 CURVE",
"580 56 OFFCURVE",
"584 56 OFFCURVE",
"589 55 CURVE",
"603 39 OFFCURVE",
"622 32 OFFCURVE",
"641 32 CURVE SMOOTH",
"644 32 LINE",
"667 33 OFFCURVE",
"688 45 OFFCURVE",
"704 67 CURVE",
"706 67 OFFCURVE",
"707 67 OFFCURVE",
"709 68 CURVE SMOOTH",
"730 79 OFFCURVE",
"732 101 OFFCURVE",
"733 109 CURVE",
"734 127 OFFCURVE",
"737 128 OFFCURVE",
"739 130 CURVE",
"756 139 OFFCURVE",
"773 149 OFFCURVE",
"789 156 CURVE",
"836 173 LINE",
"834 168 LINE SMOOTH",
"827 149 OFFCURVE",
"838 127 OFFCURVE",
"857 119 CURVE",
"862 118 OFFCURVE",
"866 117 OFFCURVE",
"871 117 CURVE SMOOTH",
"886 117 OFFCURVE",
"902 127 OFFCURVE",
"908 143 CURVE",
"909 145 OFFCURVE",
"910 147 OFFCURVE",
"910 150 CURVE",
"917 144 LINE SMOOTH",
"939 126 OFFCURVE",
"959 107 OFFCURVE",
"979 88 CURVE SMOOTH",
"992 76 OFFCURVE",
"1003 67 OFFCURVE",
"1012 59 CURVE SMOOTH",
"1038 37 OFFCURVE",
"1043 34 OFFCURVE",
"1044 1 CURVE"
);
}
);
width = 1280;
}
);
note = uniF012;
unicode = F012;
},
{
glyphname = uniF013;
lastChange = "2017-08-02 15:03:29 +0000";
layers = (
{
layerId = "489549A1-39E0-4C35-B6CE-29571649E041";
paths = (
{
closed = 1;
nodes = (
"1093 203 OFFCURVE",
"1041 256 OFFCURVE",
"967 313 CURVE SMOOTH",
"918 353 LINE",
"910 360 LINE",
"910 369 OFFCURVE",
"908 377 OFFCURVE",
"906 384 CURVE",
"906 386 OFFCURVE",
"905 389 OFFCURVE",
"904 391 CURVE",
"891 412 OFFCURVE",
"877 438 OFFCURVE",
"874 446 CURVE SMOOTH",
"872 451 OFFCURVE",
"869 457 OFFCURVE",
"865 461 CURVE",
"864 469 LINE",
"863 473 LINE",
"892 505 OFFCURVE",
"918 545 OFFCURVE",
"941 595 CURVE SMOOTH",
"942 597 OFFCURVE",
"949 602 OFFCURVE",
"953 606 CURVE SMOOTH",
"956 609 OFFCURVE",
"961 612 OFFCURVE",
"964 614 CURVE",
"982 631 LINE",
"995 641 OFFCURVE",
"1008 652 OFFCURVE",
"1020 666 CURVE SMOOTH",
"1049 699 OFFCURVE",
"1059 736 OFFCURVE",
"1048 770 CURVE SMOOTH",
"1040 796 OFFCURVE",
"1019 817 OFFCURVE",
"991 829 CURVE",
"989 836 OFFCURVE",
"989 841 OFFCURVE",
"988 848 CURVE",
"986 882 OFFCURVE",
"984 916 OFFCURVE",
"977 951 CURVE SMOOTH",
"960 1031 OFFCURVE",
"917 1094 OFFCURVE",
"853 1134 CURVE SMOOTH",
"779 1179 OFFCURVE",
"691 1198 OFFCURVE",
"592 1186 CURVE SMOOTH",
"494 1176 OFFCURVE",
"424 1143 OFFCURVE",
"373 1083 CURVE",
"373 1081 OFFCURVE",
"372 1080 OFFCURVE",
"370 1080 CURVE",
"369 1078 OFFCURVE",
"368 1076 OFFCURVE",
"366 1075 CURVE",
"364 1071 OFFCURVE",
"315 1002 OFFCURVE",
"319 923 CURVE",
"293 829 LINE",
"267 818 OFFCURVE",
"247 797 OFFCURVE",
"237 772 CURVE SMOOTH",
"225 739 OFFCURVE",
"233 700 OFFCURVE",
"259 665 CURVE",
"268 654 OFFCURVE",
"280 639 OFFCURVE",
"300 631 CURVE SMOOTH",
"327 620 OFFCURVE",
"341 597 OFFCURVE",
"360 560 CURVE",
"367 548 LINE SMOOTH",
"382 521 OFFCURVE",
"400 496 OFFCURVE",
"420 474 CURVE",
"372 379 LINE SMOOTH",
"368 371 OFFCURVE",
"367 362 OFFCURVE",
"370 353 CURVE",
"364 348 OFFCURVE",
"357 344 OFFCURVE",
"351 339 CURVE",
"284 288 OFFCURVE",
"216 235 OFFCURVE",
"164 162 CURVE SMOOTH",
"129 111 OFFCURVE",
"90 40 OFFCURVE",
"99 -49 CURVE",
"102 -68 OFFCURVE",
"117 -82 OFFCURVE",
"137 -82 CURVE SMOOTH",
"1150 -82 LINE SMOOTH",
"1171 -82 OFFCURVE",
"1187 -66 OFFCURVE",
"1188 -47 CURVE SMOOTH",
"1191 20 OFFCURVE",
"1172 82 OFFCURVE",
"1132 145 CURVE SMOOTH"
);
},
{
closed = 1;
nodes = (
"467 1079 OFFCURVE",
"521 1105 OFFCURVE",
"600 1112 CURVE SMOOTH",
"683 1122 OFFCURVE",
"754 1108 OFFCURVE",
"813 1070 CURVE SMOOTH",
"823 1064 OFFCURVE",
"832 1057 OFFCURVE",
"841 1050 CURVE",
"840 1047 OFFCURVE",
"839 1045 OFFCURVE",
"839 1042 CURVE",
"837 1034 OFFCURVE",
"819 1029 OFFCURVE",
"807 1024 CURVE",
"791 1020 OFFCURVE",
"777 1015 OFFCURVE",
"767 1002 CURVE SMOOTH",
"739 965 OFFCURVE",
"690 942 OFFCURVE",
"634 940 CURVE SMOOTH",
"578 939 OFFCURVE",
"528 960 OFFCURVE",
"500 995 CURVE SMOOTH",
"492 1005 OFFCURVE",
"481 1010 OFFCURVE",
"470 1010 CURVE",
"461 1025 OFFCURVE",
"441 1033 OFFCURVE",
"424 1026 CURVE",
"426 1030 OFFCURVE",
"428 1032 OFFCURVE",
"428 1032 CURVE",
"428 1033 OFFCURVE",
"429 1034 OFFCURVE",
"430 1034 CURVE"
);
},
{
closed = 1;
nodes = (
"326 700 OFFCURVE",
"322 707 OFFCURVE",
"318 712 CURVE",
"308 726 OFFCURVE",
"303 738 OFFCURVE",
"307 747 CURVE SMOOTH",
"310 754 OFFCURVE",
"319 761 OFFCURVE",
"332 764 CURVE",
"345 766 OFFCURVE",
"356 777 OFFCURVE",
"359 791 CURVE",
"391 908 LINE",
"392 913 OFFCURVE",
"394 917 OFFCURVE",
"392 921 CURVE",
"392 936 LINE",
"395 935 OFFCURVE",
"398 935 OFFCURVE",
"401 935 CURVE SMOOTH",
"408 935 OFFCURVE",
"413 937 OFFCURVE",
"420 940 CURVE",
"440 951 LINE",
"441 951 OFFCURVE",
"441 950 OFFCURVE",
"442 949 CURVE",
"483 897 OFFCURVE",
"553 867 OFFCURVE",
"629 867 CURVE SMOOTH",
"635 867 LINE SMOOTH",
"711 868 OFFCURVE",
"780 900 OFFCURVE",
"822 951 CURVE",
"823 953 OFFCURVE",
"825 953 OFFCURVE",
"829 954 CURVE SMOOTH",
"844 958 OFFCURVE",
"870 966 OFFCURVE",
"889 985 CURVE",
"895 969 OFFCURVE",
"901 953 OFFCURVE",
"905 936 CURVE",
"910 906 OFFCURVE",
"912 875 OFFCURVE",
"915 842 CURVE SMOOTH",
"918 798 LINE",
"920 782 OFFCURVE",
"931 769 OFFCURVE",
"947 765 CURVE",
"963 762 OFFCURVE",
"975 754 OFFCURVE",
"977 747 CURVE",
"980 739 OFFCURVE",
"975 727 OFFCURVE",
"964 715 CURVE SMOOTH",
"956 706 OFFCURVE",
"945 697 OFFCURVE",
"934 688 CURVE",
"928 682 OFFCURVE",
"920 676 OFFCURVE",
"913 669 CURVE",
"906 663 LINE SMOOTH",
"895 654 OFFCURVE",
"882 643 OFFCURVE",
"874 625 CURVE SMOOTH",
"844 563 OFFCURVE",
"813 522 OFFCURVE",
"772 491 CURVE SMOOTH",
"702 437 OFFCURVE",
"618 430 OFFCURVE",
"543 471 CURVE SMOOTH",
"497 496 OFFCURVE",
"460 535 OFFCURVE",
"432 585 CURVE",
"425 596 LINE",
"405 634 OFFCURVE",
"381 678 OFFCURVE",
"329 699 CURVE"
);
},
{
closed = 1;
nodes = (
"694 332 OFFCURVE",
"690 327 OFFCURVE",
"687 322 CURVE",
"658 316 OFFCURVE",
"621 311 OFFCURVE",
"586 317 CURVE",
"585 319 OFFCURVE",
"583 321 OFFCURVE",
"582 322 CURVE",
"581 322 OFFCURVE",
"552 352 OFFCURVE",
"516 401 CURVE",
"557 380 OFFCURVE",
"599 371 OFFCURVE",
"642 371 CURVE SMOOTH",
"683 371 OFFCURVE",
"725 380 OFFCURVE",
"764 398 CURVE",
"746 377 OFFCURVE",
"728 358 OFFCURVE",
"698 335 CURVE SMOOTH"
);
},
{
closed = 1;
nodes = (
"449 367 LINE",
"471 336 OFFCURVE",
"492 311 OFFCURVE",
"507 294 CURVE",
"506 293 OFFCURVE",
"505 291 OFFCURVE",
"505 289 CURVE",
"485 273 LINE",
"455 342 LINE",
"455 350 OFFCURVE",
"453 358 OFFCURVE",
"448 364 CURVE"
);
},
{
closed = 1;
nodes = (
"790 279 LINE",
"772 300 LINE",
"798 322 OFFCURVE",
"815 343 OFFCURVE",
"832 365 CURVE",
"835 361 LINE"
);
},
{
closed = 1;
nodes = (
"788 -7 LINE",
"779 27 OFFCURVE",
"763 59 OFFCURVE",
"748 90 CURVE SMOOTH",
"733 122 OFFCURVE",
"719 152 OFFCURVE",
"713 178 CURVE",
"714 185 OFFCURVE",
"731 200 OFFCURVE",
"739 209 CURVE",
"746 215 LINE",
"767 190 LINE SMOOTH",
"775 181 OFFCURVE",
"785 177 OFFCURVE",
"796 177 CURVE SMOOTH",
"799 177 LINE",
"811 178 OFFCURVE",
"822 185 OFFCURVE",
"829 196 CURVE",
"880 289 LINE",
"893 277 OFFCURVE",
"908 265 OFFCURVE",
"922 254 CURVE SMOOTH",
"989 202 OFFCURVE",
"1036 156 OFFCURVE",
"1069 104 CURVE SMOOTH",
"1093 67 OFFCURVE",
"1107 29 OFFCURVE",
"1113 -7 CURVE"
);
},
{
closed = 1;
nodes = (
"270 184 OFFCURVE",
"332 230 OFFCURVE",
"397 281 CURVE",
"400 283 LINE",
"437 198 LINE SMOOTH",
"442 187 OFFCURVE",
"451 179 OFFCURVE",
"462 177 CURVE",
"465 176 OFFCURVE",
"468 176 OFFCURVE",
"471 176 CURVE SMOOTH",
"479 176 OFFCURVE",
"488 179 OFFCURVE",
"495 185 CURVE SMOOTH",
"532 216 LINE",
"536 211 OFFCURVE",
"540 206 OFFCURVE",
"544 202 CURVE",
"554 194 OFFCURVE",
"571 177 OFFCURVE",
"572 172 CURVE",
"568 144 OFFCURVE",
"552 114 OFFCURVE",
"537 83 CURVE SMOOTH",
"522 54 OFFCURVE",
"507 24 OFFCURVE",
"498 -7 CURVE",
"172 -7 LINE",
"175 32 OFFCURVE",
"192 71 OFFCURVE",
"226 119 CURVE SMOOTH"
);
},
{
closed = 1;
nodes = (
"635 214 OFFCURVE",
"624 228 OFFCURVE",
"613 240 CURVE",
"632 239 OFFCURVE",
"651 240 OFFCURVE",
"669 243 CURVE",
"657 230 OFFCURVE",
"646 215 OFFCURVE",
"641 198 CURVE"
);
},
{
closed = 1;
nodes = (
"619 82 OFFCURVE",
"636 115 OFFCURVE",
"644 149 CURVE",
"653 117 OFFCURVE",
"667 87 OFFCURVE",
"682 58 CURVE SMOOTH",
"693 35 OFFCURVE",
"703 14 OFFCURVE",
"711 -7 CURVE",
"576 -7 LINE",
"584 11 OFFCURVE",
"593 30 OFFCURVE",
"603 49 CURVE SMOOTH"
);
}
);
width = 1280;
}
);
note = uniF013;
unicode = F013;
},
{
glyphname = uniF014;
lastChange = "2017-08-02 15:03:29 +0000";
layers = (
{
layerId = "489549A1-39E0-4C35-B6CE-29571649E041";
paths = (
{
closed = 1;
nodes = (
"1118 13 OFFCURVE",
"1099 116 OFFCURVE",
"1072 153 CURVE SMOOTH",
"1042 193 OFFCURVE",
"1005 205 OFFCURVE",
"976 215 CURVE",
"957 220 OFFCURVE",
"941 225 OFFCURVE",
"925 237 CURVE",
"918 243 OFFCURVE",
"909 246 OFFCURVE",
"901 248 CURVE",
"895 254 LINE",
"887 261 OFFCURVE",
"880 271 OFFCURVE",
"868 279 CURVE SMOOTH",
"850 291 OFFCURVE",
"836 298 OFFCURVE",
"823 304 CURVE SMOOTH",
"803 314 OFFCURVE",
"799 316 OFFCURVE",
"792 334 CURVE",
"787 349 LINE",
"843 395 OFFCURVE",
"884 455 OFFCURVE",
"918 538 CURVE",
"919 540 OFFCURVE",
"919 541 OFFCURVE",
"921 542 CURVE",
"929 551 LINE SMOOTH",
"934 557 OFFCURVE",
"937 563 OFFCURVE",
"938 570 CURVE",
"943 587 OFFCURVE",
"964 645 OFFCURVE",
"980 684 CURVE",
"999 738 OFFCURVE",
"1011 768 OFFCURVE",
"1014 780 CURVE SMOOTH",
"1026 825 OFFCURVE",
"1038 887 OFFCURVE",
"1028 952 CURVE SMOOTH",
"1009 1070 OFFCURVE",
"934 1147 OFFCURVE",
"810 1174 CURVE SMOOTH",
"678 1204 OFFCURVE",
"545 1195 OFFCURVE",
"418 1146 CURVE SMOOTH",
"316 1108 OFFCURVE",
"255 1020 OFFCURVE",
"251 907 CURVE SMOOTH",
"249 838 OFFCURVE",
"267 776 OFFCURVE",
"286 712 CURVE SMOOTH",
"296 675 OFFCURVE",
"316 643 OFFCURVE",
"333 615 CURVE SMOOTH",
"340 604 OFFCURVE",
"347 594 OFFCURVE",
"353 584 CURVE",
"359 572 OFFCURVE",
"370 564 OFFCURVE",
"383 563 CURVE",
"375 554 OFFCURVE",
"372 542 OFFCURVE",
"375 529 CURVE SMOOTH",
"391 465 OFFCURVE",
"425 410 OFFCURVE",
"478 359 CURVE",
"475 353 LINE",
"456 307 OFFCURVE",
"416 277 OFFCURVE",
"370 246 CURVE SMOOTH",
"349 232 OFFCURVE",
"327 221 OFFCURVE",
"307 211 CURVE SMOOTH",
"250 181 OFFCURVE",
"191 150 OFFCURVE",
"165 63 CURVE SMOOTH",
"158 39 OFFCURVE",
"157 16 OFFCURVE",
"156 -7 CURVE",
"155 -15 OFFCURVE",
"155 -24 OFFCURVE",
"154 -33 CURVE SMOOTH",
"153 -44 OFFCURVE",
"157 -54 OFFCURVE",
"164 -63 CURVE",
"171 -71 OFFCURVE",
"182 -76 OFFCURVE",
"193 -76 CURVE SMOOTH",
"1087 -76 LINE SMOOTH",
"1098 -76 OFFCURVE",
"1109 -71 OFFCURVE",
"1116 -62 CURVE",
"1124 -53 OFFCURVE",
"1127 -42 OFFCURVE",
"1125 -30 CURVE SMOOTH"
);
},
{
closed = 1;
nodes = (
"332 986 OFFCURVE",
"374 1046 OFFCURVE",
"445 1074 CURVE SMOOTH",
"558 1117 OFFCURVE",
"676 1124 OFFCURVE",
"794 1098 CURVE SMOOTH",
"886 1077 OFFCURVE",
"937 1027 OFFCURVE",
"951 940 CURVE SMOOTH",
"957 899 OFFCURVE",
"954 857 OFFCURVE",
"938 799 CURVE",
"916 736 LINE",
"902 760 OFFCURVE",
"884 780 OFFCURVE",
"863 794 CURVE SMOOTH",
"846 806 OFFCURVE",
"839 821 OFFCURVE",
"825 852 CURVE",
"821 860 OFFCURVE",
"818 869 OFFCURVE",
"815 878 CURVE SMOOTH",
"811 890 LINE",
"812 903 OFFCURVE",
"807 915 OFFCURVE",
"797 924 CURVE",
"779 936 OFFCURVE",
"755 934 OFFCURVE",
"741 917 CURVE SMOOTH",
"714 883 OFFCURVE",
"673 864 OFFCURVE",
"629 845 CURVE SMOOTH",
"606 835 LINE",
"592 828 OFFCURVE",
"578 822 OFFCURVE",
"564 817 CURVE",
"535 804 OFFCURVE",
"505 791 OFFCURVE",
"477 777 CURVE SMOOTH",
"434 754 OFFCURVE",
"403 721 OFFCURVE",
"386 680 CURVE",
"375 698 OFFCURVE",
"365 717 OFFCURVE",
"359 738 CURVE SMOOTH",
"343 794 OFFCURVE",
"327 848 OFFCURVE",
"329 904 CURVE SMOOTH"
);
},
{
closed = 1;
nodes = (
"448 561 OFFCURVE",
"439 571 OFFCURVE",
"427 575 CURVE",
"429 578 OFFCURVE",
"431 581 OFFCURVE",
"433 585 CURVE SMOOTH",
"436 591 LINE",
"441 598 OFFCURVE",
"447 609 OFFCURVE",
"450 623 CURVE SMOOTH",
"457 661 OFFCURVE",
"477 689 OFFCURVE",
"513 708 CURVE",
"540 721 OFFCURVE",
"567 733 OFFCURVE",
"595 745 CURVE SMOOTH",
"609 751 OFFCURVE",
"623 757 OFFCURVE",
"638 764 CURVE SMOOTH",
"660 774 LINE SMOOTH",
"690 787 OFFCURVE",
"723 801 OFFCURVE",
"753 822 CURVE",
"753 820 OFFCURVE",
"754 819 OFFCURVE",
"755 817 CURVE",
"768 787 OFFCURVE",
"783 753 OFFCURVE",
"820 729 CURVE SMOOTH",
"845 712 OFFCURVE",
"856 682 OFFCURVE",
"861 661 CURVE SMOOTH",
"864 648 OFFCURVE",
"870 638 OFFCURVE",
"874 632 CURVE SMOOTH",
"876 629 LINE",
"864 595 LINE",
"858 590 OFFCURVE",
"851 582 OFFCURVE",
"846 570 CURVE SMOOTH",
"816 494 OFFCURVE",
"781 444 OFFCURVE",
"732 406 CURVE SMOOTH",
"688 370 OFFCURVE",
"597 365 OFFCURVE",
"560 394 CURVE SMOOTH",
"501 440 OFFCURVE",
"466 489 OFFCURVE",
"451 548 CURVE SMOOTH"
);
},
{
closed = 1;
nodes = (
"610 158 LINE",
"572 189 OFFCURVE",
"527 213 OFFCURVE",
"479 231 CURVE",
"504 253 OFFCURVE",
"526 279 OFFCURVE",
"542 311 CURVE",
"543 311 OFFCURVE",
"544 312 OFFCURVE",
"545 312 CURVE",
"570 302 OFFCURVE",
"599 297 OFFCURVE",
"628 297 CURVE SMOOTH",
"659 297 OFFCURVE",
"690 302 OFFCURVE",
"718 312 CURVE",
"719 309 LINE SMOOTH",
"735 261 OFFCURVE",
"763 247 OFFCURVE",
"787 235 CURVE",
"727 225 OFFCURVE",
"670 213 OFFCURVE",
"616 164 CURVE"
);
},
{
closed = 1;
nodes = (
"234 2 LINE",
"235 17 OFFCURVE",
"236 30 OFFCURVE",
"240 40 CURVE",
"256 97 OFFCURVE",
"290 114 OFFCURVE",
"343 141 CURVE",
"361 151 OFFCURVE",
"383 162 OFFCURVE",
"404 175 CURVE",
"410 172 OFFCURVE",
"417 168 OFFCURVE",
"425 166 CURVE",
"491 147 OFFCURVE",
"549 113 OFFCURVE",
"597 66 CURVE SMOOTH",
"605 58 OFFCURVE",
"618 53 OFFCURVE",
"628 53 CURVE SMOOTH",
"631 53 OFFCURVE",
"634 53 OFFCURVE",
"636 54 CURVE",
"655 58 OFFCURVE",
"663 71 OFFCURVE",
"668 83 CURVE",
"678 92 OFFCURVE",
"682 104 OFFCURVE",
"681 117 CURVE",
"720 146 OFFCURVE",
"763 153 OFFCURVE",
"820 161 CURVE SMOOTH",
"836 163 OFFCURVE",
"852 165 OFFCURVE",
"872 169 CURVE",
"875 169 OFFCURVE",
"881 170 OFFCURVE",
"884 171 CURVE",
"909 154 OFFCURVE",
"933 146 OFFCURVE",
"953 140 CURVE SMOOTH",
"978 132 OFFCURVE",
"994 127 OFFCURVE",
"1009 106 CURVE",
"1017 96 OFFCURVE",
"1030 53 OFFCURVE",
"1039 2 CURVE"
);
}
);
width = 1280;
}
);
note = uniF014;
unicode = F014;
},
{
glyphname = uniF015;
lastChange = "2017-08-02 15:03:29 +0000";
layers = (
{
layerId = "489549A1-39E0-4C35-B6CE-29571649E041";
paths = (
{
closed = 1;
nodes = (
"1136 39 OFFCURVE",
"1101 143 OFFCURVE",
"1049 183 CURVE",
"1019 234 OFFCURVE",
"975 266 OFFCURVE",
"933 298 CURVE SMOOTH",
"909 315 OFFCURVE",
"887 333 OFFCURVE",
"868 352 CURVE",
"866 359 OFFCURVE",
"862 366 OFFCURVE",
"859 371 CURVE",
"847 387 OFFCURVE",
"845 406 OFFCURVE",
"843 429 CURVE",
"842 435 OFFCURVE",
"841 440 OFFCURVE",
"841 446 CURVE",
"845 452 LINE",
"850 461 LINE",
"870 493 OFFCURVE",
"890 526 OFFCURVE",
"910 557 CURVE",
"915 564 OFFCURVE",
"923 571 OFFCURVE",
"933 579 CURVE SMOOTH",
"952 594 LINE",
"966 604 OFFCURVE",
"983 616 OFFCURVE",
"995 632 CURVE",
"1017 658 OFFCURVE",
"1023 690 OFFCURVE",
"1012 719 CURVE",
"1004 744 OFFCURVE",
"983 764 OFFCURVE",
"958 775 CURVE",
"958 779 OFFCURVE",
"958 783 OFFCURVE",
"957 787 CURVE",
"956 814 OFFCURVE",
"954 841 OFFCURVE",
"950 868 CURVE SMOOTH",
"928 996 OFFCURVE",
"841 1083 OFFCURVE",
"715 1104 CURVE",
"715 1141 LINE",
"714 1190 OFFCURVE",
"681 1225 OFFCURVE",
"636 1225 CURVE",
"585 1227 OFFCURVE",
"555 1195 OFFCURVE",
"553 1142 CURVE",
"550 1104 LINE",
"412 1075 OFFCURVE",
"333 989 OFFCURVE",
"315 847 CURVE SMOOTH",
"312 825 OFFCURVE",
"310 804 OFFCURVE",
"308 782 CURVE",
"308 775 LINE",
"283 764 OFFCURVE",
"265 745 OFFCURVE",
"257 722 CURVE SMOOTH",
"246 691 OFFCURVE",
"254 658 OFFCURVE",
"277 628 CURVE",
"293 610 OFFCURVE",
"309 591 OFFCURVE",
"332 581 CURVE",
"346 574 OFFCURVE",
"354 563 OFFCURVE",
"366 541 CURVE",
"385 510 OFFCURVE",
"404 479 OFFCURVE",
"425 452 CURVE SMOOTH",
"429 447 OFFCURVE",
"429 447 OFFCURVE",
"428 438 CURVE SMOOTH",
"420 380 OFFCURVE",
"396 339 OFFCURVE",
"348 308 CURVE SMOOTH",
"314 286 OFFCURVE",
"285 258 OFFCURVE",
"255 231 CURVE SMOOTH",
"243 220 OFFCURVE",
"231 207 OFFCURVE",
"218 196 CURVE SMOOTH",
"210 189 OFFCURVE",
"206 181 OFFCURVE",
"206 172 CURVE",
"151 114 OFFCURVE",
"123 42 OFFCURVE",
"128 -40 CURVE SMOOTH",
"129 -59 OFFCURVE",
"145 -74 OFFCURVE",
"163 -74 CURVE SMOOTH",
"475 -74 LINE",
"553 -74 LINE",
"870 -74 LINE SMOOTH",
"880 -74 OFFCURVE",
"895 -74 OFFCURVE",
"908 -67 CURVE",
"912 -68 OFFCURVE",
"917 -68 OFFCURVE",
"922 -68 CURVE SMOOTH",
"948 -68 OFFCURVE",
"988 -67 OFFCURVE",
"1028 -66 CURVE SMOOTH",
"1062 -65 OFFCURVE",
"1105 -63 OFFCURVE",
"1112 -64 CURVE",
"1116 -65 OFFCURVE",
"1119 -65 OFFCURVE",
"1123 -64 CURVE",
"1124 -64 LINE",
"1130 -63 OFFCURVE",
"1135 -60 OFFCURVE",
"1140 -56 CURVE SMOOTH",
"1146 -51 OFFCURVE",
"1151 -44 OFFCURVE",
"1152 -35 CURVE SMOOTH",
"1153 -28 OFFCURVE",
"1152 -22 OFFCURVE",
"1149 -16 CURVE"
);
},
{
closed = 1;
nodes = (
"623 1155 OFFCURVE",
"626 1156 OFFCURVE",
"633 1156 CURVE SMOOTH",
"638 1156 OFFCURVE",
"645 1159 OFFCURVE",
"645 1141 CURVE SMOOTH",
"645 976 LINE SMOOTH",
"645 970 OFFCURVE",
"643 965 OFFCURVE",
"641 962 CURVE",
"640 962 OFFCURVE",
"638 960 OFFCURVE",
"633 960 CURVE SMOOTH",
"627 960 OFFCURVE",
"623 960 OFFCURVE",
"623 976 CURVE SMOOTH",
"623 1046 LINE SMOOTH",
"623 1051 OFFCURVE",
"623 1063 OFFCURVE",
"619 1089 CURVE",
"620 1106 OFFCURVE",
"622 1123 OFFCURVE",
"623 1140 CURVE"
);
},
{
closed = 1;
nodes = (
"411 600 OFFCURVE",
"395 627 OFFCURVE",
"360 643 CURVE",
"351 648 OFFCURVE",
"339 664 OFFCURVE",
"331 672 CURVE",
"323 682 OFFCURVE",
"320 692 OFFCURVE",
"323 700 CURVE",
"325 708 OFFCURVE",
"335 714 OFFCURVE",
"348 717 CURVE SMOOTH",
"362 720 OFFCURVE",
"373 732 OFFCURVE",
"374 747 CURVE",
"377 776 LINE",
"378 797 OFFCURVE",
"380 818 OFFCURVE",
"383 838 CURVE SMOOTH",
"397 946 OFFCURVE",
"451 1008 OFFCURVE",
"553 1033 CURVE",
"553 975 LINE SMOOTH",
"554 925 OFFCURVE",
"587 891 OFFCURVE",
"632 890 CURVE SMOOTH",
"654 890 OFFCURVE",
"674 898 OFFCURVE",
"689 912 CURVE SMOOTH",
"705 928 OFFCURVE",
"715 951 OFFCURVE",
"715 975 CURVE SMOOTH",
"715 1033 LINE",
"807 1014 OFFCURVE",
"867 952 OFFCURVE",
"882 857 CURVE SMOOTH",
"886 834 OFFCURVE",
"887 810 OFFCURVE",
"889 783 CURVE",
"889 771 OFFCURVE",
"890 759 OFFCURVE",
"891 747 CURVE SMOOTH",
"892 732 OFFCURVE",
"903 720 OFFCURVE",
"918 717 CURVE SMOOTH",
"932 714 OFFCURVE",
"943 706 OFFCURVE",
"947 696 CURVE",
"949 690 OFFCURVE",
"947 683 OFFCURVE",
"942 675 CURVE",
"935 667 OFFCURVE",
"924 659 OFFCURVE",
"912 650 CURVE SMOOTH",
"904 644 OFFCURVE",
"896 638 OFFCURVE",
"887 630 CURVE",
"876 621 OFFCURVE",
"863 610 OFFCURVE",
"852 595 CURVE",
"831 563 OFFCURVE",
"811 530 OFFCURVE",
"789 493 CURVE",
"787 489 LINE SMOOTH",
"785 485 OFFCURVE",
"782 481 OFFCURVE",
"779 476 CURVE",
"775 473 LINE",
"767 469 OFFCURVE",
"759 464 OFFCURVE",
"752 459 CURVE SMOOTH",
"706 427 OFFCURVE",
"661 415 OFFCURVE",
"610 420 CURVE SMOOTH",
"568 425 OFFCURVE",
"532 449 OFFCURVE",
"495 474 CURVE",
"490 476 LINE",
"488 482 OFFCURVE",
"484 487 OFFCURVE",
"480 493 CURVE SMOOTH",
"462 519 OFFCURVE",
"444 547 OFFCURVE",
"426 576 CURVE SMOOTH"
);
},
{
closed = 1;
nodes = (
"522 374 OFFCURVE",
"558 356 OFFCURVE",
"602 351 CURVE SMOOTH",
"613 350 OFFCURVE",
"623 349 OFFCURVE",
"634 349 CURVE SMOOTH",
"685 349 OFFCURVE",
"732 365 OFFCURVE",
"778 393 CURVE",
"781 374 OFFCURVE",
"786 355 OFFCURVE",
"798 336 CURVE",
"792 326 LINE SMOOTH",
"776 301 OFFCURVE",
"760 277 OFFCURVE",
"741 258 CURVE SMOOTH",
"678 197 OFFCURVE",
"596 192 OFFCURVE",
"529 247 CURVE SMOOTH",
"508 264 OFFCURVE",
"493 285 OFFCURVE",
"477 308 CURVE SMOOTH",
"472 315 OFFCURVE",
"467 321 OFFCURVE",
"463 327 CURVE",
"475 347 OFFCURVE",
"484 370 OFFCURVE",
"490 394 CURVE"
);
},
{
closed = 1;
nodes = (
"869 -4 LINE",
"392 -4 LINE",
"378 14 LINE",
"365 29 OFFCURVE",
"353 44 OFFCURVE",
"343 59 CURVE",
"326 88 OFFCURVE",
"310 116 OFFCURVE",
"294 146 CURVE SMOOTH",
"285 163 LINE",
"303 180 LINE SMOOTH",
"331 206 OFFCURVE",
"357 231 OFFCURVE",
"386 250 CURVE SMOOTH",
"397 257 OFFCURVE",
"407 265 OFFCURVE",
"417 273 CURVE",
"420 268 LINE",
"439 242 OFFCURVE",
"458 216 OFFCURVE",
"485 193 CURVE SMOOTH",
"528 158 OFFCURVE",
"579 140 OFFCURVE",
"629 140 CURVE SMOOTH",
"686 140 OFFCURVE",
"743 163 OFFCURVE",
"789 209 CURVE SMOOTH",
"810 231 OFFCURVE",
"828 255 OFFCURVE",
"844 279 CURVE",
"860 266 OFFCURVE",
"876 255 OFFCURVE",
"892 243 CURVE SMOOTH",
"927 216 OFFCURVE",
"959 192 OFFCURVE",
"982 159 CURVE",
"972 140 LINE SMOOTH",
"959 116 OFFCURVE",
"948 94 OFFCURVE",
"934 72 CURVE SMOOTH",
"916 44 OFFCURVE",
"896 18 OFFCURVE",
"877 -4 CURVE"
);
},
{
closed = 1;
nodes = (
"253 75 OFFCURVE",
"268 48 OFFCURVE",
"285 23 CURVE",
"291 13 OFFCURVE",
"297 4 OFFCURVE",
"303 -4 CURVE",
"198 -4 LINE",
"201 36 OFFCURVE",
"214 71 OFFCURVE",
"237 103 CURVE"
);
},
{
closed = 1;
nodes = (
"1008 3 OFFCURVE",
"988 2 OFFCURVE",
"970 2 CURVE",
"977 12 OFFCURVE",
"985 23 OFFCURVE",
"992 34 CURVE SMOOTH",
"1006 56 OFFCURVE",
"1018 79 OFFCURVE",
"1030 101 CURVE",
"1045 76 OFFCURVE",
"1060 41 OFFCURVE",
"1072 4 CURVE",
"1060 4 OFFCURVE",
"1045 4 OFFCURVE",
"1026 3 CURVE"
);
}
);
width = 1280;
}
);
note = uniF015;
unicode = F015;
},
{
glyphname = uniF016;
lastChange = "2017-08-02 15:03:29 +0000";
layers = (
{
layerId = "489549A1-39E0-4C35-B6CE-29571649E041";
paths = (
{
closed = 1;
nodes = (
"1030 96 LINE",
"1005 125 OFFCURVE",
"976 150 OFFCURVE",
"948 174 CURVE SMOOTH",
"936 184 OFFCURVE",
"924 195 OFFCURVE",
"911 205 CURVE",
"911 206 OFFCURVE",
"911 206 OFFCURVE",
"910 207 CURVE SMOOTH",
"897 220 OFFCURVE",
"859 246 OFFCURVE",
"850 251 CURVE",
"844 255 LINE SMOOTH",
"802 282 OFFCURVE",
"789 290 OFFCURVE",
"778 317 CURVE",
"832 363 OFFCURVE",
"871 420 OFFCURVE",
"893 486 CURVE",
"896 493 OFFCURVE",
"899 498 OFFCURVE",
"910 506 CURVE SMOOTH",
"936 524 OFFCURVE",
"957 545 OFFCURVE",
"972 567 CURVE SMOOTH",
"990 594 OFFCURVE",
"994 629 OFFCURVE",
"984 660 CURVE",
"975 684 OFFCURVE",
"960 702 OFFCURVE",
"939 712 CURVE",
"938 729 OFFCURVE",
"938 745 OFFCURVE",
"938 761 CURVE",
"937 800 OFFCURVE",
"936 839 OFFCURVE",
"931 879 CURVE SMOOTH",
"919 973 OFFCURVE",
"869 1038 OFFCURVE",
"785 1069 CURVE",
"783 1069 OFFCURVE",
"780 1071 OFFCURVE",
"778 1073 CURVE SMOOTH",
"777 1074 OFFCURVE",
"777 1075 OFFCURVE",
"777 1076 CURVE",
"779 1125 OFFCURVE",
"767 1161 OFFCURVE",
"741 1186 CURVE",
"699 1223 OFFCURVE",
"637 1216 OFFCURVE",
"618 1213 CURVE",
"593 1210 OFFCURVE",
"570 1199 OFFCURVE",
"549 1188 CURVE SMOOTH",
"516 1170 OFFCURVE",
"506 1083 OFFCURVE",
"506 1079 CURVE",
"504 1077 OFFCURVE",
"496 1073 OFFCURVE",
"490 1071 CURVE",
"481 1067 LINE SMOOTH",
"404 1034 OFFCURVE",
"354 969 OFFCURVE",
"338 880 CURVE SMOOTH",
"326 820 OFFCURVE",
"323 759 OFFCURVE",
"329 699 CURVE",
"291 665 OFFCURVE",
"282 618 OFFCURVE",
"307 575 CURVE",
"309 572 OFFCURVE",
"311 568 OFFCURVE",
"312 565 CURVE",
"322 547 OFFCURVE",
"338 517 OFFCURVE",
"375 508 CURVE",
"376 505 OFFCURVE",
"378 501 OFFCURVE",
"381 496 CURVE",
"402 445 OFFCURVE",
"435 373 OFFCURVE",
"502 317 CURVE",
"493 294 OFFCURVE",
"481 286 OFFCURVE",
"447 263 CURVE SMOOTH",
"429 250 LINE SMOOTH",
"372 211 OFFCURVE",
"318 167 OFFCURVE",
"271 120 CURVE",
"256 107 LINE",
"215 68 OFFCURVE",
"184 39 OFFCURVE",
"195 -45 CURVE",
"198 -63 OFFCURVE",
"214 -77 OFFCURVE",
"232 -77 CURVE SMOOTH",
"1048 -77 LINE SMOOTH",
"1065 -77 OFFCURVE",
"1080 -64 OFFCURVE",
"1083 -47 CURVE SMOOTH",
"1096 21 OFFCURVE",
"1078 45 OFFCURVE",
"1044 81 CURVE SMOOTH"
);
},
{
closed = 1;
nodes = (
"604 1135 OFFCURVE",
"616 1141 OFFCURVE",
"626 1142 CURVE SMOOTH",
"659 1146 OFFCURVE",
"681 1142 OFFCURVE",
"692 1132 CURVE",
"701 1123 OFFCURVE",
"705 1107 OFFCURVE",
"705 1091 CURVE",
"674 1098 OFFCURVE",
"645 1100 OFFCURVE",
"621 1100 CURVE SMOOTH",
"607 1100 OFFCURVE",
"594 1099 OFFCURVE",
"582 1098 CURVE",
"585 1110 OFFCURVE",
"588 1122 OFFCURVE",
"592 1129 CURVE"
);
},
{
closed = 1;
nodes = (
"421 933 OFFCURVE",
"454 978 OFFCURVE",
"509 1001 CURVE",
"517 1004 LINE",
"525 1008 OFFCURVE",
"538 1012 OFFCURVE",
"549 1020 CURVE",
"552 1021 OFFCURVE",
"557 1021 OFFCURVE",
"562 1022 CURVE SMOOTH",
"586 1027 OFFCURVE",
"638 1035 OFFCURVE",
"710 1015 CURVE",
"713 1015 OFFCURVE",
"716 1014 OFFCURVE",
"719 1014 CURVE SMOOTH",
"725 1014 OFFCURVE",
"731 1014 OFFCURVE",
"735 1015 CURVE",
"742 1011 OFFCURVE",
"750 1005 OFFCURVE",
"761 1001 CURVE SMOOTH",
"819 981 OFFCURVE",
"850 937 OFFCURVE",
"860 869 CURVE SMOOTH",
"864 834 OFFCURVE",
"865 798 OFFCURVE",
"866 760 CURVE SMOOTH",
"866 746 LINE",
"845 764 LINE SMOOTH",
"826 781 OFFCURVE",
"804 800 OFFCURVE",
"800 815 CURVE",
"797 823 LINE",
"805 838 OFFCURVE",
"809 854 OFFCURVE",
"810 867 CURVE SMOOTH",
"812 886 OFFCURVE",
"797 903 OFFCURVE",
"777 905 CURVE",
"757 906 OFFCURVE",
"740 892 OFFCURVE",
"738 872 CURVE SMOOTH",
"737 861 OFFCURVE",
"716 801 OFFCURVE",
"642 807 CURVE",
"538 805 OFFCURVE",
"457 804 OFFCURVE",
"399 736 CURVE",
"397 780 OFFCURVE",
"401 824 OFFCURVE",
"409 867 CURVE SMOOTH"
);
},
{
closed = 1;
nodes = (
"477 472 OFFCURVE",
"483 472 OFFCURVE",
"490 472 CURVE SMOOTH",
"495 472 OFFCURVE",
"500 472 OFFCURVE",
"506 473 CURVE",
"565 479 OFFCURVE",
"609 517 OFFCURVE",
"629 581 CURVE",
"631 589 OFFCURVE",
"632 597 OFFCURVE",
"633 604 CURVE SMOOTH",
"634 610 LINE",
"635 613 OFFCURVE",
"635 616 OFFCURVE",
"635 618 CURVE SMOOTH",
"635 622 OFFCURVE",
"635 625 OFFCURVE",
"634 629 CURVE SMOOTH",
"619 691 OFFCURVE",
"587 718 OFFCURVE",
"524 721 CURVE",
"517 721 OFFCURVE",
"510 722 OFFCURVE",
"503 722 CURVE",
"535 732 OFFCURVE",
"578 733 OFFCURVE",
"640 734 CURVE",
"685 731 OFFCURVE",
"720 743 OFFCURVE",
"747 762 CURVE",
"757 747 OFFCURVE",
"770 734 OFFCURVE",
"783 722 CURVE",
"771 722 OFFCURVE",
"758 722 OFFCURVE",
"745 721 CURVE SMOOTH",
"705 718 OFFCURVE",
"673 698 OFFCURVE",
"653 669 CURVE",
"635 639 OFFCURVE",
"632 603 OFFCURVE",
"645 567 CURVE SMOOTH",
"666 514 OFFCURVE",
"725 472 OFFCURVE",
"776 472 CURVE SMOOTH",
"790 472 LINE",
"798 473 OFFCURVE",
"805 475 OFFCURVE",
"812 476 CURVE",
"790 430 OFFCURVE",
"758 392 OFFCURVE",
"715 359 CURVE SMOOTH",
"711 356 LINE",
"703 353 LINE",
"691 349 OFFCURVE",
"679 345 OFFCURVE",
"666 342 CURVE SMOOTH",
"635 335 OFFCURVE",
"606 342 OFFCURVE",
"567 358 CURVE",
"564 360 LINE",
"526 388 OFFCURVE",
"496 423 OFFCURVE",
"471 473 CURVE"
);
},
{
closed = 1;
nodes = (
"419 598 OFFCURVE",
"417 614 OFFCURVE",
"424 626 CURVE",
"430 639 OFFCURVE",
"445 647 OFFCURVE",
"464 648 CURVE",
"474 648 OFFCURVE",
"483 650 OFFCURVE",
"493 650 CURVE SMOOTH",
"502 650 OFFCURVE",
"511 648 OFFCURVE",
"520 648 CURVE",
"550 646 OFFCURVE",
"556 643 OFFCURVE",
"562 617 CURVE",
"562 613 LINE SMOOTH",
"562 610 OFFCURVE",
"561 606 OFFCURVE",
"560 603 CURVE SMOOTH",
"544 549 OFFCURVE",
"509 546 OFFCURVE",
"498 544 CURVE",
"470 541 OFFCURVE",
"446 554 OFFCURVE",
"428 583 CURVE SMOOTH"
);
},
{
closed = 1;
nodes = (
"853 630 OFFCURVE",
"854 629 OFFCURVE",
"856 628 CURVE",
"850 611 LINE",
"849 609 OFFCURVE",
"849 607 OFFCURVE",
"848 606 CURVE",
"841 557 OFFCURVE",
"798 546 OFFCURVE",
"779 544 CURVE",
"776 544 LINE SMOOTH",
"755 544 OFFCURVE",
"723 569 OFFCURVE",
"713 593 CURVE",
"708 607 OFFCURVE",
"708 620 OFFCURVE",
"714 630 CURVE",
"722 640 OFFCURVE",
"735 647 OFFCURVE",
"751 648 CURVE",
"760 650 OFFCURVE",
"768 650 OFFCURVE",
"777 650 CURVE SMOOTH",
"808 650 OFFCURVE",
"831 644 OFFCURVE",
"851 632 CURVE"
);
},
{
closed = 1;
nodes = (
"488 204 LINE",
"523 227 OFFCURVE",
"547 244 OFFCURVE",
"564 281 CURVE",
"588 273 OFFCURVE",
"615 267 OFFCURVE",
"642 267 CURVE SMOOTH",
"654 267 OFFCURVE",
"669 268 OFFCURVE",
"683 271 CURVE",
"693 274 OFFCURVE",
"704 277 OFFCURVE",
"715 281 CURVE",
"733 239 OFFCURVE",
"760 222 OFFCURVE",
"804 195 CURVE",
"785 177 OFFCURVE",
"773 156 OFFCURVE",
"762 137 CURVE",
"757 127 OFFCURVE",
"752 118 OFFCURVE",
"746 110 CURVE",
"730 117 OFFCURVE",
"703 128 OFFCURVE",
"679 112 CURVE SMOOTH",
"645 90 OFFCURVE",
"637 87 OFFCURVE",
"598 117 CURVE SMOOTH",
"575 134 OFFCURVE",
"551 131 OFFCURVE",
"525 108 CURVE",
"517 119 OFFCURVE",
"510 132 OFFCURVE",
"502 145 CURVE SMOOTH",
"492 161 OFFCURVE",
"482 177 OFFCURVE",
"472 191 CURVE"
);
},
{
closed = 1;
nodes = (
"265 -5 LINE",
"267 18 OFFCURVE",
"279 28 OFFCURVE",
"306 54 CURVE SMOOTH",
"320 68 LINE SMOOTH",
"350 96 OFFCURVE",
"380 123 OFFCURVE",
"413 149 CURVE",
"422 138 OFFCURVE",
"431 121 OFFCURVE",
"441 107 CURVE",
"455 83 OFFCURVE",
"471 58 OFFCURVE",
"488 41 CURVE SMOOTH",
"501 28 OFFCURVE",
"529 12 OFFCURVE",
"568 49 CURVE",
"625 11 OFFCURVE",
"664 18 OFFCURVE",
"710 47 CURVE",
"717 44 LINE SMOOTH",
"732 38 OFFCURVE",
"766 23 OFFCURVE",
"792 51 CURVE SMOOTH",
"807 68 OFFCURVE",
"817 85 OFFCURVE",
"825 101 CURVE",
"837 122 OFFCURVE",
"847 140 OFFCURVE",
"866 150 CURVE",
"877 140 OFFCURVE",
"889 130 OFFCURVE",
"901 118 CURVE",
"929 95 OFFCURVE",
"954 74 OFFCURVE",
"976 48 CURVE",
"992 32 LINE SMOOTH",
"1008 15 OFFCURVE",
"1014 8 OFFCURVE",
"1016 -5 CURVE"
);
}
);
width = 1280;
}
);
note = uniF016;
unicode = F016;
},
{
glyphname = uniF017;
lastChange = "2017-08-02 15:03:29 +0000";
layers = (
{
layerId = "489549A1-39E0-4C35-B6CE-29571649E041";
paths = (
{
closed = 1;
nodes = (
"1083 208 OFFCURVE",
"1019 264 OFFCURVE",
"962 308 CURVE SMOOTH",
"941 325 OFFCURVE",
"922 343 OFFCURVE",
"901 362 CURVE",
"897 366 OFFCURVE",
"892 371 OFFCURVE",
"887 375 CURVE",
"899 416 OFFCURVE",
"892 458 OFFCURVE",
"868 492 CURVE",
"879 505 OFFCURVE",
"889 519 OFFCURVE",
"898 534 CURVE SMOOTH",
"914 559 OFFCURVE",
"929 586 OFFCURVE",
"941 614 CURVE",
"991 632 OFFCURVE",
"1034 680 OFFCURVE",
"1039 725 CURVE SMOOTH",
"1044 771 OFFCURVE",
"1023 807 OFFCURVE",
"982 825 CURVE",
"977 980 OFFCURVE",
"887 1112 OFFCURVE",
"802 1146 CURVE SMOOTH",
"665 1203 OFFCURVE",
"536 1195 OFFCURVE",
"420 1122 CURVE SMOOTH",
"360 1085 OFFCURVE",
"325 1031 OFFCURVE",
"310 955 CURVE",
"303 935 OFFCURVE",
"291 870 OFFCURVE",
"290 858 CURVE SMOOTH",
"289 847 OFFCURVE",
"288 836 OFFCURVE",
"288 825 CURVE",
"264 815 OFFCURVE",
"244 796 OFFCURVE",
"233 771 CURVE SMOOTH",
"221 743 OFFCURVE",
"223 711 OFFCURVE",
"240 687 CURVE SMOOTH",
"261 656 OFFCURVE",
"288 631 OFFCURVE",
"316 616 CURVE SMOOTH",
"328 610 OFFCURVE",
"332 605 OFFCURVE",
"337 595 CURVE SMOOTH",
"355 556 OFFCURVE",
"375 521 OFFCURVE",
"399 492 CURVE",
"375 456 OFFCURVE",
"369 415 OFFCURVE",
"381 374 CURVE",
"351 350 LINE SMOOTH",
"317 321 OFFCURVE",
"282 292 OFFCURVE",
"248 262 CURVE SMOOTH",
"181 202 OFFCURVE",
"139 144 OFFCURVE",
"113 82 CURVE",
"103 55 OFFCURVE",
"99 28 OFFCURVE",
"95 1 CURVE SMOOTH",
"93 -10 OFFCURVE",
"92 -22 OFFCURVE",
"90 -33 CURVE SMOOTH",
"88 -44 OFFCURVE",
"90 -55 OFFCURVE",
"97 -64 CURVE",
"104 -72 OFFCURVE",
"115 -77 OFFCURVE",
"126 -77 CURVE SMOOTH",
"1137 -77 LINE SMOOTH",
"1156 -77 OFFCURVE",
"1172 -62 OFFCURVE",
"1174 -43 CURVE",
"1177 15 OFFCURVE",
"1163 72 OFFCURVE",
"1128 131 CURVE SMOOTH"
);
},
{
closed = 1;
nodes = (
"555 1120 OFFCURVE",
"658 1126 OFFCURVE",
"774 1078 CURVE SMOOTH",
"829 1056 OFFCURVE",
"909 949 OFFCURVE",
"909 813 CURVE SMOOTH",
"909 810 OFFCURVE",
"909 807 OFFCURVE",
"910 803 CURVE",
"910 802 LINE",
"904 777 LINE SMOOTH",
"900 758 OFFCURVE",
"896 738 OFFCURVE",
"894 717 CURVE SMOOTH",
"890 681 OFFCURVE",
"878 649 OFFCURVE",
"860 615 CURVE",
"855 614 OFFCURVE",
"851 613 OFFCURVE",
"847 611 CURVE",
"838 615 OFFCURVE",
"824 625 OFFCURVE",
"819 630 CURVE",
"804 648 OFFCURVE",
"787 663 OFFCURVE",
"769 676 CURVE",
"774 676 OFFCURVE",
"779 676 OFFCURVE",
"784 677 CURVE",
"842 685 OFFCURVE",
"882 720 OFFCURVE",
"899 778 CURVE",
"902 786 OFFCURVE",
"909 810 OFFCURVE",
"894 831 CURVE",
"878 851 OFFCURVE",
"853 851 OFFCURVE",
"845 851 CURVE SMOOTH",
"680 851 LINE SMOOTH",
"674 851 OFFCURVE",
"668 850 OFFCURVE",
"663 847 CURVE",
"647 840 OFFCURVE",
"638 830 OFFCURVE",
"633 822 CURVE",
"631 827 OFFCURVE",
"628 831 OFFCURVE",
"624 835 CURVE",
"617 843 OFFCURVE",
"608 847 OFFCURVE",
"597 848 CURVE",
"544 849 LINE SMOOTH",
"501 850 OFFCURVE",
"459 851 OFFCURVE",
"417 850 CURVE SMOOTH",
"390 850 OFFCURVE",
"376 836 OFFCURVE",
"371 828 CURVE SMOOTH",
"355 804 OFFCURVE",
"366 777 OFFCURVE",
"371 765 CURVE SMOOTH",
"395 708 OFFCURVE",
"442 676 OFFCURVE",
"500 676 CURVE SMOOTH",
"501 676 LINE",
"477 659 OFFCURVE",
"460 640 OFFCURVE",
"446 624 CURVE",
"435 613 OFFCURVE",
"425 601 OFFCURVE",
"417 598 CURVE",
"413 606 OFFCURVE",
"408 615 OFFCURVE",
"404 625 CURVE",
"398 638 OFFCURVE",
"391 649 OFFCURVE",
"382 658 CURVE",
"382 665 OFFCURVE",
"383 674 OFFCURVE",
"381 682 CURVE SMOOTH",
"379 691 LINE SMOOTH",
"368 747 OFFCURVE",
"358 799 OFFCURVE",
"363 851 CURVE SMOOTH",
"364 861 OFFCURVE",
"375 914 OFFCURVE",
"379 928 CURVE SMOOTH",
"381 936 LINE",
"391 994 OFFCURVE",
"416 1033 OFFCURVE",
"459 1060 CURVE SMOOTH"
);
},
{
closed = 1;
nodes = (
"483 747 OFFCURVE",
"462 756 OFFCURVE",
"448 777 CURVE",
"479 777 OFFCURVE",
"511 776 OFFCURVE",
"542 775 CURVE SMOOTH",
"552 775 LINE",
"541 761 OFFCURVE",
"525 752 OFFCURVE",
"510 750 CURVE SMOOTH"
);
},
{
closed = 1;
nodes = (
"819 777 LINE",
"810 761 OFFCURVE",
"795 753 OFFCURVE",
"774 750 CURVE SMOOTH",
"751 747 OFFCURVE",
"726 759 OFFCURVE",
"728 777 CURVE"
);
},
{
closed = 1;
nodes = (
"635 768 OFFCURVE",
"639 762 OFFCURVE",
"642 756 CURVE",
"648 741 OFFCURVE",
"658 727 OFFCURVE",
"669 716 CURVE",
"652 718 OFFCURVE",
"634 719 OFFCURVE",
"615 717 CURVE",
"608 716 OFFCURVE",
"602 716 OFFCURVE",
"596 714 CURVE",
"613 731 OFFCURVE",
"626 752 OFFCURVE",
"632 775 CURVE"
);
},
{
closed = 1;
nodes = (
"676 649 OFFCURVE",
"724 628 OFFCURVE",
"764 582 CURVE",
"768 577 OFFCURVE",
"790 557 OFFCURVE",
"815 545 CURVE",
"793 516 OFFCURVE",
"767 493 OFFCURVE",
"735 474 CURVE SMOOTH",
"661 429 OFFCURVE",
"568 438 OFFCURVE",
"497 496 CURVE SMOOTH",
"483 508 OFFCURVE",
"470 521 OFFCURVE",
"458 536 CURVE",
"474 546 OFFCURVE",
"488 561 OFFCURVE",
"500 575 CURVE SMOOTH",
"528 606 OFFCURVE",
"558 637 OFFCURVE",
"622 644 CURVE SMOOTH"
);
},
{
closed = 1;
nodes = (
"559 504 OFFCURVE",
"591 499 OFFCURVE",
"621 499 CURVE SMOOTH",
"631 499 OFFCURVE",
"641 500 OFFCURVE",
"650 501 CURVE",
"657 501 LINE",
"682 502 OFFCURVE",
"729 505 OFFCURVE",
"753 557 CURVE",
"757 567 OFFCURVE",
"757 578 OFFCURVE",
"753 587 CURVE",
"749 597 OFFCURVE",
"741 604 OFFCURVE",
"731 608 CURVE",
"692 620 OFFCURVE",
"655 619 OFFCURVE",
"622 618 CURVE SMOOTH",
"606 617 OFFCURVE",
"590 616 OFFCURVE",
"574 618 CURVE",
"567 618 LINE SMOOTH",
"562 618 OFFCURVE",
"556 616 OFFCURVE",
"551 614 CURVE",
"540 608 OFFCURVE",
"518 597 OFFCURVE",
"514 571 CURVE",
"513 562 OFFCURVE",
"514 545 OFFCURVE",
"532 529 CURVE SMOOTH"
);
},
{
closed = 1;
nodes = (
"447 401 OFFCURVE",
"446 419 OFFCURVE",
"453 437 CURVE",
"508 394 OFFCURVE",
"570 372 OFFCURVE",
"634 372 CURVE SMOOTH",
"682 372 OFFCURVE",
"730 384 OFFCURVE",
"773 411 CURVE",
"787 419 OFFCURVE",
"801 429 OFFCURVE",
"814 439 CURVE",
"824 417 OFFCURVE",
"817 396 OFFCURVE",
"813 386 CURVE",
"800 358 OFFCURVE",
"774 344 OFFCURVE",
"742 344 CURVE SMOOTH",
"658 345 OFFCURVE",
"593 345 OFFCURVE",
"533 344 CURVE SMOOTH",
"478 342 OFFCURVE",
"462 372 OFFCURVE",
"457 381 CURVE"
);
},
{
closed = 1;
nodes = (
"169 -3 LINE",
"172 18 OFFCURVE",
"175 38 OFFCURVE",
"182 54 CURVE SMOOTH",
"203 106 OFFCURVE",
"239 155 OFFCURVE",
"297 207 CURVE SMOOTH",
"330 237 OFFCURVE",
"364 265 OFFCURVE",
"398 293 CURVE SMOOTH",
"420 311 LINE",
"447 284 OFFCURVE",
"484 270 OFFCURVE",
"529 270 CURVE SMOOTH",
"534 270 LINE SMOOTH",
"594 272 OFFCURVE",
"658 272 OFFCURVE",
"741 270 CURVE SMOOTH",
"783 270 OFFCURVE",
"821 284 OFFCURVE",
"848 311 CURVE",
"851 308 LINE",
"872 289 OFFCURVE",
"894 269 OFFCURVE",
"917 251 CURVE SMOOTH",
"968 210 OFFCURVE",
"1026 160 OFFCURVE",
"1065 94 CURVE SMOOTH",
"1085 60 OFFCURVE",
"1096 28 OFFCURVE",
"1099 -3 CURVE"
);
}
);
width = 1280;
}
);
note = uniF017;
unicode = F017;
},
{
glyphname = uniF018;
lastChange = "2017-08-02 15:03:29 +0000";
layers = (
{
layerId = "489549A1-39E0-4C35-B6CE-29571649E041";
paths = (
{
closed = 1;
nodes = (
"646 838 LINE",
"853 631 LINE",
"768 548 LINE",
"640 678 LINE",
"510 548 LINE",
"427 631 LINE",
"631 838 LINE",
"640 830 LINE"
);
},
{
closed = 1;
nodes = (
"631 160 LINE",
"427 365 LINE",
"510 450 LINE",
"640 320 LINE",
"768 450 LINE",
"853 365 LINE",
"646 160 LINE",
"640 166 LINE"
);
}
);
width = 1280;
}
);
note = uniF018;
unicode = F018;
},
{
glyphname = uniF019;
lastChange = "2017-08-02 15:03:29 +0000";
layers = (
{
layerId = "489549A1-39E0-4C35-B6CE-29571649E041";
paths = (
{
closed = 1;
nodes = (
"621 655 LINE",
"629 649 LINE",
"638 655 LINE",
"843 450 LINE",
"759 367 LINE",
"629 495 LINE",
"499 367 LINE",
"416 450 LINE"
);
}
);
width = 1280;
}
);
note = uniF019;
unicode = F019;
},
{
glyphname = uniF020;
lastChange = "2017-08-02 15:03:29 +0000";
layers = (
{
layerId = "489549A1-39E0-4C35-B6CE-29571649E041";
paths = (
{
closed = 1;
nodes = (
"533 631 LINE",
"661 503 LINE",
"791 631 LINE",
"875 548 LINE",
"670 343 LINE",
"661 350 LINE",
"655 343 LINE",
"448 548 LINE"
);
}
);
width = 1280;
}
);
note = uniF020;
unicode = F020;
},
{
glyphname = uniF021;
lastChange = "2017-08-02 15:03:29 +0000";
layers = (
{
layerId = "489549A1-39E0-4C35-B6CE-29571649E041";
paths = (
{
closed = 1;
nodes = (
"279 811 LINE",
"363 894 LINE",
"653 602 LINE",
"945 894 LINE",
"1026 811 LINE",
"736 521 LINE",
"1026 228 LINE",
"945 147 LINE",
"653 437 LINE",
"363 147 LINE",
"279 228 LINE",
"572 521 LINE"
);
}
);
width = 1280;
}
);
note = uniF021;
unicode = F021;
},
{
glyphname = uniF022;
lastChange = "2017-08-02 15:03:29 +0000";
layers = (
{
layerId = "489549A1-39E0-4C35-B6CE-29571649E041";
paths = (
{
closed = 1;
nodes = (
"949 659 LINE SMOOTH",
"956 659 OFFCURVE",
"963 658 OFFCURVE",
"969 657 CURVE",
"1052 634 OFFCURVE",
"1079 549 OFFCURVE",
"1062 513 CURVE SMOOTH",
"1053 495 OFFCURVE",
"1048 484 OFFCURVE",
"1045 480 CURVE",
"1035 371 LINE",
"1033 371 LINE",
"1050 334 OFFCURVE",
"1052 305 OFFCURVE",
"1039 284 CURVE",
"1025 267 OFFCURVE",
"1015 255 OFFCURVE",
"1009 250 CURVE SMOOTH",
"1003 245 OFFCURVE",
"1000 238 OFFCURVE",
"1001 230 CURVE",
"1000 200 OFFCURVE",
"987 175 OFFCURVE",
"962 154 CURVE",
"945 137 OFFCURVE",
"917 126 OFFCURVE",
"878 123 CURVE SMOOTH",
"839 120 OFFCURVE",
"815 117 OFFCURVE",
"804 116 CURVE",
"783 113 OFFCURVE",
"758 114 OFFCURVE",
"751 117 CURVE",
"704 117 LINE",
"697 120 OFFCURVE",
"687 122 OFFCURVE",
"674 122 CURVE",
"642 124 LINE",
"619 126 LINE",
"471 147 LINE",
"456 137 OFFCURVE",
"442 132 OFFCURVE",
"429 132 CURVE SMOOTH",
"318 132 LINE SMOOTH",
"279 132 OFFCURVE",
"260 151 OFFCURVE",
"260 190 CURVE SMOOTH",
"260 497 LINE SMOOTH",
"260 534 OFFCURVE",
"283 557 OFFCURVE",
"318 557 CURVE SMOOTH",
"429 557 LINE SMOOTH",
"446 557 OFFCURVE",
"460 552 OFFCURVE",
"469 542 CURVE",
"471 542 LINE SMOOTH",
"493 542 OFFCURVE",
"508 551 OFFCURVE",
"516 570 CURVE SMOOTH",
"539 620 OFFCURVE",
"553 652 OFFCURVE",
"559 666 CURVE",
"574 706 OFFCURVE",
"599 737 OFFCURVE",
"634 759 CURVE",
"655 777 OFFCURVE",
"667 816 OFFCURVE",
"672 875 CURVE",
"672 894 LINE",
"674 909 LINE SMOOTH",
"677 933 OFFCURVE",
"689 949 OFFCURVE",
"710 958 CURVE",
"833 1005 OFFCURVE",
"891 844 OFFCURVE",
"855 755 CURVE SMOOTH",
"826 685 LINE",
"815 666 LINE",
"815 664 OFFCURVE",
"814 662 OFFCURVE",
"813 659 CURVE"
);
},
{
closed = 1;
nodes = (
"777 576 LINE SMOOTH",
"738 576 OFFCURVE",
"719 597 OFFCURVE",
"719 640 CURVE",
"720 653 OFFCURVE",
"733 685 OFFCURVE",
"757 736 CURVE SMOOTH",
"779 783 LINE",
"796 830 OFFCURVE",
"766 872 OFFCURVE",
"757 879 CURVE",
"755 879 LINE",
"755 866 LINE",
"740 757 OFFCURVE",
"726 718 OFFCURVE",
"685 693 CURVE SMOOTH",
"665 680 OFFCURVE",
"649 661 OFFCURVE",
"636 634 CURVE",
"620 586 OFFCURVE",
"583 492 OFFCURVE",
"523 467 CURVE",
"514 464 OFFCURVE",
"503 462 OFFCURVE",
"489 459 CURVE",
"489 228 LINE",
"587 213 LINE",
"649 207 LINE",
"683 205 LINE",
"710 201 LINE",
"753 201 LINE",
"760 200 OFFCURVE",
"772 199 OFFCURVE",
"787 198 CURVE",
"877 205 LINE",
"905 210 OFFCURVE",
"912 216 OFFCURVE",
"917 237 CURVE",
"918 274 OFFCURVE",
"933 301 OFFCURVE",
"962 320 CURVE",
"964 322 LINE",
"951 352 LINE SMOOTH",
"940 378 OFFCURVE",
"949 405 OFFCURVE",
"977 433 CURVE",
"976 434 OFFCURVE",
"974 436 OFFCURVE",
"972 440 CURVE SMOOTH",
"970 444 OFFCURVE",
"968 447 OFFCURVE",
"966 448 CURVE",
"947 473 OFFCURVE",
"949 497 OFFCURVE",
"971 518 CURVE",
"976 525 OFFCURVE",
"980 532 OFFCURVE",
"981 538 CURVE",
"984 538 OFFCURVE",
"983 543 OFFCURVE",
"978 554 CURVE SMOOTH",
"973 565 OFFCURVE",
"963 572 OFFCURVE",
"949 576 CURVE"
);
},
{
closed = 1;
nodes = (
"405 474 LINE",
"343 474 LINE",
"343 215 LINE",
"405 215 LINE"
);
}
);
width = 1280;
}
);
note = uniF022;
unicode = F022;
},
{
glyphname = uniF023;
lastChange = "2017-08-02 15:03:29 +0000";
layers = (
{
layerId = "489549A1-39E0-4C35-B6CE-29571649E041";
paths = (
{
closed = 1;
nodes = (
"1084 773 OFFCURVE",
"996 847 OFFCURVE",
"874 857 CURVE",
"866 857 OFFCURVE",
"856 859 OFFCURVE",
"846 861 CURVE",
"445 861 LINE",
"417 853 OFFCURVE",
"387 851 OFFCURVE",
"360 845 CURVE",
"252 815 OFFCURVE",
"180 723 OFFCURVE",
"170 611 CURVE",
"170 603 OFFCURVE",
"168 591 OFFCURVE",
"166 581 CURVE",
"166 180 LINE",
"174 146 OFFCURVE",
"176 117 OFFCURVE",
"184 87 CURVE",
"218 -19 OFFCURVE",
"308 -87 OFFCURVE",
"417 -95 CURVE",
"429 -95 OFFCURVE",
"437 -97 OFFCURVE",
"449 -99 CURVE",
"842 -99 LINE",
"870 -95 OFFCURVE",
"898 -93 OFFCURVE",
"926 -85 CURVE SMOOTH",
"1038 -57 OFFCURVE",
"1114 37 OFFCURVE",
"1122 152 CURVE",
"1122 160 OFFCURVE",
"1124 172 OFFCURVE",
"1126 184 CURVE",
"1126 577 LINE",
"1122 603 OFFCURVE",
"1120 631 OFFCURVE",
"1112 655 CURVE"
);
},
{
closed = 1;
nodes = (
"870 577 OFFCURVE",
"842 607 OFFCURVE",
"844 637 CURVE",
"844 669 OFFCURVE",
"872 695 OFFCURVE",
"902 693 CURVE",
"936 693 OFFCURVE",
"960 667 OFFCURVE",
"960 635 CURVE",
"958 603 OFFCURVE",
"932 577 OFFCURVE",
"902 577 CURVE SMOOTH"
);
},
{
closed = 1;
nodes = (
"509 132 OFFCURVE",
"401 242 OFFCURVE",
"399 380 CURVE",
"399 518 OFFCURVE",
"509 625 OFFCURVE",
"645 627 CURVE SMOOTH",
"783 627 OFFCURVE",
"890 518 OFFCURVE",
"894 382 CURVE SMOOTH",
"894 244 OFFCURVE",
"785 132 OFFCURVE",
"647 132 CURVE SMOOTH"
);
},
{
closed = 1;
nodes = (
"559 538 OFFCURVE",
"489 468 OFFCURVE",
"487 382 CURVE SMOOTH",
"487 292 OFFCURVE",
"559 222 OFFCURVE",
"647 222 CURVE SMOOTH",
"735 222 OFFCURVE",
"805 292 OFFCURVE",
"805 380 CURVE SMOOTH",
"805 468 OFFCURVE",
"735 540 OFFCURVE",
"645 540 CURVE SMOOTH"
);
}
);
width = 1280;
}
);
note = uniF023;
unicode = F023;
},
{
glyphname = uniE002;
lastChange = "2017-08-02 15:03:29 +0000";
layers = (
{
layerId = "489549A1-39E0-4C35-B6CE-29571649E041";
paths = (
{
closed = 1;
nodes = (
"991 177 OFFCURVE",
"1004 183 OFFCURVE",
"1019 183 CURVE SMOOTH",
"1048 183 OFFCURVE",
"1075 163 OFFCURVE",
"1076 110 CURVE SMOOTH",
"1077 57 OFFCURVE",
"1085 -22 OFFCURVE",
"1045 -63 CURVE SMOOTH",
"1025 -84 OFFCURVE",
"1000 -94 OFFCURVE",
"971 -94 CURVE SMOOTH",
"250 -94 LINE SMOOTH",
"226 -94 OFFCURVE",
"201 -83 OFFCURVE",
"175 -62 CURVE",
"155 -39 OFFCURVE",
"145 -15 OFFCURVE",
"145 11 CURVE SMOOTH",
"146 332 OFFCURVE",
"146 654 OFFCURVE",
"145 975 CURVE",
"145 1030 OFFCURVE",
"201 1080 OFFCURVE",
"250 1079 CURVE SMOOTH",
"971 1079 LINE SMOOTH",
"1001 1079 OFFCURVE",
"1026 1068 OFFCURVE",
"1045 1045 CURVE",
"1066 1026 OFFCURVE",
"1077 999 OFFCURVE",
"1076 963 CURVE SMOOTH",
"1075 927 OFFCURVE",
"1075 895 OFFCURVE",
"1076 866 CURVE SMOOTH",
"1077 816 OFFCURVE",
"1059 791 OFFCURVE",
"1020 791 CURVE SMOOTH",
"992 791 OFFCURVE",
"964 815 OFFCURVE",
"964 847 CURVE SMOOTH",
"964 966 LINE",
"256 966 LINE",
"257 650 OFFCURVE",
"257 334 OFFCURVE",
"256 17 CURVE",
"493 18 OFFCURVE",
"729 18 OFFCURVE",
"964 17 CURVE",
"964 128 LINE SMOOTH",
"964 142 OFFCURVE",
"969 155 OFFCURVE",
"980 166 CURVE SMOOTH"
);
},
{
closed = 1;
nodes = (
"983 437 LINE",
"546 437 LINE SMOOTH",
"515 437 OFFCURVE",
"491 462 OFFCURVE",
"491 494 CURVE SMOOTH",
"491 526 OFFCURVE",
"518 552 OFFCURVE",
"546 553 CURVE",
"983 553 LINE",
"911 623 LINE SMOOTH",
"870 664 OFFCURVE",
"888 743 OFFCURVE",
"956 730 CURVE",
"977 723 OFFCURVE",
"991 711 OFFCURVE",
"996 695 CURVE",
"1129 565 LINE",
"1164 528 OFFCURVE",
"1173 456 OFFCURVE",
"1116 412 CURVE",
"1073 368 OFFCURVE",
"1031 325 OFFCURVE",
"988 284 CURVE",
"975 273 OFFCURVE",
"964 267 OFFCURVE",
"954 267 CURVE",
"951 264 OFFCURVE",
"946 263 OFFCURVE",
"939 262 CURVE",
"884 262 OFFCURVE",
"873 313 OFFCURVE",
"885 340 CURVE SMOOTH",
"891 353 OFFCURVE",
"901 363 OFFCURVE",
"915 369 CURVE"
);
}
);
width = 1280;
}
);
note = uniE002;
unicode = E002;
},
{
glyphname = uniED01;
lastChange = "2017-08-02 15:03:29 +0000";
layers = (
{
layerId = "489549A1-39E0-4C35-B6CE-29571649E041";
paths = (
{
closed = 1;
nodes = (
"609 935 OFFCURVE",
"578 916 OFFCURVE",
"563 885 CURVE SMOOTH",
"210 163 LINE SMOOTH",
"193 130 OFFCURVE",
"200 90 OFFCURVE",
"224 63 CURVE SMOOTH",
"241 43 OFFCURVE",
"265 33 OFFCURVE",
"291 33 CURVE SMOOTH",
"301 33 OFFCURVE",
"311 34 OFFCURVE",
"321 38 CURVE SMOOTH",
"626 149 LINE",
"630 150 OFFCURVE",
"633 150 OFFCURVE",
"635 152 CURVE",
"642 148 OFFCURVE",
"649 144 OFFCURVE",
"656 141 CURVE",
"968 38 LINE",
"977 34 OFFCURVE",
"987 33 OFFCURVE",
"997 33 CURVE SMOOTH",
"1022 33 OFFCURVE",
"1048 44 OFFCURVE",
"1065 64 CURVE SMOOTH",
"1089 91 OFFCURVE",
"1093 130 OFFCURVE",
"1078 163 CURVE SMOOTH",
"724 885 LINE SMOOTH",
"710 916 OFFCURVE",
"679 935 OFFCURVE",
"644 935 CURVE SMOOTH"
);
},
{
closed = 1;
nodes = (
"291 123 LINE",
"644 845 LINE",
"997 123 LINE",
"685 227 LINE",
"644 662 LINE",
"596 233 LINE"
);
}
);
width = 1280;
}
);
note = uniED01;
unicode = ED01;
},
{
glyphname = uniED02;
lastChange = "2017-08-02 15:03:29 +0000";
layers = (
{
layerId = "489549A1-39E0-4C35-B6CE-29571649E041";
paths = (
{
closed = 1;
nodes = (
"972 640 LINE",
"972 675 LINE SMOOTH",
"972 724 OFFCURVE",
"965 819 OFFCURVE",
"912 897 CURVE SMOOTH",
"856 980 OFFCURVE",
"766 1023 OFFCURVE",
"651 1019 CURVE SMOOTH",
"448 1013 OFFCURVE",
"331 887 OFFCURVE",
"331 675 CURVE SMOOTH",
"331 640 LINE",
"319 640 LINE SMOOTH",
"273 640 OFFCURVE",
"236 603 OFFCURVE",
"236 557 CURVE SMOOTH",
"236 106 LINE SMOOTH",
"236 60 OFFCURVE",
"273 23 OFFCURVE",
"319 23 CURVE SMOOTH",
"984 23 LINE SMOOTH",
"1030 23 OFFCURVE",
"1067 60 OFFCURVE",
"1067 106 CURVE SMOOTH",
"1067 557 LINE SMOOTH",
"1067 603 OFFCURVE",
"1030 640 OFFCURVE",
"984 640 CURVE SMOOTH"
);
},
{
closed = 1;
nodes = (
"402 640 LINE",
"402 675 LINE SMOOTH",
"402 796 OFFCURVE",
"446 942 OFFCURVE",
"653 948 CURVE SMOOTH",
"665 948 LINE SMOOTH",
"878 948 OFFCURVE",
"901 757 OFFCURVE",
"901 675 CURVE SMOOTH",
"901 640 LINE"
);
},
{
closed = 1;
nodes = (
"995 106 LINE SMOOTH",
"995 99 OFFCURVE",
"991 94 OFFCURVE",
"984 94 CURVE SMOOTH",
"319 94 LINE SMOOTH",
"313 94 OFFCURVE",
"307 99 OFFCURVE",
"307 106 CURVE SMOOTH",
"307 557 LINE SMOOTH",
"307 563 OFFCURVE",
"313 569 OFFCURVE",
"319 569 CURVE SMOOTH",
"984 569 LINE SMOOTH",
"991 569 OFFCURVE",
"995 563 OFFCURVE",
"995 557 CURVE SMOOTH"
);
},
{
closed = 1;
nodes = (
"587 492 OFFCURVE",
"534 439 OFFCURVE",
"534 375 CURVE SMOOTH",
"534 346 OFFCURVE",
"545 319 OFFCURVE",
"563 298 CURVE",
"563 258 LINE SMOOTH",
"563 210 OFFCURVE",
"603 171 OFFCURVE",
"652 171 CURVE SMOOTH",
"701 171 OFFCURVE",
"740 210 OFFCURVE",
"740 258 CURVE SMOOTH",
"740 298 LINE",
"759 319 OFFCURVE",
"769 346 OFFCURVE",
"769 375 CURVE SMOOTH",
"769 439 OFFCURVE",
"716 492 OFFCURVE",
"652 492 CURVE SMOOTH"
);
},
{
closed = 1;
nodes = (
"680 258 LINE SMOOTH",
"680 243 OFFCURVE",
"667 230 OFFCURVE",
"652 230 CURVE SMOOTH",
"636 230 OFFCURVE",
"623 243 OFFCURVE",
"623 258 CURVE SMOOTH",
"623 325 LINE",
"606 335 OFFCURVE",
"594 353 OFFCURVE",
"594 375 CURVE SMOOTH",
"594 407 OFFCURVE",
"619 433 OFFCURVE",
"652 433 CURVE SMOOTH",
"684 433 OFFCURVE",
"710 407 OFFCURVE",
"710 375 CURVE SMOOTH",
"710 353 OFFCURVE",
"698 335 OFFCURVE",
"680 325 CURVE"
);
}
);
width = 1280;
}
);
note = uniED02;
unicode = ED02;
},
{
glyphname = uniED03;
lastChange = "2017-08-02 15:03:29 +0000";
layers = (
{
layerId = "489549A1-39E0-4C35-B6CE-29571649E041";
paths = (
{
closed = 1;
nodes = (
"181 812 LINE SMOOTH",
"103 812 OFFCURVE",
"39 748 OFFCURVE",
"39 670 CURVE SMOOTH",
"39 43 LINE SMOOTH",
"39 -36 OFFCURVE",
"103 -100 OFFCURVE",
"181 -100 CURVE SMOOTH",
"1097 -100 LINE SMOOTH",
"1175 -100 OFFCURVE",
"1239 -36 OFFCURVE",
"1239 43 CURVE SMOOTH",
"1239 670 LINE SMOOTH",
"1239 748 OFFCURVE",
"1175 812 OFFCURVE",
"1097 812 CURVE SMOOTH"
);
},
{
closed = 1;
nodes = (
"1148 43 LINE SMOOTH",
"1148 14 OFFCURVE",
"1126 -9 OFFCURVE",
"1097 -9 CURVE SMOOTH",
"181 -9 LINE SMOOTH",
"152 -9 OFFCURVE",
"129 14 OFFCURVE",
"129 43 CURVE SMOOTH",
"129 670 LINE SMOOTH",
"129 698 OFFCURVE",
"152 721 OFFCURVE",
"181 721 CURVE SMOOTH",
"1097 721 LINE SMOOTH",
"1126 721 OFFCURVE",
"1148 698 OFFCURVE",
"1148 670 CURVE SMOOTH"
);
},
{
closed = 1;
nodes = (
"1061 672 OFFCURVE",
"1033 670 OFFCURVE",
"1016 652 CURVE SMOOTH",
"726 338 LINE SMOOTH",
"706 316 OFFCURVE",
"678 304 OFFCURVE",
"651 304 CURVE SMOOTH",
"623 304 OFFCURVE",
"597 316 OFFCURVE",
"575 338 CURVE",
"286 652 LINE SMOOTH",
"269 670 OFFCURVE",
"241 672 OFFCURVE",
"222 655 CURVE",
"204 637 OFFCURVE",
"203 609 OFFCURVE",
"220 590 CURVE SMOOTH",
"444 347 LINE",
"198 124 LINE SMOOTH",
"180 108 OFFCURVE",
"179 79 OFFCURVE",
"196 61 CURVE",
"204 50 OFFCURVE",
"216 46 OFFCURVE",
"228 46 CURVE SMOOTH",
"240 46 OFFCURVE",
"250 49 OFFCURVE",
"259 57 CURVE SMOOTH",
"505 281 LINE",
"509 277 LINE",
"547 236 OFFCURVE",
"598 213 OFFCURVE",
"651 213 CURVE SMOOTH",
"704 213 OFFCURVE",
"754 236 OFFCURVE",
"793 277 CURVE SMOOTH",
"796 280 LINE",
"1017 59 LINE",
"1025 50 OFFCURVE",
"1037 46 OFFCURVE",
"1049 46 CURVE SMOOTH",
"1060 46 OFFCURVE",
"1072 50 OFFCURVE",
"1081 59 CURVE SMOOTH",
"1098 77 OFFCURVE",
"1098 105 OFFCURVE",
"1081 123 CURVE SMOOTH",
"857 347 LINE",
"1082 590 LINE SMOOTH",
"1099 609 OFFCURVE",
"1097 637 OFFCURVE",
"1080 655 CURVE"
);
}
);
width = 1280;
}
);
note = uniED03;
unicode = ED03;
},
{
glyphname = uniED04;
lastChange = "2017-08-02 15:03:29 +0000";
layers = (
{
layerId = "489549A1-39E0-4C35-B6CE-29571649E041";
paths = (
{
closed = 1;
nodes = (
"376 -8 LINE SMOOTH",
"312 -8 OFFCURVE",
"248 -7 OFFCURVE",
"183 -9 CURVE SMOOTH",
"169 -9 OFFCURVE",
"154 -4 OFFCURVE",
"144 7 CURVE",
"135 15 OFFCURVE",
"127 29 OFFCURVE",
"127 48 CURVE SMOOTH",
"128 254 OFFCURVE",
"127 458 OFFCURVE",
"127 663 CURVE SMOOTH",
"127 679 OFFCURVE",
"132 695 OFFCURVE",
"141 706 CURVE",
"152 716 OFFCURVE",
"166 722 OFFCURVE",
"184 722 CURVE SMOOTH",
"1089 722 LINE SMOOTH",
"1099 722 OFFCURVE",
"1112 717 OFFCURVE",
"1122 712 CURVE",
"1134 708 OFFCURVE",
"1148 694 OFFCURVE",
"1148 660 CURVE SMOOTH",
"1148 208 LINE",
"1242 208 LINE",
"1242 660 LINE SMOOTH",
"1242 723 OFFCURVE",
"1214 771 OFFCURVE",
"1167 796 CURVE SMOOTH",
"1144 808 OFFCURVE",
"1116 814 OFFCURVE",
"1089 814 CURVE SMOOTH",
"829 816 OFFCURVE",
"568 816 OFFCURVE",
"308 816 CURVE SMOOTH",
"184 816 LINE SMOOTH",
"141 816 OFFCURVE",
"103 800 OFFCURVE",
"75 773 CURVE SMOOTH",
"45 743 OFFCURVE",
"31 706 OFFCURVE",
"31 663 CURVE SMOOTH",
"32 458 OFFCURVE",
"32 254 OFFCURVE",
"31 49 CURVE SMOOTH",
"31 7 OFFCURVE",
"48 -32 OFFCURVE",
"76 -61 CURVE SMOOTH",
"106 -90 OFFCURVE",
"144 -104 OFFCURVE",
"181 -104 CURVE SMOOTH",
"185 -104 LINE SMOOTH",
"249 -102 OFFCURVE",
"312 -102 OFFCURVE",
"375 -103 CURVE SMOOTH",
"451 -103 LINE SMOOTH",
"478 -103 OFFCURVE",
"499 -84 OFFCURVE",
"499 -56 CURVE SMOOTH",
"499 -29 OFFCURVE",
"478 -9 OFFCURVE",
"451 -9 CURVE SMOOTH"
);
},
{
closed = 1;
nodes = (
"1061 556 LINE",
"1067 562 OFFCURVE",
"1072 567 OFFCURVE",
"1076 572 CURVE",
"1081 579 LINE",
"1099 598 OFFCURVE",
"1097 628 OFFCURVE",
"1077 646 CURVE SMOOTH",
"1058 663 OFFCURVE",
"1028 661 OFFCURVE",
"1010 641 CURVE SMOOTH",
"950 574 LINE SMOOTH",
"918 537 OFFCURVE",
"884 501 OFFCURVE",
"850 467 CURVE",
"825 438 OFFCURVE",
"799 410 OFFCURVE",
"774 382 CURVE SMOOTH",
"754 359 OFFCURVE",
"734 336 OFFCURVE",
"711 313 CURVE",
"692 292 OFFCURVE",
"662 283 OFFCURVE",
"632 283 CURVE SMOOTH",
"601 283 OFFCURVE",
"575 295 OFFCURVE",
"557 318 CURVE",
"544 333 OFFCURVE",
"532 347 OFFCURVE",
"518 360 CURVE",
"262 642 LINE SMOOTH",
"245 661 OFFCURVE",
"215 663 OFFCURVE",
"195 645 CURVE SMOOTH",
"176 627 OFFCURVE",
"175 598 OFFCURVE",
"192 578 CURVE SMOOTH",
"424 323 LINE",
"400 301 OFFCURVE",
"375 282 OFFCURVE",
"351 259 CURVE",
"314 226 OFFCURVE",
"278 191 OFFCURVE",
"241 158 CURVE SMOOTH",
"192 113 LINE",
"172 96 OFFCURVE",
"171 66 OFFCURVE",
"190 46 CURVE",
"198 36 OFFCURVE",
"211 31 OFFCURVE",
"224 31 CURVE SMOOTH",
"235 31 OFFCURVE",
"247 35 OFFCURVE",
"256 43 CURVE SMOOTH",
"305 89 LINE SMOOTH",
"341 121 OFFCURVE",
"378 156 OFFCURVE",
"414 188 CURVE SMOOTH",
"438 210 OFFCURVE",
"463 231 OFFCURVE",
"487 251 CURVE",
"489 252 LINE",
"525 213 OFFCURVE",
"574 188 OFFCURVE",
"629 187 CURVE SMOOTH",
"636 187 LINE SMOOTH",
"691 187 OFFCURVE",
"743 209 OFFCURVE",
"781 248 CURVE SMOOTH",
"783 250 OFFCURVE",
"785 252 OFFCURVE",
"786 254 CURVE",
"899 152 LINE",
"908 143 OFFCURVE",
"919 139 OFFCURVE",
"930 139 CURVE SMOOTH",
"943 139 OFFCURVE",
"956 144 OFFCURVE",
"964 155 CURVE",
"982 174 OFFCURVE",
"981 204 OFFCURVE",
"962 222 CURVE SMOOTH",
"849 324 LINE",
"873 351 OFFCURVE",
"896 376 OFFCURVE",
"919 399 CURVE",
"953 436 OFFCURVE",
"988 474 OFFCURVE",
"1021 511 CURVE SMOOTH"
);
},
{
closed = 1;
nodes = (
"1233 40 OFFCURVE",
"1193 71 OFFCURVE",
"1141 82 CURVE SMOOTH",
"1079 96 OFFCURVE",
"1018 82 OFFCURVE",
"973 41 CURVE",
"971 38 OFFCURVE",
"970 38 OFFCURVE",
"959 38 CURVE SMOOTH",
"712 38 LINE SMOOTH",
"659 38 OFFCURVE",
"624 12 OFFCURVE",
"603 -9 CURVE SMOOTH",
"579 -32 OFFCURVE",
"569 -66 OFFCURVE",
"578 -98 CURVE SMOOTH",
"585 -122 OFFCURVE",
"597 -143 OFFCURVE",
"615 -158 CURVE SMOOTH",
"647 -184 OFFCURVE",
"684 -200 OFFCURVE",
"725 -200 CURVE",
"750 -199 OFFCURVE",
"775 -199 OFFCURVE",
"799 -199 CURVE SMOOTH",
"928 -199 LINE",
"962 -261 OFFCURVE",
"1022 -298 OFFCURVE",
"1093 -298 CURVE SMOOTH",
"1096 -298 LINE SMOOTH",
"1184 -298 OFFCURVE",
"1258 -242 OFFCURVE",
"1283 -154 CURVE SMOOTH",
"1301 -90 OFFCURVE",
"1278 -38 OFFCURVE",
"1259 -6 CURVE SMOOTH"
);
},
{
closed = 1;
nodes = (
"1178 -175 OFFCURVE",
"1143 -205 OFFCURVE",
"1096 -205 CURVE",
"1096 -250 LINE",
"1093 -205 LINE",
"1057 -205 OFFCURVE",
"1029 -185 OFFCURVE",
"1011 -153 CURVE",
"995 -120 OFFCURVE",
"966 -103 OFFCURVE",
"926 -103 CURVE SMOOTH",
"799 -103 LINE SMOOTH",
"774 -103 OFFCURVE",
"749 -103 OFFCURVE",
"721 -104 CURVE",
"706 -104 OFFCURVE",
"691 -98 OFFCURVE",
"676 -86 CURVE",
"674 -85 OFFCURVE",
"672 -80 OFFCURVE",
"668 -78 CURVE",
"685 -61 OFFCURVE",
"698 -54 OFFCURVE",
"715 -54 CURVE SMOOTH",
"716 -54 LINE",
"748 -56 OFFCURVE",
"781 -56 OFFCURVE",
"812 -56 CURVE SMOOTH",
"959 -56 LINE SMOOTH",
"981 -56 OFFCURVE",
"1009 -52 OFFCURVE",
"1036 -28 CURVE SMOOTH",
"1058 -8 OFFCURVE",
"1086 -3 OFFCURVE",
"1119 -10 CURVE SMOOTH",
"1147 -16 OFFCURVE",
"1164 -29 OFFCURVE",
"1178 -52 CURVE",
"1194 -84 OFFCURVE",
"1198 -104 OFFCURVE",
"1192 -127 CURVE SMOOTH"
);
},
{
closed = 1;
nodes = (
"1087 -57 LINE SMOOTH",
"1060 -57 OFFCURVE",
"1041 -80 OFFCURVE",
"1041 -104 CURVE SMOOTH",
"1041 -131 OFFCURVE",
"1060 -153 OFFCURVE",
"1087 -153 CURVE SMOOTH",
"1100 -153 LINE SMOOTH",
"1128 -153 OFFCURVE",
"1149 -131 OFFCURVE",
"1149 -104 CURVE SMOOTH",
"1149 -80 OFFCURVE",
"1128 -57 OFFCURVE",
"1100 -57 CURVE SMOOTH"
);
}
);
width = 1280;
}
);
note = uniED04;
unicode = ED04;
},
{
glyphname = uniED05;
lastChange = "2017-08-02 15:03:29 +0000";
layers = (
{
layerId = "489549A1-39E0-4C35-B6CE-29571649E041";
paths = (
{
closed = 1;
nodes = (
"945 550 LINE",
"1060 446 LINE",
"1028 414 LINE SMOOTH",
"979 364 OFFCURVE",
"920 336 OFFCURVE",
"849 329 CURVE",
"832 -85 LINE",
"471 -85 LINE",
"446 333 LINE",
"401 342 OFFCURVE",
"364 356 OFFCURVE",
"334 375 CURVE SMOOTH",
"304 393 OFFCURVE",
"286 405 OFFCURVE",
"279 412 CURVE SMOOTH",
"245 444 LINE",
"354 546 LINE",
"354 802 LINE SMOOTH",
"354 945 OFFCURVE",
"416 1035 OFFCURVE",
"540 1073 CURVE",
"469 1153 OFFCURVE",
"469 1277 OFFCURVE",
"536 1352 CURVE SMOOTH",
"569 1389 OFFCURVE",
"611 1408 OFFCURVE",
"660 1408 CURVE SMOOTH",
"756 1408 OFFCURVE",
"834 1319 OFFCURVE",
"834 1212 CURVE SMOOTH",
"834 1159 OFFCURVE",
"815 1111 OFFCURVE",
"777 1069 CURVE",
"889 1031 OFFCURVE",
"945 935 OFFCURVE",
"945 781 CURVE SMOOTH"
);
},
{
closed = 1;
nodes = (
"704 1312 OFFCURVE",
"686 1323 OFFCURVE",
"666 1323 CURVE SMOOTH",
"646 1323 OFFCURVE",
"630 1318 OFFCURVE",
"617 1308 CURVE SMOOTH",
"588 1285 OFFCURVE",
"574 1253 OFFCURVE",
"574 1212 CURVE SMOOTH",
"574 1171 OFFCURVE",
"588 1140 OFFCURVE",
"617 1121 CURVE SMOOTH",
"630 1112 OFFCURVE",
"644 1107 OFFCURVE",
"659 1107 CURVE SMOOTH",
"726 1107 OFFCURVE",
"747 1171 OFFCURVE",
"747 1222 CURVE SMOOTH",
"747 1247 OFFCURVE",
"738 1270 OFFCURVE",
"721 1291 CURVE SMOOTH"
);
},
{
closed = 1;
nodes = (
"653 1003 LINE SMOOTH",
"585 1003 OFFCURVE",
"532 985 OFFCURVE",
"493 949 CURVE",
"466 922 OFFCURVE",
"449 888 OFFCURVE",
"444 847 CURVE",
"468 882 OFFCURVE",
"502 900 OFFCURVE",
"546 900 CURVE SMOOTH",
"590 900 OFFCURVE",
"623 882 OFFCURVE",
"646 845 CURVE",
"669 882 OFFCURVE",
"704 900 OFFCURVE",
"752 900 CURVE SMOOTH",
"800 900 OFFCURVE",
"834 877 OFFCURVE",
"855 832 CURVE",
"848 877 OFFCURVE",
"839 909 OFFCURVE",
"828 928 CURVE",
"791 978 OFFCURVE",
"735 1003 OFFCURVE",
"659 1003 CURVE SMOOTH"
);
},
{
closed = 1;
nodes = (
"493 759 OFFCURVE",
"516 736 OFFCURVE",
"552 736 CURVE SMOOTH",
"588 736 OFFCURVE",
"599 766 OFFCURVE",
"599 790 CURVE SMOOTH",
"599 811 OFFCURVE",
"574 836 OFFCURVE",
"546 836 CURVE SMOOTH",
"518 836 OFFCURVE",
"493 813 OFFCURVE",
"493 786 CURVE SMOOTH"
);
},
{
closed = 1;
nodes = (
"775 831 OFFCURVE",
"763 836 OFFCURVE",
"749 836 CURVE SMOOTH",
"721 836 OFFCURVE",
"696 813 OFFCURVE",
"695 786 CURVE",
"695 759 OFFCURVE",
"718 736 OFFCURVE",
"753 736 CURVE SMOOTH",
"788 736 OFFCURVE",
"802 766 OFFCURVE",
"802 790 CURVE SMOOTH",
"802 801 OFFCURVE",
"797 811 OFFCURVE",
"786 821 CURVE SMOOTH"
);
},
{
closed = 1;
nodes = (
"828 657 LINE",
"860 627 LINE",
"860 749 LINE",
"851 725 OFFCURVE",
"837 706 OFFCURVE",
"817 693 CURVE"
);
},
{
closed = 1;
nodes = (
"442 627 LINE",
"476 659 LINE",
"482 691 LINE",
"465 700 OFFCURVE",
"452 713 OFFCURVE",
"442 730 CURVE"
);
},
{
closed = 1;
nodes = (
"529 410 LINE",
"553 2 LINE",
"610 2 LINE",
"610 384 LINE",
"695 384 LINE",
"695 2 LINE",
"749 2 LINE",
"766 416 LINE",
"811 414 LINE SMOOTH",
"852 411 OFFCURVE",
"892 422 OFFCURVE",
"930 446 CURVE",
"751 610 LINE",
"734 672 LINE",
"695 679 OFFCURVE",
"666 698 OFFCURVE",
"646 727 CURVE",
"629 698 OFFCURVE",
"602 681 OFFCURVE",
"565 674 CURVE",
"557 617 LINE",
"378 448 LINE",
"411 429 OFFCURVE",
"448 418 OFFCURVE",
"491 414 CURVE SMOOTH"
);
}
);
width = 1280;
}
);
note = uniED05;
unicode = ED05;
},
{
glyphname = uniED06;
lastChange = "2017-08-02 15:03:29 +0000";
layers = (
{
layerId = "489549A1-39E0-4C35-B6CE-29571649E041";
paths = (
{
closed = 1;
nodes = (
"1011 414 LINE",
"1009 380 LINE",
"877 350 LINE",
"877 -81 LINE",
"407 -81 LINE",
"407 348 LINE",
"279 382 LINE",
"279 847 LINE",
"278 874 OFFCURVE",
"307 930 OFFCURVE",
"335 962 CURVE SMOOTH",
"363 994 OFFCURVE",
"426 1030 OFFCURVE",
"499 1045 CURVE",
"455 1087 OFFCURVE",
"433 1138 OFFCURVE",
"433 1198 CURVE SMOOTH",
"433 1318 OFFCURVE",
"525 1412 OFFCURVE",
"638 1412 CURVE SMOOTH",
"751 1412 OFFCURVE",
"843 1317 OFFCURVE",
"843 1200 CURVE SMOOTH",
"843 1141 OFFCURVE",
"822 1090 OFFCURVE",
"779 1047 CURVE",
"781 1047 LINE SMOOTH",
"930 1047 OFFCURVE",
"1006 939 OFFCURVE",
"1011 828 CURVE SMOOTH",
"1014 772 OFFCURVE",
"1015 709 OFFCURVE",
"1015 638 CURVE SMOOTH",
"1015 567 OFFCURVE",
"1014 502 OFFCURVE",
"1012 444 CURVE SMOOTH"
);
},
{
closed = 1;
nodes = (
"743 1137 OFFCURVE",
"755 1167 OFFCURVE",
"755 1201 CURVE SMOOTH",
"755 1269 OFFCURVE",
"701 1328 OFFCURVE",
"637 1327 CURVE SMOOTH",
"573 1327 OFFCURVE",
"521 1271 OFFCURVE",
"521 1202 CURVE SMOOTH",
"521 1133 OFFCURVE",
"573 1076 OFFCURVE",
"637 1076 CURVE SMOOTH",
"669 1076 OFFCURVE",
"697 1088 OFFCURVE",
"720 1112 CURVE SMOOTH"
);
},
{
closed = 1;
nodes = (
"702 962 LINE",
"589 962 LINE",
"644 909 LINE"
);
},
{
closed = 1;
nodes = (
"365 448 LINE",
"407 437 LINE",
"407 770 LINE",
"495 770 LINE",
"495 6 LINE",
"595 6 LINE",
"599 444 LINE",
"687 444 LINE",
"681 6 LINE",
"791 6 LINE",
"791 770 LINE",
"877 770 LINE",
"877 439 LINE",
"926 450 LINE",
"930 609 OFFCURVE",
"929 735 OFFCURVE",
"924 826 CURVE SMOOTH",
"918 893 OFFCURVE",
"883 935 OFFCURVE",
"819 954 CURVE",
"642 791 LINE",
"474 949 LINE",
"419 929 OFFCURVE",
"373 882 OFFCURVE",
"365 841 CURVE"
);
}
);
width = 1280;
}
);
note = uniED06;
unicode = ED06;
},
{
glyphname = uniED07;
lastChange = "2017-08-02 15:03:29 +0000";
layers = (
{
layerId = "489549A1-39E0-4C35-B6CE-29571649E041";
paths = (
{
closed = 1;
nodes = (
"589 943 LINE",
"695 943 LINE",
"695 570 LINE",
"1069 570 LINE",
"1069 463 LINE",
"695 463 LINE",
"695 90 LINE",
"589 90 LINE",
"589 463 LINE",
"215 463 LINE",
"215 570 LINE",
"589 570 LINE"
);
}
);
width = 1280;
}
);
note = uniED07;
unicode = ED07;
},
{
glyphname = uniED08;
lastChange = "2017-08-02 15:03:29 +0000";
layers = (
{
layerId = "489549A1-39E0-4C35-B6CE-29571649E041";
paths = (
{
closed = 1;
nodes = (
"203 570 LINE",
"1056 570 LINE",
"1056 463 LINE",
"203 463 LINE"
);
}
);
width = 1280;
}
);
note = uniED08;
unicode = ED08;
},
{
glyphname = uniED09;
lastChange = "2017-08-02 15:03:29 +0000";
layers = (
{
layerId = "489549A1-39E0-4C35-B6CE-29571649E041";
paths = (
{
closed = 1;
nodes = (
"979 221 OFFCURVE",
"960 254 OFFCURVE",
"951 294 CURVE SMOOTH",
"946 318 OFFCURVE",
"944 345 OFFCURVE",
"944 365 CURVE SMOOTH",
"944 377 LINE",
"943 428 OFFCURVE",
"941 480 OFFCURVE",
"930 533 CURVE SMOOTH",
"914 616 OFFCURVE",
"868 678 OFFCURVE",
"790 724 CURVE SMOOTH",
"776 732 OFFCURVE",
"762 739 OFFCURVE",
"749 744 CURVE",
"776 791 OFFCURVE",
"765 847 OFFCURVE",
"721 884 CURVE SMOOTH",
"683 915 OFFCURVE",
"624 915 OFFCURVE",
"585 884 CURVE SMOOTH",
"540 846 OFFCURVE",
"529 789 OFFCURVE",
"557 743 CURVE",
"545 737 OFFCURVE",
"533 732 OFFCURVE",
"521 725 CURVE",
"438 681 OFFCURVE",
"388 613 OFFCURVE",
"372 522 CURVE",
"369 508 OFFCURVE",
"369 495 OFFCURVE",
"369 483 CURVE SMOOTH",
"369 477 OFFCURVE",
"369 471 OFFCURVE",
"368 466 CURVE",
"367 449 OFFCURVE",
"365 432 OFFCURVE",
"365 415 CURVE",
"362 374 OFFCURVE",
"360 335 OFFCURVE",
"354 296 CURVE SMOOTH",
"349 259 OFFCURVE",
"331 227 OFFCURVE",
"302 202 CURVE",
"283 184 OFFCURVE",
"272 163 OFFCURVE",
"274 135 CURVE SMOOTH",
"276 90 OFFCURVE",
"302 63 OFFCURVE",
"347 63 CURVE SMOOTH",
"515 63 LINE",
"511 59 LINE SMOOTH",
"497 44 OFFCURVE",
"498 20 OFFCURVE",
"513 6 CURVE",
"515 5 OFFCURVE",
"517 3 OFFCURVE",
"519 1 CURVE",
"547 -55 OFFCURVE",
"594 -85 OFFCURVE",
"653 -85 CURVE SMOOTH",
"712 -85 OFFCURVE",
"760 -55 OFFCURVE",
"787 1 CURVE",
"789 2 OFFCURVE",
"791 4 OFFCURVE",
"793 6 CURVE SMOOTH",
"808 20 OFFCURVE",
"808 43 OFFCURVE",
"795 58 CURVE",
"793 60 OFFCURVE",
"791 62 OFFCURVE",
"789 63 CURVE",
"955 63 LINE",
"956 63 LINE SMOOTH",
"994 63 OFFCURVE",
"1022 81 OFFCURVE",
"1030 113 CURVE SMOOTH",
"1040 148 OFFCURVE",
"1032 177 OFFCURVE",
"1008 197 CURVE SMOOTH"
);
},
{
closed = 1;
nodes = (
"644 834 OFFCURVE",
"662 834 OFFCURVE",
"674 826 CURVE",
"679 820 OFFCURVE",
"698 802 OFFCURVE",
"684 780 CURVE SMOOTH",
"680 774 OFFCURVE",
"677 768 OFFCURVE",
"674 762 CURVE",
"660 762 OFFCURVE",
"646 763 OFFCURVE",
"632 763 CURVE",
"629 769 OFFCURVE",
"625 775 OFFCURVE",
"622 780 CURVE SMOOTH",
"608 802 OFFCURVE",
"626 820 OFFCURVE",
"633 826 CURVE"
);
},
{
closed = 1;
nodes = (
"959 138 LINE",
"958 137 OFFCURVE",
"958 138 OFFCURVE",
"956 137 CURVE",
"873 138 OFFCURVE",
"790 138 OFFCURVE",
"708 138 CURVE SMOOTH",
"348 138 LINE",
"349 143 OFFCURVE",
"349 143 OFFCURVE",
"351 145 CURVE",
"394 182 OFFCURVE",
"420 230 OFFCURVE",
"428 285 CURVE SMOOTH",
"434 327 OFFCURVE",
"437 370 OFFCURVE",
"440 411 CURVE",
"440 427 OFFCURVE",
"441 444 OFFCURVE",
"443 460 CURVE",
"443 467 OFFCURVE",
"443 474 OFFCURVE",
"444 482 CURVE",
"444 491 OFFCURVE",
"444 499 OFFCURVE",
"445 509 CURVE",
"458 577 OFFCURVE",
"494 626 OFFCURVE",
"556 659 CURVE SMOOTH",
"570 667 OFFCURVE",
"585 673 OFFCURVE",
"600 680 CURVE SMOOTH",
"619 689 LINE",
"623 688 LINE",
"644 688 OFFCURVE",
"663 688 OFFCURVE",
"683 687 CURVE",
"687 687 OFFCURVE",
"689 687 OFFCURVE",
"691 688 CURVE",
"701 684 LINE",
"719 676 OFFCURVE",
"737 669 OFFCURVE",
"751 660 CURVE",
"812 624 OFFCURVE",
"845 580 OFFCURVE",
"858 518 CURVE SMOOTH",
"867 472 OFFCURVE",
"868 425 OFFCURVE",
"869 376 CURVE SMOOTH",
"869 363 LINE SMOOTH",
"869 339 OFFCURVE",
"871 308 OFFCURVE",
"878 277 CURVE SMOOTH",
"891 221 OFFCURVE",
"919 174 OFFCURVE",
"959 141 CURVE"
);
},
{
closed = 1;
nodes = (
"745 63 LINE",
"741 60 LINE SMOOTH",
"736 56 OFFCURVE",
"726 49 OFFCURVE",
"721 37 CURVE SMOOTH",
"707 5 OFFCURVE",
"685 -10 OFFCURVE",
"653 -10 CURVE SMOOTH",
"621 -10 OFFCURVE",
"600 5 OFFCURVE",
"585 38 CURVE",
"579 49 OFFCURVE",
"571 56 OFFCURVE",
"563 62 CURVE",
"562 63 LINE",
"598 63 LINE"
);
}
);
width = 1280;
}
);
note = uniED09;
unicode = ED09;
},
{
glyphname = uniED10;
lastChange = "2017-08-02 15:03:29 +0000";
layers = (
{
layerId = "489549A1-39E0-4C35-B6CE-29571649E041";
paths = (
{
closed = 1;
nodes = (
"896 -118 LINE",
"821 -96 LINE SMOOTH",
"788 -87 OFFCURVE",
"703 -43 OFFCURVE",
"677 -17 CURVE",
"631 19 OFFCURVE",
"587 71 OFFCURVE",
"566 98 CURVE",
"511 99 OFFCURVE",
"386 106 OFFCURVE",
"291 144 CURVE SMOOTH",
"126 210 OFFCURVE",
"26 325 OFFCURVE",
"10 469 CURVE SMOOTH",
"-6 612 OFFCURVE",
"68 761 OFFCURVE",
"198 850 CURVE SMOOTH",
"335 944 OFFCURVE",
"503 996 OFFCURVE",
"670 996 CURVE SMOOTH",
"847 996 OFFCURVE",
"1012 939 OFFCURVE",
"1134 835 CURVE SMOOTH",
"1219 762 OFFCURVE",
"1268 659 OFFCURVE",
"1271 545 CURVE SMOOTH",
"1274 434 OFFCURVE",
"1233 328 OFFCURVE",
"1157 255 CURVE SMOOTH",
"1063 165 OFFCURVE",
"915 128 OFFCURVE",
"843 115 CURVE",
"845 97 OFFCURVE",
"847 78 OFFCURVE",
"849 65 CURVE SMOOTH",
"855 31 OFFCURVE",
"875 -42 OFFCURVE",
"875 -43 CURVE"
);
},
{
closed = 1;
nodes = (
"521 908 OFFCURVE",
"370 862 OFFCURVE",
"247 778 CURVE SMOOTH",
"144 707 OFFCURVE",
"85 590 OFFCURVE",
"97 479 CURVE SMOOTH",
"110 368 OFFCURVE",
"190 278 OFFCURVE",
"323 226 CURVE SMOOTH",
"423 186 OFFCURVE",
"568 185 OFFCURVE",
"585 185 CURVE SMOOTH",
"607 185 LINE",
"623 167 LINE",
"623 166 OFFCURVE",
"677 94 OFFCURVE",
"735 48 CURVE",
"741 42 OFFCURVE",
"753 34 OFFCURVE",
"768 25 CURVE",
"766 34 OFFCURVE",
"764 43 OFFCURVE",
"763 50 CURVE SMOOTH",
"758 81 OFFCURVE",
"752 145 OFFCURVE",
"752 148 CURVE",
"748 191 LINE",
"791 196 LINE",
"793 196 OFFCURVE",
"992 218 OFFCURVE",
"1097 319 CURVE SMOOTH",
"1154 374 OFFCURVE",
"1186 456 OFFCURVE",
"1184 543 CURVE SMOOTH",
"1181 632 OFFCURVE",
"1143 712 OFFCURVE",
"1077 768 CURVE SMOOTH",
"971 859 OFFCURVE",
"827 908 OFFCURVE",
"670 908 CURVE SMOOTH"
);
},
{
closed = 1;
nodes = (
"349 382 LINE SMOOTH",
"282 382 OFFCURVE",
"227 431 OFFCURVE",
"219 497 CURVE SMOOTH",
"211 568 OFFCURVE",
"258 630 OFFCURVE",
"331 643 CURVE",
"340 645 OFFCURVE",
"348 644 OFFCURVE",
"354 644 CURVE SMOOTH",
"358 644 LINE SMOOTH",
"362 644 OFFCURVE",
"365 644 OFFCURVE",
"369 643 CURVE SMOOTH",
"399 636 OFFCURVE",
"423 623 OFFCURVE",
"443 603 CURVE SMOOTH",
"476 570 OFFCURVE",
"488 512 OFFCURVE",
"471 466 CURVE SMOOTH",
"453 418 OFFCURVE",
"404 383 OFFCURVE",
"352 382 CURVE SMOOTH"
);
},
{
closed = 1;
nodes = (
"603 382 OFFCURVE",
"570 396 OFFCURVE",
"546 420 CURVE SMOOTH",
"521 445 OFFCURVE",
"508 478 OFFCURVE",
"508 513 CURVE SMOOTH",
"509 586 OFFCURVE",
"566 643 OFFCURVE",
"639 644 CURVE",
"676 642 OFFCURVE",
"709 629 OFFCURVE",
"734 603 CURVE SMOOTH",
"758 578 OFFCURVE",
"771 546 OFFCURVE",
"769 512 CURVE",
"769 438 OFFCURVE",
"713 383 OFFCURVE",
"637 382 CURVE SMOOTH"
);
},
{
closed = 1;
nodes = (
"877 381 OFFCURVE",
"827 415 OFFCURVE",
"807 469 CURVE SMOOTH",
"792 507 OFFCURVE",
"798 551 OFFCURVE",
"822 586 CURVE SMOOTH",
"846 622 OFFCURVE",
"886 643 OFFCURVE",
"929 644 CURVE SMOOTH",
"939 644 LINE SMOOTH",
"942 644 OFFCURVE",
"945 644 OFFCURVE",
"947 643 CURVE",
"981 637 OFFCURVE",
"1010 620 OFFCURVE",
"1032 594 CURVE SMOOTH",
"1059 562 OFFCURVE",
"1068 518 OFFCURVE",
"1056 476 CURVE SMOOTH",
"1043 433 OFFCURVE",
"1011 401 OFFCURVE",
"967 387 CURVE SMOOTH",
"955 383 OFFCURVE",
"942 381 OFFCURVE",
"930 381 CURVE SMOOTH"
);
},
{
closed = 1;
nodes = (
"319 552 OFFCURVE",
"303 532 OFFCURVE",
"306 507 CURVE SMOOTH",
"308 488 OFFCURVE",
"322 469 OFFCURVE",
"350 469 CURVE",
"368 470 OFFCURVE",
"384 484 OFFCURVE",
"389 497 CURVE SMOOTH",
"394 510 OFFCURVE",
"390 533 OFFCURVE",
"382 541 CURVE",
"374 548 OFFCURVE",
"365 553 OFFCURVE",
"353 557 CURVE"
);
},
{
closed = 1;
nodes = (
"930 557 LINE",
"930 556 LINE",
"910 556 OFFCURVE",
"898 542 OFFCURVE",
"894 537 CURVE",
"886 525 OFFCURVE",
"884 511 OFFCURVE",
"889 500 CURVE",
"897 477 OFFCURVE",
"921 464 OFFCURVE",
"941 471 CURVE",
"962 477 OFFCURVE",
"969 492 OFFCURVE",
"972 501 CURVE SMOOTH",
"976 514 OFFCURVE",
"973 528 OFFCURVE",
"965 538 CURVE SMOOTH",
"956 549 OFFCURVE",
"946 554 OFFCURVE",
"931 557 CURVE"
);
},
{
closed = 1;
nodes = (
"615 556 OFFCURVE",
"596 538 OFFCURVE",
"595 513 CURVE",
"595 498 OFFCURVE",
"602 488 OFFCURVE",
"608 482 CURVE SMOOTH",
"616 474 OFFCURVE",
"626 470 OFFCURVE",
"636 470 CURVE SMOOTH",
"664 470 OFFCURVE",
"682 486 OFFCURVE",
"682 512 CURVE SMOOTH",
"682 515 LINE SMOOTH",
"682 528 OFFCURVE",
"676 537 OFFCURVE",
"671 542 CURVE",
"663 551 OFFCURVE",
"651 556 OFFCURVE",
"640 556 CURVE SMOOTH"
);
}
);
width = 1280;
}
);
note = uniED10;
unicode = ED10;
},
{
glyphname = uniED11;
lastChange = "2017-08-02 15:03:29 +0000";
layers = (
{
layerId = "489549A1-39E0-4C35-B6CE-29571649E041";
paths = (
{
closed = 1;
nodes = (
"322 28 LINE",
"319 31 OFFCURVE",
"316 33 OFFCURVE",
"313 34 CURVE",
"313 528 LINE",
"456 528 LINE SMOOTH",
"497 529 OFFCURVE",
"517 549 OFFCURVE",
"517 590 CURVE SMOOTH",
"517 645 OFFCURVE",
"518 700 OFFCURVE",
"517 755 CURVE",
"517 760 OFFCURVE",
"517 767 OFFCURVE",
"515 774 CURVE",
"888 774 LINE",
"888 341 LINE SMOOTH",
"888 320 OFFCURVE",
"905 303 OFFCURVE",
"926 303 CURVE SMOOTH",
"948 303 OFFCURVE",
"965 320 OFFCURVE",
"965 341 CURVE SMOOTH",
"965 788 LINE SMOOTH",
"965 830 OFFCURVE",
"945 851 OFFCURVE",
"903 851 CURVE SMOOTH",
"503 851 LINE",
"475 850 OFFCURVE",
"458 840 OFFCURVE",
"448 828 CURVE",
"436 821 OFFCURVE",
"423 809 OFFCURVE",
"408 791 CURVE SMOOTH",
"397 777 OFFCURVE",
"385 765 OFFCURVE",
"374 752 CURVE SMOOTH",
"272 639 LINE",
"255 618 LINE",
"242 600 OFFCURVE",
"236 545 OFFCURVE",
"236 542 CURVE SMOOTH",
"236 33 LINE SMOOTH",
"236 -2 OFFCURVE",
"253 -20 OFFCURVE",
"271 -30 CURVE",
"287 -49 OFFCURVE",
"308 -49 OFFCURVE",
"319 -49 CURVE SMOOTH",
"665 -49 LINE SMOOTH",
"686 -49 OFFCURVE",
"704 -32 OFFCURVE",
"704 -10 CURVE SMOOTH",
"704 11 OFFCURVE",
"686 28 OFFCURVE",
"665 28 CURVE SMOOTH"
);
},
{
closed = 1;
nodes = (
"345 605 LINE",
"430 699 LINE",
"433 703 OFFCURVE",
"437 706 OFFCURVE",
"440 710 CURVE",
"440 605 LINE"
);
},
{
closed = 1;
nodes = (
"986 157 OFFCURVE",
"967 173 OFFCURVE",
"945 171 CURVE",
"939 170 LINE",
"882 170 LINE",
"882 250 LINE SMOOTH",
"882 272 OFFCURVE",
"865 289 OFFCURVE",
"843 289 CURVE SMOOTH",
"822 289 OFFCURVE",
"805 271 OFFCURVE",
"805 250 CURVE SMOOTH",
"805 170 LINE",
"758 170 LINE SMOOTH",
"751 170 OFFCURVE",
"745 170 OFFCURVE",
"739 171 CURVE",
"728 171 LINE",
"706 173 OFFCURVE",
"688 156 OFFCURVE",
"687 134 CURVE",
"687 113 OFFCURVE",
"703 95 OFFCURVE",
"724 94 CURVE",
"734 94 LINE",
"742 93 OFFCURVE",
"750 93 OFFCURVE",
"758 93 CURVE SMOOTH",
"806 93 LINE",
"806 30 LINE",
"804 9 OFFCURVE",
"819 -8 OFFCURVE",
"840 -10 CURVE",
"844 -10 LINE SMOOTH",
"863 -10 OFFCURVE",
"881 6 OFFCURVE",
"883 26 CURVE",
"883 93 LINE",
"939 93 LINE SMOOTH",
"943 93 OFFCURVE",
"947 93 OFFCURVE",
"951 94 CURVE",
"950 132 LINE",
"953 94 LINE",
"975 96 OFFCURVE",
"990 115 OFFCURVE",
"988 136 CURVE SMOOTH"
);
}
);
width = 1280;
}
);
note = uniED11;
unicode = ED11;
},
{
glyphname = uniED12;
lastChange = "2017-08-02 15:03:29 +0000";
layers = (
{
layerId = "489549A1-39E0-4C35-B6CE-29571649E041";
paths = (
{
closed = 1;
nodes = (
"800 703 LINE",
"800 781 LINE SMOOTH",
"800 802 OFFCURVE",
"783 819 OFFCURVE",
"761 819 CURVE SMOOTH",
"498 819 LINE SMOOTH",
"477 819 OFFCURVE",
"460 802 OFFCURVE",
"460 781 CURVE SMOOTH",
"460 703 LINE",
"206 703 LINE SMOOTH",
"185 703 OFFCURVE",
"167 685 OFFCURVE",
"167 664 CURVE SMOOTH",
"167 643 OFFCURVE",
"185 625 OFFCURVE",
"206 625 CURVE SMOOTH",
"264 625 LINE",
"264 13 LINE SMOOTH",
"264 -61 OFFCURVE",
"283 -81 OFFCURVE",
"357 -81 CURVE SMOOTH",
"907 -81 LINE SMOOTH",
"973 -81 OFFCURVE",
"996 -58 OFFCURVE",
"996 9 CURVE SMOOTH",
"996 625 LINE",
"1054 625 LINE SMOOTH",
"1075 625 OFFCURVE",
"1092 643 OFFCURVE",
"1092 664 CURVE SMOOTH",
"1092 685 OFFCURVE",
"1075 703 OFFCURVE",
"1054 703 CURVE SMOOTH"
);
},
{
closed = 1;
nodes = (
"537 703 LINE",
"537 742 LINE",
"723 742 LINE",
"723 703 LINE"
);
},
{
closed = 1;
nodes = (
"919 625 LINE",
"919 -3 LINE",
"916 -3 OFFCURVE",
"912 -4 OFFCURVE",
"907 -4 CURVE SMOOTH",
"357 -4 LINE SMOOTH",
"353 -4 OFFCURVE",
"347 -4 OFFCURVE",
"341 -3 CURVE",
"341 625 LINE"
);
},
{
closed = 1;
nodes = (
"437 537 OFFCURVE",
"420 519 OFFCURVE",
"420 498 CURVE SMOOTH",
"420 130 LINE SMOOTH",
"420 108 OFFCURVE",
"437 91 OFFCURVE",
"458 91 CURVE SMOOTH",
"480 91 OFFCURVE",
"497 108 OFFCURVE",
"497 130 CURVE SMOOTH",
"497 498 LINE SMOOTH",
"497 519 OFFCURVE",
"480 537 OFFCURVE",
"458 537 CURVE SMOOTH"
);
},
{
closed = 1;
nodes = (
"609 537 OFFCURVE",
"591 519 OFFCURVE",
"591 498 CURVE SMOOTH",
"591 130 LINE SMOOTH",
"591 108 OFFCURVE",
"609 91 OFFCURVE",
"630 91 CURVE SMOOTH",
"651 91 OFFCURVE",
"668 108 OFFCURVE",
"668 130 CURVE SMOOTH",
"668 498 LINE SMOOTH",
"668 519 OFFCURVE",
"651 537 OFFCURVE",
"630 537 CURVE SMOOTH"
);
},
{
closed = 1;
nodes = (
"823 91 OFFCURVE",
"840 108 OFFCURVE",
"840 130 CURVE SMOOTH",
"840 498 LINE SMOOTH",
"840 519 OFFCURVE",
"823 537 OFFCURVE",
"801 537 CURVE SMOOTH",
"780 537 OFFCURVE",
"763 519 OFFCURVE",
"763 498 CURVE SMOOTH",
"763 130 LINE SMOOTH",
"763 108 OFFCURVE",
"780 91 OFFCURVE",
"801 91 CURVE SMOOTH"
);
}
);
width = 1280;
}
);
note = uniED12;
unicode = ED12;
},
{
glyphname = uniED13;
lastChange = "2017-08-02 15:03:29 +0000";
layers = (
{
layerId = "489549A1-39E0-4C35-B6CE-29571649E041";
paths = (
{
closed = 1;
nodes = (
"759 988 OFFCURVE",
"855 890 OFFCURVE",
"855 769 CURVE SMOOTH",
"855 648 OFFCURVE",
"759 550 OFFCURVE",
"641 550 CURVE SMOOTH",
"522 550 OFFCURVE",
"426 648 OFFCURVE",
"426 769 CURVE SMOOTH",
"426 890 OFFCURVE",
"522 988 OFFCURVE",
"641 988 CURVE SMOOTH"
);
},
{
closed = 1;
nodes = (
"759 425 OFFCURVE",
"855 327 OFFCURVE",
"855 206 CURVE SMOOTH",
"855 86 OFFCURVE",
"759 -12 OFFCURVE",
"641 -12 CURVE SMOOTH",
"522 -12 OFFCURVE",
"426 86 OFFCURVE",
"426 206 CURVE SMOOTH",
"426 327 OFFCURVE",
"522 425 OFFCURVE",
"641 425 CURVE SMOOTH"
);
}
);
width = 1280;
}
);
note = uniED13;
unicode = ED13;
},
{
glyphname = uniED14;
lastChange = "2017-08-02 15:03:29 +0000";
layers = (
{
layerId = "489549A1-39E0-4C35-B6CE-29571649E041";
paths = (
{
closed = 1;
nodes = (
"81 -13 LINE",
"640 987 LINE",
"1199 -13 LINE"
);
}
);
width = 1280;
}
);
note = uniED14;
unicode = ED14;
},
{
glyphname = uniED15;
lastChange = "2017-08-02 15:03:29 +0000";
layers = (
{
layerId = "489549A1-39E0-4C35-B6CE-29571649E041";
paths = (
{
closed = 1;
nodes = (
"151 -1 LINE",
"151 999 LINE",
"1134 999 LINE",
"1134 -1 LINE"
);
}
);
width = 1280;
}
);
note = uniED15;
unicode = ED15;
},
{
glyphname = uniED16;
lastChange = "2017-08-02 15:03:29 +0000";
layers = (
{
layerId = "489549A1-39E0-4C35-B6CE-29571649E041";
paths = (
{
closed = 1;
nodes = (
"174 997 LINE",
"1107 452 LINE",
"174 -93 LINE"
);
}
);
width = 1280;
}
);
note = uniED16;
unicode = ED16;
},
{
glyphname = uniED17;
lastChange = "2017-08-02 15:03:29 +0000";
layers = (
{
layerId = "489549A1-39E0-4C35-B6CE-29571649E041";
paths = (
{
closed = 1;
nodes = (
"917 -34 OFFCURVE",
"1141 190 OFFCURVE",
"1141 467 CURVE SMOOTH",
"1141 743 OFFCURVE",
"917 967 OFFCURVE",
"641 967 CURVE SMOOTH",
"364 967 OFFCURVE",
"140 743 OFFCURVE",
"140 467 CURVE SMOOTH",
"140 190 OFFCURVE",
"364 -34 OFFCURVE",
"641 -34 CURVE SMOOTH"
);
}
);
width = 1280;
}
);
note = uniED17;
unicode = ED17;
},
{
glyphname = uniED18;
lastChange = "2017-08-02 15:03:29 +0000";
layers = (
{
layerId = "489549A1-39E0-4C35-B6CE-29571649E041";
paths = (
{
closed = 1;
nodes = (
"1014 29 LINE",
"264 29 LINE",
"264 879 LINE",
"1014 879 LINE"
);
},
{
closed = 1;
nodes = (
"933 797 LINE",
"347 797 LINE",
"347 111 LINE",
"933 111 LINE"
);
},
{
closed = 1;
nodes = (
"775 586 LINE",
"499 586 LINE SMOOTH",
"476 586 OFFCURVE",
"458 604 OFFCURVE",
"458 627 CURVE SMOOTH",
"458 650 OFFCURVE",
"476 667 OFFCURVE",
"499 667 CURVE SMOOTH",
"771 669 LINE",
"794 671 OFFCURVE",
"814 654 OFFCURVE",
"816 631 CURVE SMOOTH",
"818 608 OFFCURVE",
"800 588 OFFCURVE",
"778 586 CURVE",
"775 628 LINE"
);
},
{
closed = 1;
nodes = (
"501 418 LINE",
"490 419 LINE",
"468 420 OFFCURVE",
"450 439 OFFCURVE",
"451 462 CURVE SMOOTH",
"452 485 OFFCURVE",
"472 503 OFFCURVE",
"494 501 CURVE",
"506 501 LINE",
"512 500 OFFCURVE",
"519 500 OFFCURVE",
"525 500 CURVE SMOOTH",
"563 500 LINE SMOOTH",
"630 500 OFFCURVE",
"757 501 OFFCURVE",
"781 501 CURVE",
"802 500 OFFCURVE",
"822 483 OFFCURVE",
"822 460 CURVE SMOOTH",
"822 438 OFFCURVE",
"804 419 OFFCURVE",
"782 418 CURVE"
);
},
{
closed = 1;
nodes = (
"516 250 OFFCURVE",
"508 250 OFFCURVE",
"500 251 CURVE",
"490 251 LINE",
"467 252 OFFCURVE",
"450 272 OFFCURVE",
"451 294 CURVE SMOOTH",
"452 317 OFFCURVE",
"472 335 OFFCURVE",
"494 333 CURVE",
"504 333 LINE SMOOTH",
"512 333 OFFCURVE",
"519 333 OFFCURVE",
"525 332 CURVE",
"781 333 LINE",
"804 335 OFFCURVE",
"822 315 OFFCURVE",
"822 292 CURVE SMOOTH",
"822 270 OFFCURVE",
"804 251 OFFCURVE",
"782 251 CURVE SMOOTH",
"751 250 OFFCURVE",
"556 250 OFFCURVE",
"525 250 CURVE SMOOTH"
);
}
);
width = 1280;
}
);
note = uniED18;
unicode = ED18;
},
{
glyphname = uniF024;
lastChange = "2017-08-02 15:03:29 +0000";
layers = (
{
layerId = "489549A1-39E0-4C35-B6CE-29571649E041";
paths = (
{
closed = 1;
nodes = (
"1221 808 OFFCURVE",
"1217 816 OFFCURVE",
"1210 822 CURVE",
"1061 997 LINE",
"1054 1006 OFFCURVE",
"1042 1010 OFFCURVE",
"1030 1010 CURVE SMOOTH",
"266 1010 LINE SMOOTH",
"255 1010 OFFCURVE",
"243 1006 OFFCURVE",
"236 998 CURVE",
"65 819 LINE SMOOTH",
"56 809 OFFCURVE",
"52 796 OFFCURVE",
"54 784 CURVE",
"54 600 LINE SMOOTH",
"54 577 OFFCURVE",
"72 559 OFFCURVE",
"95 559 CURVE SMOOTH",
"106 559 LINE",
"106 -118 LINE SMOOTH",
"106 -141 OFFCURVE",
"125 -159 OFFCURVE",
"148 -159 CURVE SMOOTH",
"1133 -159 LINE SMOOTH",
"1155 -159 OFFCURVE",
"1174 -141 OFFCURVE",
"1174 -118 CURVE SMOOTH",
"1174 559 LINE",
"1183 559 LINE SMOOTH",
"1206 559 OFFCURVE",
"1224 577 OFFCURVE",
"1224 600 CURVE SMOOTH",
"1224 787 LINE SMOOTH",
"1224 791 OFFCURVE",
"1224 795 OFFCURVE",
"1223 799 CURVE SMOOTH"
);
},
{
closed = 1;
nodes = (
"192 832 LINE",
"283 928 LINE",
"1011 928 LINE",
"1093 832 LINE"
);
},
{
closed = 1;
nodes = (
"1142 642 LINE",
"136 642 LINE",
"136 750 LINE",
"1142 750 LINE"
);
},
{
closed = 1;
nodes = (
"1092 559 LINE",
"1092 -77 LINE",
"188 -77 LINE",
"188 559 LINE"
);
},
{
closed = 1;
nodes = (
"846 297 LINE SMOOTH",
"868 297 OFFCURVE",
"887 315 OFFCURVE",
"887 338 CURVE SMOOTH",
"887 488 LINE SMOOTH",
"887 511 OFFCURVE",
"868 529 OFFCURVE",
"846 529 CURVE SMOOTH",
"432 529 LINE SMOOTH",
"408 529 OFFCURVE",
"390 511 OFFCURVE",
"390 488 CURVE SMOOTH",
"390 338 LINE SMOOTH",
"390 315 OFFCURVE",
"408 297 OFFCURVE",
"432 297 CURVE SMOOTH"
);
},
{
closed = 1;
nodes = (
"473 380 LINE",
"473 446 LINE",
"805 446 LINE",
"805 380 LINE"
);
},
{
closed = 1;
nodes = (
"903 -8 LINE SMOOTH",
"926 -8 OFFCURVE",
"944 10 OFFCURVE",
"944 33 CURVE SMOOTH",
"944 204 LINE SMOOTH",
"944 226 OFFCURVE",
"926 244 OFFCURVE",
"903 244 CURVE SMOOTH",
"375 244 LINE SMOOTH",
"352 244 OFFCURVE",
"334 226 OFFCURVE",
"334 204 CURVE SMOOTH",
"334 33 LINE SMOOTH",
"334 10 OFFCURVE",
"352 -8 OFFCURVE",
"375 -8 CURVE SMOOTH"
);
},
{
closed = 1;
nodes = (
"416 75 LINE",
"416 162 LINE",
"862 162 LINE",
"862 75 LINE"
);
}
);
width = 1280;
}
);
note = uniF024;
unicode = F024;
},
{
glyphname = uniF025;
lastChange = "2017-08-02 15:03:29 +0000";
layers = (
{
layerId = "489549A1-39E0-4C35-B6CE-29571649E041";
paths = (
{
closed = 1;
nodes = (
"155 694 LINE SMOOTH",
"133 694 OFFCURVE",
"114 712 OFFCURVE",
"114 734 CURVE SMOOTH",
"114 757 OFFCURVE",
"133 775 OFFCURVE",
"155 775 CURVE SMOOTH",
"1146 775 LINE SMOOTH",
"1169 775 OFFCURVE",
"1187 757 OFFCURVE",
"1187 734 CURVE SMOOTH",
"1187 712 OFFCURVE",
"1169 694 OFFCURVE",
"1146 694 CURVE SMOOTH"
);
},
{
closed = 1;
nodes = (
"609 418 LINE SMOOTH",
"587 418 OFFCURVE",
"569 437 OFFCURVE",
"569 459 CURVE SMOOTH",
"569 481 OFFCURVE",
"587 500 OFFCURVE",
"609 500 CURVE SMOOTH",
"1146 500 LINE SMOOTH",
"1169 500 OFFCURVE",
"1187 481 OFFCURVE",
"1187 459 CURVE SMOOTH",
"1187 437 OFFCURVE",
"1169 418 OFFCURVE",
"1146 418 CURVE SMOOTH"
);
},
{
closed = 1;
nodes = (
"342 165 OFFCURVE",
"335 166 OFFCURVE",
"328 170 CURVE SMOOTH",
"127 286 LINE SMOOTH",
"115 293 OFFCURVE",
"107 307 OFFCURVE",
"107 321 CURVE SMOOTH",
"107 336 OFFCURVE",
"115 349 OFFCURVE",
"127 357 CURVE",
"328 473 LINE SMOOTH",
"341 480 OFFCURVE",
"356 480 OFFCURVE",
"369 473 CURVE SMOOTH",
"381 466 OFFCURVE",
"389 452 OFFCURVE",
"389 438 CURVE SMOOTH",
"389 205 LINE SMOOTH",
"389 191 OFFCURVE",
"381 177 OFFCURVE",
"369 170 CURVE",
"363 166 OFFCURVE",
"356 165 OFFCURVE",
"349 165 CURVE SMOOTH"
);
},
{
closed = 1;
nodes = (
"308 367 LINE",
"229 321 LINE",
"308 275 LINE"
);
},
{
closed = 1;
nodes = (
"609 143 LINE SMOOTH",
"587 143 OFFCURVE",
"569 161 OFFCURVE",
"569 184 CURVE SMOOTH",
"569 206 OFFCURVE",
"587 224 OFFCURVE",
"609 224 CURVE SMOOTH",
"1146 224 LINE SMOOTH",
"1169 224 OFFCURVE",
"1187 206 OFFCURVE",
"1187 184 CURVE SMOOTH",
"1187 161 OFFCURVE",
"1169 143 OFFCURVE",
"1146 143 CURVE SMOOTH"
);
},
{
closed = 1;
nodes = (
"155 -132 LINE SMOOTH",
"133 -132 OFFCURVE",
"114 -114 OFFCURVE",
"114 -92 CURVE SMOOTH",
"114 -69 OFFCURVE",
"133 -51 OFFCURVE",
"155 -51 CURVE SMOOTH",
"1146 -51 LINE SMOOTH",
"1169 -51 OFFCURVE",
"1187 -69 OFFCURVE",
"1187 -92 CURVE SMOOTH",
"1187 -114 OFFCURVE",
"1169 -132 OFFCURVE",
"1146 -132 CURVE SMOOTH"
);
}
);
width = 1280;
}
);
note = uniF025;
unicode = F025;
},
{
glyphname = uniF026;
lastChange = "2017-08-02 15:03:29 +0000";
layers = (
{
layerId = "489549A1-39E0-4C35-B6CE-29571649E041";
paths = (
{
closed = 1;
nodes = (
"155 694 LINE SMOOTH",
"133 694 OFFCURVE",
"115 712 OFFCURVE",
"115 734 CURVE SMOOTH",
"115 757 OFFCURVE",
"133 774 OFFCURVE",
"155 774 CURVE SMOOTH",
"1146 776 LINE SMOOTH",
"1168 776 OFFCURVE",
"1187 758 OFFCURVE",
"1187 735 CURVE SMOOTH",
"1187 713 OFFCURVE",
"1168 695 OFFCURVE",
"1146 695 CURVE SMOOTH"
);
},
{
closed = 1;
nodes = (
"610 419 LINE SMOOTH",
"587 419 OFFCURVE",
"569 437 OFFCURVE",
"569 459 CURVE SMOOTH",
"569 482 OFFCURVE",
"587 500 OFFCURVE",
"610 500 CURVE SMOOTH",
"1146 500 LINE SMOOTH",
"1169 500 OFFCURVE",
"1187 482 OFFCURVE",
"1187 460 CURVE SMOOTH",
"1187 437 OFFCURVE",
"1169 419 OFFCURVE",
"1146 419 CURVE SMOOTH"
);
},
{
closed = 1;
nodes = (
"141 165 OFFCURVE",
"134 166 OFFCURVE",
"128 170 CURVE",
"116 177 OFFCURVE",
"108 190 OFFCURVE",
"108 205 CURVE SMOOTH",
"108 437 LINE SMOOTH",
"108 452 OFFCURVE",
"116 465 OFFCURVE",
"128 472 CURVE SMOOTH",
"140 479 OFFCURVE",
"156 479 OFFCURVE",
"168 472 CURVE SMOOTH",
"370 357 LINE",
"382 349 OFFCURVE",
"390 336 OFFCURVE",
"390 321 CURVE SMOOTH",
"390 307 OFFCURVE",
"382 294 OFFCURVE",
"370 286 CURVE",
"168 170 LINE",
"162 166 OFFCURVE",
"155 165 OFFCURVE",
"148 165 CURVE SMOOTH"
);
},
{
closed = 1;
nodes = (
"268 321 LINE",
"189 367 LINE",
"189 276 LINE"
);
},
{
closed = 1;
nodes = (
"610 144 LINE SMOOTH",
"587 144 OFFCURVE",
"569 162 OFFCURVE",
"569 184 CURVE SMOOTH",
"569 207 OFFCURVE",
"587 225 OFFCURVE",
"610 225 CURVE SMOOTH",
"1146 225 LINE SMOOTH",
"1169 225 OFFCURVE",
"1187 207 OFFCURVE",
"1187 185 CURVE SMOOTH",
"1187 162 OFFCURVE",
"1169 144 OFFCURVE",
"1146 144 CURVE SMOOTH"
);
},
{
closed = 1;
nodes = (
"156 -132 LINE SMOOTH",
"134 -132 OFFCURVE",
"116 -114 OFFCURVE",
"116 -91 CURVE SMOOTH",
"116 -69 OFFCURVE",
"133 -51 OFFCURVE",
"156 -51 CURVE SMOOTH",
"1146 -50 LINE SMOOTH",
"1169 -50 OFFCURVE",
"1188 -68 OFFCURVE",
"1188 -90 CURVE SMOOTH",
"1188 -113 OFFCURVE",
"1169 -131 OFFCURVE",
"1147 -131 CURVE SMOOTH"
);
}
);
width = 1280;
}
);
note = uniF026;
unicode = F026;
},
{
glyphname = uniF027;
lastChange = "2017-08-02 15:03:29 +0000";
layers = (
{
layerId = "489549A1-39E0-4C35-B6CE-29571649E041";
paths = (
{
closed = 1;
nodes = (
"906 598 OFFCURVE",
"884 612 OFFCURVE",
"856 616 CURVE",
"836 618 OFFCURVE",
"816 621 OFFCURVE",
"795 623 CURVE SMOOTH",
"761 627 LINE SMOOTH",
"749 628 OFFCURVE",
"744 632 OFFCURVE",
"740 642 CURVE",
"727 671 OFFCURVE",
"712 702 OFFCURVE",
"693 734 CURVE SMOOTH",
"685 747 OFFCURVE",
"667 777 OFFCURVE",
"628 777 CURVE SMOOTH",
"588 777 OFFCURVE",
"571 748 OFFCURVE",
"563 733 CURVE",
"544 702 OFFCURVE",
"529 670 OFFCURVE",
"517 642 CURVE",
"513 634 OFFCURVE",
"510 629 OFFCURVE",
"487 626 CURVE SMOOTH",
"470 624 OFFCURVE",
"457 623 OFFCURVE",
"445 622 CURVE SMOOTH",
"428 620 OFFCURVE",
"414 618 OFFCURVE",
"396 615 CURVE SMOOTH",
"367 610 OFFCURVE",
"345 593 OFFCURVE",
"336 568 CURVE SMOOTH",
"327 542 OFFCURVE",
"335 512 OFFCURVE",
"357 488 CURVE SMOOTH",
"370 474 OFFCURVE",
"384 461 OFFCURVE",
"397 448 CURVE SMOOTH",
"408 437 OFFCURVE",
"420 426 OFFCURVE",
"431 414 CURVE",
"437 408 LINE SMOOTH",
"438 407 OFFCURVE",
"438 406 OFFCURVE",
"439 406 CURVE",
"434 371 LINE SMOOTH",
"429 338 OFFCURVE",
"423 299 OFFCURVE",
"421 278 CURVE SMOOTH",
"419 255 OFFCURVE",
"434 228 OFFCURVE",
"455 217 CURVE SMOOTH",
"474 207 OFFCURVE",
"501 207 OFFCURVE",
"520 216 CURVE",
"568 241 LINE",
"587 252 OFFCURVE",
"606 262 OFFCURVE",
"631 270 CURVE",
"665 251 LINE SMOOTH",
"684 241 OFFCURVE",
"703 230 OFFCURVE",
"723 219 CURVE",
"738 210 OFFCURVE",
"753 206 OFFCURVE",
"767 206 CURVE SMOOTH",
"781 206 OFFCURVE",
"794 210 OFFCURVE",
"806 218 CURVE SMOOTH",
"843 244 OFFCURVE",
"837 284 OFFCURVE",
"835 299 CURVE SMOOTH",
"832 320 OFFCURVE",
"829 335 OFFCURVE",
"826 352 CURVE",
"823 366 OFFCURVE",
"820 381 OFFCURVE",
"817 403 CURVE",
"826 414 OFFCURVE",
"852 441 OFFCURVE",
"869 458 CURVE SMOOTH",
"905 495 OFFCURVE",
"909 500 OFFCURVE",
"913 507 CURVE SMOOTH",
"926 531 OFFCURVE",
"927 556 OFFCURVE",
"916 577 CURVE"
);
},
{
closed = 1;
nodes = (
"812 512 LINE SMOOTH",
"775 473 OFFCURVE",
"756 454 OFFCURVE",
"749 443 CURVE",
"740 430 OFFCURVE",
"736 412 OFFCURVE",
"739 397 CURVE SMOOTH",
"749 336 LINE",
"752 322 OFFCURVE",
"755 308 OFFCURVE",
"758 289 CURVE",
"739 300 OFFCURVE",
"721 310 OFFCURVE",
"703 319 CURVE",
"669 338 LINE SMOOTH",
"655 346 OFFCURVE",
"641 350 OFFCURVE",
"627 350 CURVE SMOOTH",
"615 350 OFFCURVE",
"604 347 OFFCURVE",
"593 342 CURVE SMOOTH",
"572 333 OFFCURVE",
"551 321 OFFCURVE",
"531 310 CURVE",
"521 305 OFFCURVE",
"511 300 OFFCURVE",
"502 295 CURVE",
"504 314 OFFCURVE",
"508 338 OFFCURVE",
"511 359 CURVE SMOOTH",
"517 399 OFFCURVE",
"518 407 OFFCURVE",
"518 413 CURVE",
"517 439 OFFCURVE",
"501 454 OFFCURVE",
"492 463 CURVE SMOOTH",
"488 467 LINE",
"476 480 OFFCURVE",
"464 492 OFFCURVE",
"452 504 CURVE",
"440 515 OFFCURVE",
"428 527 OFFCURVE",
"417 539 CURVE",
"429 541 OFFCURVE",
"440 542 OFFCURVE",
"453 544 CURVE",
"466 545 OFFCURVE",
"480 546 OFFCURVE",
"497 549 CURVE",
"526 553 OFFCURVE",
"566 563 OFFCURVE",
"588 610 CURVE SMOOTH",
"599 634 OFFCURVE",
"611 661 OFFCURVE",
"628 690 CURVE",
"644 664 OFFCURVE",
"657 636 OFFCURVE",
"668 610 CURVE SMOOTH",
"684 575 OFFCURVE",
"713 554 OFFCURVE",
"751 549 CURVE SMOOTH",
"787 545 LINE SMOOTH",
"803 543 OFFCURVE",
"819 542 OFFCURVE",
"838 539 CURVE"
);
}
);
width = 1280;
}
);
note = uniF027;
unicode = F027;
},
{
glyphname = uniF028;
lastChange = "2017-08-02 15:03:29 +0000";
layers = (
{
layerId = "489549A1-39E0-4C35-B6CE-29571649E041";
paths = (
{
closed = 1;
nodes = (
"905 598 OFFCURVE",
"884 612 OFFCURVE",
"856 616 CURVE SMOOTH",
"835 619 OFFCURVE",
"813 621 OFFCURVE",
"792 623 CURVE SMOOTH",
"760 627 LINE SMOOTH",
"749 628 OFFCURVE",
"744 632 OFFCURVE",
"739 642 CURVE",
"726 671 OFFCURVE",
"711 703 OFFCURVE",
"693 734 CURVE SMOOTH",
"685 747 OFFCURVE",
"667 777 OFFCURVE",
"628 777 CURVE SMOOTH",
"588 777 OFFCURVE",
"571 748 OFFCURVE",
"562 733 CURVE SMOOTH",
"544 702 OFFCURVE",
"529 670 OFFCURVE",
"516 642 CURVE",
"513 634 OFFCURVE",
"509 629 OFFCURVE",
"487 626 CURVE SMOOTH",
"470 624 OFFCURVE",
"456 623 OFFCURVE",
"444 622 CURVE",
"428 620 OFFCURVE",
"413 618 OFFCURVE",
"396 615 CURVE",
"367 611 OFFCURVE",
"344 593 OFFCURVE",
"336 568 CURVE SMOOTH",
"327 542 OFFCURVE",
"335 512 OFFCURVE",
"357 488 CURVE SMOOTH",
"370 474 OFFCURVE",
"383 461 OFFCURVE",
"397 448 CURVE",
"408 437 OFFCURVE",
"419 426 OFFCURVE",
"430 414 CURVE",
"437 407 LINE",
"437 407 OFFCURVE",
"438 406 OFFCURVE",
"439 406 CURVE",
"438 398 OFFCURVE",
"436 385 OFFCURVE",
"433 370 CURVE",
"428 338 OFFCURVE",
"422 299 OFFCURVE",
"421 278 CURVE",
"419 255 OFFCURVE",
"434 228 OFFCURVE",
"455 217 CURVE SMOOTH",
"474 207 OFFCURVE",
"500 207 OFFCURVE",
"520 216 CURVE",
"568 241 LINE",
"587 252 OFFCURVE",
"606 262 OFFCURVE",
"630 270 CURVE",
"664 251 LINE SMOOTH",
"683 241 OFFCURVE",
"702 231 OFFCURVE",
"723 219 CURVE SMOOTH",
"738 210 OFFCURVE",
"753 206 OFFCURVE",
"767 206 CURVE SMOOTH",
"781 206 OFFCURVE",
"794 210 OFFCURVE",
"806 218 CURVE SMOOTH",
"843 244 OFFCURVE",
"837 284 OFFCURVE",
"835 299 CURVE SMOOTH",
"832 320 OFFCURVE",
"829 335 OFFCURVE",
"826 352 CURVE",
"823 366 OFFCURVE",
"820 382 OFFCURVE",
"817 403 CURVE",
"826 414 OFFCURVE",
"852 441 OFFCURVE",
"868 458 CURVE SMOOTH",
"904 495 OFFCURVE",
"908 500 OFFCURVE",
"912 507 CURVE SMOOTH",
"926 531 OFFCURVE",
"927 556 OFFCURVE",
"916 577 CURVE SMOOTH"
);
}
);
width = 1280;
}
);
note = uniF028;
unicode = F028;
},
{
glyphname = uniF029;
lastChange = "2017-08-02 15:03:29 +0000";
layers = (
{
layerId = "489549A1-39E0-4C35-B6CE-29571649E041";
paths = (
{
closed = 1;
nodes = (
"1135 739 LINE SMOOTH",
"1158 739 OFFCURVE",
"1176 758 OFFCURVE",
"1176 780 CURVE SMOOTH",
"1176 803 OFFCURVE",
"1158 821 OFFCURVE",
"1135 821 CURVE SMOOTH",
"137 821 LINE SMOOTH",
"114 821 OFFCURVE",
"96 803 OFFCURVE",
"96 780 CURVE SMOOTH",
"96 758 OFFCURVE",
"114 739 OFFCURVE",
"137 739 CURVE SMOOTH"
);
},
{
closed = 1;
nodes = (
"856 327 LINE SMOOTH",
"879 327 OFFCURVE",
"897 345 OFFCURVE",
"897 368 CURVE SMOOTH",
"897 391 OFFCURVE",
"879 409 OFFCURVE",
"856 409 CURVE SMOOTH",
"137 409 LINE SMOOTH",
"114 409 OFFCURVE",
"96 391 OFFCURVE",
"96 368 CURVE SMOOTH",
"96 345 OFFCURVE",
"114 327 OFFCURVE",
"137 327 CURVE SMOOTH"
);
},
{
closed = 1;
nodes = (
"635 -92 LINE SMOOTH",
"657 -92 OFFCURVE",
"675 -74 OFFCURVE",
"675 -52 CURVE SMOOTH",
"675 -29 OFFCURVE",
"657 -11 OFFCURVE",
"635 -11 CURVE SMOOTH",
"137 -11 LINE SMOOTH",
"114 -11 OFFCURVE",
"96 -29 OFFCURVE",
"96 -52 CURVE SMOOTH",
"96 -74 OFFCURVE",
"114 -92 OFFCURVE",
"137 -92 CURVE SMOOTH"
);
}
);
width = 1280;
}
);
note = uniF029;
unicode = F029;
},
